{
    "asset" : {
        "generator" : "Khronos glTF Blender I/O v1.6.16",
        "version" : "2.0"
    },
    "scene" : 0,
    "scenes" : [
        {
            "name" : "Scene",
            "nodes" : [
                0,
                1,
                2,
                3,
                4,
                5,
                6
            ]
        }
    ],
    "nodes" : [
        {
            "mesh" : 0,
            "name" : "orange-chassis"
        },
        {
            "name" : "Light",
            "rotation" : [
                0.16907575726509094,
                0.7558803558349609,
                -0.27217137813568115,
                0.570947527885437
            ],
            "translation" : [
                4.076245307922363,
                5.903861999511719,
                -1.0054539442062378
            ]
        },
        {
            "name" : "Camera",
            "rotation" : [
                0.483536034822464,
                0.33687159419059753,
                -0.20870360732078552,
                0.7804827094078064
            ],
            "translation" : [
                7.358891487121582,
                4.958309173583984,
                6.925790786743164
            ]
        },
        {
            "mesh" : 1,
            "name" : "back-left-tire"
        },
        {
            "mesh" : 2,
            "name" : "front-left-tire"
        },
        {
            "mesh" : 3,
            "name" : "front-right-tire"
        },
        {
            "mesh" : 4,
            "name" : "back-right-tire"
        }
    ],
    "materials" : [
        {
            "doubleSided" : true,
            "name" : "Material",
            "pbrMetallicRoughness" : {
                "baseColorTexture" : {
                    "index" : 0
                },
                "metallicFactor" : 0
            }
        }
    ],
    "meshes" : [
        {
            "name" : "Cube",
            "primitives" : [
                {
                    "attributes" : {
                        "POSITION" : 0,
                        "NORMAL" : 1,
                        "TEXCOORD_0" : 2
                    },
                    "indices" : 3,
                    "material" : 0
                }
            ]
        },
        {
            "name" : "Cube.001",
            "primitives" : [
                {
                    "attributes" : {
                        "POSITION" : 4,
                        "NORMAL" : 5,
                        "TEXCOORD_0" : 6
                    },
                    "indices" : 7,
                    "material" : 0
                }
            ]
        },
        {
            "name" : "Cube.002",
            "primitives" : [
                {
                    "attributes" : {
                        "POSITION" : 8,
                        "NORMAL" : 9,
                        "TEXCOORD_0" : 10
                    },
                    "indices" : 11,
                    "material" : 0
                }
            ]
        },
        {
            "name" : "Cube.003",
            "primitives" : [
                {
                    "attributes" : {
                        "POSITION" : 12,
                        "NORMAL" : 13,
                        "TEXCOORD_0" : 14
                    },
                    "indices" : 15,
                    "material" : 0
                }
            ]
        },
        {
            "name" : "Cube.004",
            "primitives" : [
                {
                    "attributes" : {
                        "POSITION" : 16,
                        "NORMAL" : 17,
                        "TEXCOORD_0" : 18
                    },
                    "indices" : 19,
                    "material" : 0
                }
            ]
        }
    ],
    "textures" : [
        {
            "sampler" : 0,
            "source" : 0
        }
    ],
    "images" : [
        {
            "bufferView" : 4,
            "mimeType" : "image/png",
            "name" : "lowpoly-palette2"
        }
    ],
    "accessors" : [
        {
            "bufferView" : 0,
            "componentType" : 5126,
            "count" : 286,
            "max" : [
                -0.23666799068450928,
                0.3160231113433838,
                2.4985525608062744
            ],
            "min" : [
                -2.3828916549682617,
                -1.446458339691162,
                -3.070951461791992
            ],
            "type" : "VEC3"
        },
        {
            "bufferView" : 1,
            "componentType" : 5126,
            "count" : 286,
            "type" : "VEC3"
        },
        {
            "bufferView" : 2,
            "componentType" : 5126,
            "count" : 286,
            "type" : "VEC2"
        },
        {
            "bufferView" : 3,
            "componentType" : 5123,
            "count" : 468,
            "type" : "SCALAR"
        },
        {
            "bufferView" : 5,
            "componentType" : 5126,
            "count" : 132,
            "max" : [
                0.21832525730133057,
                -0.9623453617095947,
                -1.254561424255371
            ],
            "min" : [
                -0.20207226276397705,
                -2.46844482421875,
                -2.8381690979003906
            ],
            "type" : "VEC3"
        },
        {
            "bufferView" : 6,
            "componentType" : 5126,
            "count" : 132,
            "type" : "VEC3"
        },
        {
            "bufferView" : 7,
            "componentType" : 5126,
            "count" : 132,
            "type" : "VEC2"
        },
        {
            "bufferView" : 8,
            "componentType" : 5123,
            "count" : 228,
            "type" : "SCALAR"
        },
        {
            "bufferView" : 9,
            "componentType" : 5126,
            "count" : 138,
            "max" : [
                0.22233092784881592,
                -1.0301481485366821,
                2.2983028888702393
            ],
            "min" : [
                -0.19806647300720215,
                -2.536247491836548,
                0.7146964073181152
            ],
            "type" : "VEC3"
        },
        {
            "bufferView" : 10,
            "componentType" : 5126,
            "count" : 138,
            "type" : "VEC3"
        },
        {
            "bufferView" : 11,
            "componentType" : 5126,
            "count" : 138,
            "type" : "VEC2"
        },
        {
            "bufferView" : 12,
            "componentType" : 5123,
            "count" : 228,
            "type" : "SCALAR"
        },
        {
            "bufferView" : 13,
            "componentType" : 5126,
            "count" : 130,
            "max" : [
                -2.421492576599121,
                -1.0301481485366821,
                2.2983028888702393
            ],
            "min" : [
                -2.841890335083008,
                -2.536247491836548,
                0.7146968841552734
            ],
            "type" : "VEC3"
        },
        {
            "bufferView" : 14,
            "componentType" : 5126,
            "count" : 130,
            "type" : "VEC3"
        },
        {
            "bufferView" : 15,
            "componentType" : 5126,
            "count" : 130,
            "type" : "VEC2"
        },
        {
            "bufferView" : 16,
            "componentType" : 5123,
            "count" : 228,
            "type" : "SCALAR"
        },
        {
            "bufferView" : 17,
            "componentType" : 5126,
            "count" : 136,
            "max" : [
                -2.417487621307373,
                -0.9623453617095947,
                -1.254561424255371
            ],
            "min" : [
                -2.8378849029541016,
                -2.46844482421875,
                -2.838168144226074
            ],
            "type" : "VEC3"
        },
        {
            "bufferView" : 18,
            "componentType" : 5126,
            "count" : 136,
            "type" : "VEC3"
        },
        {
            "bufferView" : 19,
            "componentType" : 5126,
            "count" : 136,
            "type" : "VEC2"
        },
        {
            "bufferView" : 20,
            "componentType" : 5123,
            "count" : 228,
            "type" : "SCALAR"
        }
    ],
    "bufferViews" : [
        {
            "buffer" : 0,
            "byteLength" : 3432,
            "byteOffset" : 0
        },
        {
            "buffer" : 0,
            "byteLength" : 3432,
            "byteOffset" : 3432
        },
        {
            "buffer" : 0,
            "byteLength" : 2288,
            "byteOffset" : 6864
        },
        {
            "buffer" : 0,
            "byteLength" : 936,
            "byteOffset" : 9152
        },
        {
            "buffer" : 0,
            "byteLength" : 1126,
            "byteOffset" : 10088
        },
        {
            "buffer" : 0,
            "byteLength" : 1584,
            "byteOffset" : 11216
        },
        {
            "buffer" : 0,
            "byteLength" : 1584,
            "byteOffset" : 12800
        },
        {
            "buffer" : 0,
            "byteLength" : 1056,
            "byteOffset" : 14384
        },
        {
            "buffer" : 0,
            "byteLength" : 456,
            "byteOffset" : 15440
        },
        {
            "buffer" : 0,
            "byteLength" : 1656,
            "byteOffset" : 15896
        },
        {
            "buffer" : 0,
            "byteLength" : 1656,
            "byteOffset" : 17552
        },
        {
            "buffer" : 0,
            "byteLength" : 1104,
            "byteOffset" : 19208
        },
        {
            "buffer" : 0,
            "byteLength" : 456,
            "byteOffset" : 20312
        },
        {
            "buffer" : 0,
            "byteLength" : 1560,
            "byteOffset" : 20768
        },
        {
            "buffer" : 0,
            "byteLength" : 1560,
            "byteOffset" : 22328
        },
        {
            "buffer" : 0,
            "byteLength" : 1040,
            "byteOffset" : 23888
        },
        {
            "buffer" : 0,
            "byteLength" : 456,
            "byteOffset" : 24928
        },
        {
            "buffer" : 0,
            "byteLength" : 1632,
            "byteOffset" : 25384
        },
        {
            "buffer" : 0,
            "byteLength" : 1632,
            "byteOffset" : 27016
        },
        {
            "buffer" : 0,
            "byteLength" : 1088,
            "byteOffset" : 28648
        },
        {
            "buffer" : 0,
            "byteLength" : 456,
            "byteOffset" : 29736
        }
    ],
    "samplers" : [
        {
            "magFilter" : 9728,
            "minFilter" : 9984
        }
    ],
    "buffers" : [
        {
            "byteLength" : 30192,
            "uri" : "data:application/octet-stream;base64,"
        }
    ]
}
