{
    "asset" : {
        "generator" : "Khronos glTF Blender I/O v1.6.16",
        "version" : "2.0"
    },
    "scene" : 0,
    "scenes" : [
        {
            "name" : "Scene",
            "nodes" : [
                0,
                1,
                2,
                3,
                4,
                5,
                6,
                7,
                8,
                9,
                10,
                11,
                12
            ]
        }
    ],
    "nodes" : [
        {
            "mesh" : 0,
            "name" : "ground"
        },
        {
            "name" : "Light",
            "rotation" : [
                0.16907575726509094,
                0.7558803558349609,
                -0.27217137813568115,
                0.570947527885437
            ],
            "translation" : [
                4.076245307922363,
                5.903861999511719,
                -1.0054539442062378
            ]
        },
        {
            "name" : "Camera",
            "rotation" : [
                0.483536034822464,
                0.33687159419059753,
                -0.20870360732078552,
                0.7804827094078064
            ],
            "translation" : [
                7.358891487121582,
                4.958309173583984,
                6.925790786743164
            ]
        },
        {
            "mesh" : 1,
            "name" : "goal",
            "translation" : [
                242.40687561035156,
                2.64697265625,
                -3.0760269165039062
            ]
        },
        {
            "mesh" : 2,
            "name" : "checkpoint",
            "translation" : [
                297.91851806640625,
                2.64697265625,
                -9.530868530273438
            ]
        },
        {
            "mesh" : 3,
            "name" : "checkpoint-spawn",
            "rotation" : [
                0,
                0.7181612849235535,
                0,
                0.6958767175674438
            ],
            "translation" : [
                -254.9687042236328,
                0.514438271522522,
                -6.8714141845703125
            ]
        },
        {
            "mesh" : 4,
            "name" : "goal-spawn",
            "rotation" : [
                0,
                -0.7466549873352051,
                0,
                0.6652114987373352
            ],
            "translation" : [
                268.9493408203125,
                0.514438271522522,
                -1.4923782348632812
            ]
        },
        {
            "mesh" : 5,
            "name" : "house.001",
            "translation" : [
                -228.09521484375,
                13.702631950378418,
                -229.92611694335938
            ]
        },
        {
            "mesh" : 6,
            "name" : "house.002",
            "translation" : [
                205.05130004882812,
                13.702631950378418,
                -47.74430847167969
            ]
        },
        {
            "mesh" : 7,
            "name" : "house",
            "scale" : [
                1.2883884906768799,
                1.2883884906768799,
                1.2883884906768799
            ],
            "translation" : [
                199.1038818359375,
                1.0001144409179688,
                -12.811298370361328
            ]
        },
        {
            "mesh" : 8,
            "name" : "bridge",
            "rotation" : [
                0,
                -0.8314098119735718,
                0,
                0.5556597113609314
            ],
            "scale" : [
                6.297747611999512,
                6.2977471351623535,
                6.297747611999512
            ],
            "translation" : [
                0,
                3.15608286857605,
                -154.5977020263672
            ]
        },
        {
            "mesh" : 9,
            "name" : "house.003",
            "scale" : [
                3.1689112186431885,
                3.1689112186431885,
                3.1689112186431885
            ],
            "translation" : [
                126.50181579589844,
                -3.5692036151885986,
                66.59931182861328
            ]
        },
        {
            "mesh" : 10,
            "name" : "road",
            "translation" : [
                -200.71788024902344,
                1.0000133514404297,
                234.23410034179688
            ]
        }
    ],
    "materials" : [
        {
            "doubleSided" : true,
            "name" : "Material",
            "pbrMetallicRoughness" : {
                "baseColorTexture" : {
                    "index" : 0
                },
                "metallicFactor" : 0
            }
        }
    ],
    "meshes" : [
        {
            "name" : "Cube",
            "primitives" : [
                {
                    "attributes" : {
                        "POSITION" : 0,
                        "NORMAL" : 1,
                        "TEXCOORD_0" : 2
                    },
                    "indices" : 3,
                    "material" : 0
                }
            ]
        },
        {
            "name" : "Cube.001",
            "primitives" : [
                {
                    "attributes" : {
                        "POSITION" : 4,
                        "NORMAL" : 5,
                        "TEXCOORD_0" : 6
                    },
                    "indices" : 7,
                    "material" : 0
                }
            ]
        },
        {
            "name" : "Cube.002",
            "primitives" : [
                {
                    "attributes" : {
                        "POSITION" : 8,
                        "NORMAL" : 9,
                        "TEXCOORD_0" : 10
                    },
                    "indices" : 11,
                    "material" : 0
                }
            ]
        },
        {
            "name" : "Plane",
            "primitives" : [
                {
                    "attributes" : {
                        "POSITION" : 12,
                        "NORMAL" : 13,
                        "TEXCOORD_0" : 14
                    },
                    "indices" : 15
                }
            ]
        },
        {
            "name" : "Plane.001",
            "primitives" : [
                {
                    "attributes" : {
                        "POSITION" : 16,
                        "NORMAL" : 17,
                        "TEXCOORD_0" : 18
                    },
                    "indices" : 15
                }
            ]
        },
        {
            "name" : "Cube.003",
            "primitives" : [
                {
                    "attributes" : {
                        "POSITION" : 19,
                        "NORMAL" : 20,
                        "TEXCOORD_0" : 21
                    },
                    "indices" : 22,
                    "material" : 0
                }
            ]
        },
        {
            "name" : "Cube.004",
            "primitives" : [
                {
                    "attributes" : {
                        "POSITION" : 23,
                        "NORMAL" : 24,
                        "TEXCOORD_0" : 25
                    },
                    "indices" : 22,
                    "material" : 0
                }
            ]
        },
        {
            "name" : "Plane.002",
            "primitives" : [
                {
                    "attributes" : {
                        "POSITION" : 26,
                        "NORMAL" : 27,
                        "TEXCOORD_0" : 28
                    },
                    "indices" : 29,
                    "material" : 0
                }
            ]
        },
        {
            "name" : "Cube.006",
            "primitives" : [
                {
                    "attributes" : {
                        "POSITION" : 30,
                        "NORMAL" : 31,
                        "TEXCOORD_0" : 32
                    },
                    "indices" : 33,
                    "material" : 0
                }
            ]
        },
        {
            "name" : "Cube.007",
            "primitives" : [
                {
                    "attributes" : {
                        "POSITION" : 34,
                        "NORMAL" : 35,
                        "TEXCOORD_0" : 36
                    },
                    "indices" : 37,
                    "material" : 0
                }
            ]
        },
        {
            "name" : "Cube.008",
            "primitives" : [
                {
                    "attributes" : {
                        "POSITION" : 38,
                        "NORMAL" : 39,
                        "TEXCOORD_0" : 40
                    },
                    "indices" : 37,
                    "material" : 0
                }
            ]
        }
    ],
    "textures" : [
        {
            "sampler" : 0,
            "source" : 0
        }
    ],
    "images" : [
        {
            "bufferView" : 4,
            "mimeType" : "image/png",
            "name" : "lowpoly-palette2"
        }
    ],
    "accessors" : [
        {
            "bufferView" : 0,
            "componentType" : 5126,
            "count" : 2814,
            "max" : [
                400,
                24.352542877197266,
                400
            ],
            "min" : [
                -400,
                -1,
                -400
            ],
            "type" : "VEC3"
        },
        {
            "bufferView" : 1,
            "componentType" : 5126,
            "count" : 2814,
            "type" : "VEC3"
        },
        {
            "bufferView" : 2,
            "componentType" : 5126,
            "count" : 2814,
            "type" : "VEC2"
        },
        {
            "bufferView" : 3,
            "componentType" : 5123,
            "count" : 11328,
            "type" : "SCALAR"
        },
        {
            "bufferView" : 5,
            "componentType" : 5126,
            "count" : 88,
            "max" : [
                10.374218940734863,
                14.33527660369873,
                10.164451599121094
            ],
            "min" : [
                7.97471809387207,
                -2.0838136672973633,
                -10.192451477050781
            ],
            "type" : "VEC3"
        },
        {
            "bufferView" : 6,
            "componentType" : 5126,
            "count" : 88,
            "type" : "VEC3"
        },
        {
            "bufferView" : 7,
            "componentType" : 5126,
            "count" : 88,
            "type" : "VEC2"
        },
        {
            "bufferView" : 8,
            "componentType" : 5123,
            "count" : 132,
            "type" : "SCALAR"
        },
        {
            "bufferView" : 9,
            "componentType" : 5126,
            "count" : 88,
            "max" : [
                -535,
                14.33527660369873,
                10.911539077758789
            ],
            "min" : [
                -537.3995361328125,
                -2.0838136672973633,
                -9.445363998413086
            ],
            "type" : "VEC3"
        },
        {
            "bufferView" : 10,
            "componentType" : 5126,
            "count" : 88,
            "type" : "VEC3"
        },
        {
            "bufferView" : 11,
            "componentType" : 5126,
            "count" : 88,
            "type" : "VEC2"
        },
        {
            "bufferView" : 12,
            "componentType" : 5123,
            "count" : 132,
            "type" : "SCALAR"
        },
        {
            "bufferView" : 13,
            "componentType" : 5126,
            "count" : 4,
            "max" : [
                1,
                0,
                1
            ],
            "min" : [
                -1,
                0,
                -1
            ],
            "type" : "VEC3"
        },
        {
            "bufferView" : 14,
            "componentType" : 5126,
            "count" : 4,
            "type" : "VEC3"
        },
        {
            "bufferView" : 15,
            "componentType" : 5126,
            "count" : 4,
            "type" : "VEC2"
        },
        {
            "bufferView" : 16,
            "componentType" : 5123,
            "count" : 6,
            "type" : "SCALAR"
        },
        {
            "bufferView" : 17,
            "componentType" : 5126,
            "count" : 4,
            "max" : [
                1,
                0,
                1
            ],
            "min" : [
                -1,
                0,
                -1
            ],
            "type" : "VEC3"
        },
        {
            "bufferView" : 18,
            "componentType" : 5126,
            "count" : 4,
            "type" : "VEC3"
        },
        {
            "bufferView" : 19,
            "componentType" : 5126,
            "count" : 4,
            "type" : "VEC2"
        },
        {
            "bufferView" : 20,
            "componentType" : 5126,
            "count" : 220,
            "max" : [
                12.835761070251465,
                20.797590255737305,
                1.7997360229492188
            ],
            "min" : [
                -1,
                -13.148517608642578,
                -20.166223526000977
            ],
            "type" : "VEC3"
        },
        {
            "bufferView" : 21,
            "componentType" : 5126,
            "count" : 220,
            "type" : "VEC3"
        },
        {
            "bufferView" : 22,
            "componentType" : 5126,
            "count" : 220,
            "type" : "VEC2"
        },
        {
            "bufferView" : 23,
            "componentType" : 5123,
            "count" : 354,
            "type" : "SCALAR"
        },
        {
            "bufferView" : 24,
            "componentType" : 5126,
            "count" : 220,
            "max" : [
                12.835761070251465,
                20.797590255737305,
                1.7997360229492188
            ],
            "min" : [
                -1,
                -13.148517608642578,
                -20.166223526000977
            ],
            "type" : "VEC3"
        },
        {
            "bufferView" : 25,
            "componentType" : 5126,
            "count" : 220,
            "type" : "VEC3"
        },
        {
            "bufferView" : 26,
            "componentType" : 5126,
            "count" : 220,
            "type" : "VEC2"
        },
        {
            "bufferView" : 27,
            "componentType" : 5126,
            "count" : 242,
            "max" : [
                1,
                26.994855880737305,
                15.406683921813965
            ],
            "min" : [
                -97.4156265258789,
                -0.6602890491485596,
                -8.360432624816895
            ],
            "type" : "VEC3"
        },
        {
            "bufferView" : 28,
            "componentType" : 5126,
            "count" : 242,
            "type" : "VEC3"
        },
        {
            "bufferView" : 29,
            "componentType" : 5126,
            "count" : 242,
            "type" : "VEC2"
        },
        {
            "bufferView" : 30,
            "componentType" : 5123,
            "count" : 378,
            "type" : "SCALAR"
        },
        {
            "bufferView" : 31,
            "componentType" : 5126,
            "count" : 648,
            "max" : [
                6.0902485847473145,
                4.238765716552734,
                32.255435943603516
            ],
            "min" : [
                -6.0902485847473145,
                -1.5809388160705566,
                -3.746992826461792
            ],
            "type" : "VEC3"
        },
        {
            "bufferView" : 32,
            "componentType" : 5126,
            "count" : 648,
            "type" : "VEC3"
        },
        {
            "bufferView" : 33,
            "componentType" : 5126,
            "count" : 648,
            "type" : "VEC2"
        },
        {
            "bufferView" : 34,
            "componentType" : 5123,
            "count" : 1428,
            "type" : "SCALAR"
        },
        {
            "bufferView" : 35,
            "componentType" : 5126,
            "count" : 24,
            "max" : [
                6.3137526512146,
                2.800546407699585,
                29.79689598083496
            ],
            "min" : [
                -44.75623321533203,
                0.36163875460624695,
                -9.631576538085938
            ],
            "type" : "VEC3"
        },
        {
            "bufferView" : 36,
            "componentType" : 5126,
            "count" : 24,
            "type" : "VEC3"
        },
        {
            "bufferView" : 37,
            "componentType" : 5126,
            "count" : 24,
            "type" : "VEC2"
        },
        {
            "bufferView" : 38,
            "componentType" : 5123,
            "count" : 36,
            "type" : "SCALAR"
        },
        {
            "bufferView" : 39,
            "componentType" : 5126,
            "count" : 24,
            "max" : [
                -0.39508816599845886,
                0.6147670745849609,
                37.49954605102539
            ],
            "min" : [
                -1,
                -1,
                -1
            ],
            "type" : "VEC3"
        },
        {
            "bufferView" : 40,
            "componentType" : 5126,
            "count" : 24,
            "type" : "VEC3"
        },
        {
            "bufferView" : 41,
            "componentType" : 5126,
            "count" : 24,
            "type" : "VEC2"
        }
    ],
    "bufferViews" : [
        {
            "buffer" : 0,
            "byteLength" : 33768,
            "byteOffset" : 0
        },
        {
            "buffer" : 0,
            "byteLength" : 33768,
            "byteOffset" : 33768
        },
        {
            "buffer" : 0,
            "byteLength" : 22512,
            "byteOffset" : 67536
        },
        {
            "buffer" : 0,
            "byteLength" : 22656,
            "byteOffset" : 90048
        },
        {
            "buffer" : 0,
            "byteLength" : 1126,
            "byteOffset" : 112704
        },
        {
            "buffer" : 0,
            "byteLength" : 1056,
            "byteOffset" : 113832
        },
        {
            "buffer" : 0,
            "byteLength" : 1056,
            "byteOffset" : 114888
        },
        {
            "buffer" : 0,
            "byteLength" : 704,
            "byteOffset" : 115944
        },
        {
            "buffer" : 0,
            "byteLength" : 264,
            "byteOffset" : 116648
        },
        {
            "buffer" : 0,
            "byteLength" : 1056,
            "byteOffset" : 116912
        },
        {
            "buffer" : 0,
            "byteLength" : 1056,
            "byteOffset" : 117968
        },
        {
            "buffer" : 0,
            "byteLength" : 704,
            "byteOffset" : 119024
        },
        {
            "buffer" : 0,
            "byteLength" : 264,
            "byteOffset" : 119728
        },
        {
            "buffer" : 0,
            "byteLength" : 48,
            "byteOffset" : 119992
        },
        {
            "buffer" : 0,
            "byteLength" : 48,
            "byteOffset" : 120040
        },
        {
            "buffer" : 0,
            "byteLength" : 32,
            "byteOffset" : 120088
        },
        {
            "buffer" : 0,
            "byteLength" : 12,
            "byteOffset" : 120120
        },
        {
            "buffer" : 0,
            "byteLength" : 48,
            "byteOffset" : 120132
        },
        {
            "buffer" : 0,
            "byteLength" : 48,
            "byteOffset" : 120180
        },
        {
            "buffer" : 0,
            "byteLength" : 32,
            "byteOffset" : 120228
        },
        {
            "buffer" : 0,
            "byteLength" : 2640,
            "byteOffset" : 120260
        },
        {
            "buffer" : 0,
            "byteLength" : 2640,
            "byteOffset" : 122900
        },
        {
            "buffer" : 0,
            "byteLength" : 1760,
            "byteOffset" : 125540
        },
        {
            "buffer" : 0,
            "byteLength" : 708,
            "byteOffset" : 127300
        },
        {
            "buffer" : 0,
            "byteLength" : 2640,
            "byteOffset" : 128008
        },
        {
            "buffer" : 0,
            "byteLength" : 2640,
            "byteOffset" : 130648
        },
        {
            "buffer" : 0,
            "byteLength" : 1760,
            "byteOffset" : 133288
        },
        {
            "buffer" : 0,
            "byteLength" : 2904,
            "byteOffset" : 135048
        },
        {
            "buffer" : 0,
            "byteLength" : 2904,
            "byteOffset" : 137952
        },
        {
            "buffer" : 0,
            "byteLength" : 1936,
            "byteOffset" : 140856
        },
        {
            "buffer" : 0,
            "byteLength" : 756,
            "byteOffset" : 142792
        },
        {
            "buffer" : 0,
            "byteLength" : 7776,
            "byteOffset" : 143548
        },
        {
            "buffer" : 0,
            "byteLength" : 7776,
            "byteOffset" : 151324
        },
        {
            "buffer" : 0,
            "byteLength" : 5184,
            "byteOffset" : 159100
        },
        {
            "buffer" : 0,
            "byteLength" : 2856,
            "byteOffset" : 164284
        },
        {
            "buffer" : 0,
            "byteLength" : 288,
            "byteOffset" : 167140
        },
        {
            "buffer" : 0,
            "byteLength" : 288,
            "byteOffset" : 167428
        },
        {
            "buffer" : 0,
            "byteLength" : 192,
            "byteOffset" : 167716
        },
        {
            "buffer" : 0,
            "byteLength" : 72,
            "byteOffset" : 167908
        },
        {
            "buffer" : 0,
            "byteLength" : 288,
            "byteOffset" : 167980
        },
        {
            "buffer" : 0,
            "byteLength" : 288,
            "byteOffset" : 168268
        },
        {
            "buffer" : 0,
            "byteLength" : 192,
            "byteOffset" : 168556
        }
    ],
    "samplers" : [
        {
            "magFilter" : 9728,
            "minFilter" : 9984
        }
    ],
    "buffers" : [
        {
            "byteLength" : 168748,
            "uri" : "data:application/octet-stream;base64,"
        }
    ]
}
