{
    "asset" : {
        "generator" : "Khronos glTF Blender I/O v1.6.16",
        "version" : "2.0"
    },
    "scene" : 0,
    "scenes" : [
        {
            "name" : "Scene",
            "nodes" : [
                0,
                1,
                2,
                3,
                4,
                5,
                6,
                7,
                8
            ]
        }
    ],
    "nodes" : [
        {
            "mesh" : 0,
            "name" : "ground"
        },
        {
            "name" : "Light",
            "rotation" : [
                0.16907575726509094,
                0.7558803558349609,
                -0.27217137813568115,
                0.570947527885437
            ],
            "translation" : [
                4.076245307922363,
                5.903861999511719,
                -1.0054539442062378
            ]
        },
        {
            "name" : "Camera",
            "rotation" : [
                0.483536034822464,
                0.33687159419059753,
                -0.20870360732078552,
                0.7804827094078064
            ],
            "translation" : [
                7.358891487121582,
                4.958309173583984,
                6.925790786743164
            ]
        },
        {
            "mesh" : 1,
            "name" : "goal",
            "translation" : [
                242.40687561035156,
                2.64697265625,
                -3.0760269165039062
            ]
        },
        {
            "mesh" : 2,
            "name" : "checkpoint",
            "translation" : [
                297.91851806640625,
                2.64697265625,
                -9.530868530273438
            ]
        },
        {
            "mesh" : 3,
            "name" : "checkpoint-spawn",
            "rotation" : [
                0,
                0.7181612849235535,
                0,
                0.6958767175674438
            ],
            "translation" : [
                -254.9687042236328,
                0.514438271522522,
                -6.8714141845703125
            ]
        },
        {
            "mesh" : 4,
            "name" : "goal-spawn",
            "rotation" : [
                0,
                -0.7466549873352051,
                0,
                0.6652114987373352
            ],
            "translation" : [
                268.9493408203125,
                0.514438271522522,
                -1.4923782348632812
            ]
        },
        {
            "mesh" : 5,
            "name" : "hose",
            "translation" : [
                -228.09521484375,
                13.702631950378418,
                -229.92611694335938
            ]
        },
        {
            "mesh" : 6,
            "name" : "house",
            "translation" : [
                205.05130004882812,
                13.702631950378418,
                -47.74430847167969
            ]
        }
    ],
    "materials" : [
        {
            "doubleSided" : true,
            "name" : "Material",
            "pbrMetallicRoughness" : {
                "baseColorTexture" : {
                    "index" : 0
                },
                "metallicFactor" : 0
            }
        }
    ],
    "meshes" : [
        {
            "name" : "Cube",
            "primitives" : [
                {
                    "attributes" : {
                        "POSITION" : 0,
                        "NORMAL" : 1,
                        "TEXCOORD_0" : 2
                    },
                    "indices" : 3,
                    "material" : 0
                }
            ]
        },
        {
            "name" : "Cube.001",
            "primitives" : [
                {
                    "attributes" : {
                        "POSITION" : 4,
                        "NORMAL" : 5,
                        "TEXCOORD_0" : 6
                    },
                    "indices" : 7,
                    "material" : 0
                }
            ]
        },
        {
            "name" : "Cube.002",
            "primitives" : [
                {
                    "attributes" : {
                        "POSITION" : 8,
                        "NORMAL" : 9,
                        "TEXCOORD_0" : 10
                    },
                    "indices" : 11,
                    "material" : 0
                }
            ]
        },
        {
            "name" : "Plane",
            "primitives" : [
                {
                    "attributes" : {
                        "POSITION" : 12,
                        "NORMAL" : 13,
                        "TEXCOORD_0" : 14
                    },
                    "indices" : 15
                }
            ]
        },
        {
            "name" : "Plane.001",
            "primitives" : [
                {
                    "attributes" : {
                        "POSITION" : 16,
                        "NORMAL" : 17,
                        "TEXCOORD_0" : 18
                    },
                    "indices" : 15
                }
            ]
        },
        {
            "name" : "Cube.003",
            "primitives" : [
                {
                    "attributes" : {
                        "POSITION" : 19,
                        "NORMAL" : 20,
                        "TEXCOORD_0" : 21
                    },
                    "indices" : 22,
                    "material" : 0
                }
            ]
        },
        {
            "name" : "Cube.004",
            "primitives" : [
                {
                    "attributes" : {
                        "POSITION" : 23,
                        "NORMAL" : 24,
                        "TEXCOORD_0" : 25
                    },
                    "indices" : 22,
                    "material" : 0
                }
            ]
        }
    ],
    "textures" : [
        {
            "sampler" : 0,
            "source" : 0
        }
    ],
    "images" : [
        {
            "bufferView" : 4,
            "mimeType" : "image/png",
            "name" : "lowpoly-palette2"
        }
    ],
    "accessors" : [
        {
            "bufferView" : 0,
            "componentType" : 5126,
            "count" : 2802,
            "max" : [
                400,
                24.352542877197266,
                400
            ],
            "min" : [
                -400,
                -1,
                -400
            ],
            "type" : "VEC3"
        },
        {
            "bufferView" : 1,
            "componentType" : 5126,
            "count" : 2802,
            "type" : "VEC3"
        },
        {
            "bufferView" : 2,
            "componentType" : 5126,
            "count" : 2802,
            "type" : "VEC2"
        },
        {
            "bufferView" : 3,
            "componentType" : 5123,
            "count" : 11328,
            "type" : "SCALAR"
        },
        {
            "bufferView" : 5,
            "componentType" : 5126,
            "count" : 88,
            "max" : [
                10.374218940734863,
                14.33527660369873,
                10.164451599121094
            ],
            "min" : [
                7.97471809387207,
                -2.0838136672973633,
                -10.192451477050781
            ],
            "type" : "VEC3"
        },
        {
            "bufferView" : 6,
            "componentType" : 5126,
            "count" : 88,
            "type" : "VEC3"
        },
        {
            "bufferView" : 7,
            "componentType" : 5126,
            "count" : 88,
            "type" : "VEC2"
        },
        {
            "bufferView" : 8,
            "componentType" : 5123,
            "count" : 132,
            "type" : "SCALAR"
        },
        {
            "bufferView" : 9,
            "componentType" : 5126,
            "count" : 88,
            "max" : [
                -535,
                14.33527660369873,
                10.911539077758789
            ],
            "min" : [
                -537.3995361328125,
                -2.0838136672973633,
                -9.445363998413086
            ],
            "type" : "VEC3"
        },
        {
            "bufferView" : 10,
            "componentType" : 5126,
            "count" : 88,
            "type" : "VEC3"
        },
        {
            "bufferView" : 11,
            "componentType" : 5126,
            "count" : 88,
            "type" : "VEC2"
        },
        {
            "bufferView" : 12,
            "componentType" : 5123,
            "count" : 132,
            "type" : "SCALAR"
        },
        {
            "bufferView" : 13,
            "componentType" : 5126,
            "count" : 4,
            "max" : [
                1,
                0,
                1
            ],
            "min" : [
                -1,
                0,
                -1
            ],
            "type" : "VEC3"
        },
        {
            "bufferView" : 14,
            "componentType" : 5126,
            "count" : 4,
            "type" : "VEC3"
        },
        {
            "bufferView" : 15,
            "componentType" : 5126,
            "count" : 4,
            "type" : "VEC2"
        },
        {
            "bufferView" : 16,
            "componentType" : 5123,
            "count" : 6,
            "type" : "SCALAR"
        },
        {
            "bufferView" : 17,
            "componentType" : 5126,
            "count" : 4,
            "max" : [
                1,
                0,
                1
            ],
            "min" : [
                -1,
                0,
                -1
            ],
            "type" : "VEC3"
        },
        {
            "bufferView" : 18,
            "componentType" : 5126,
            "count" : 4,
            "type" : "VEC3"
        },
        {
            "bufferView" : 19,
            "componentType" : 5126,
            "count" : 4,
            "type" : "VEC2"
        },
        {
            "bufferView" : 20,
            "componentType" : 5126,
            "count" : 220,
            "max" : [
                12.835761070251465,
                20.797590255737305,
                1.7997360229492188
            ],
            "min" : [
                -1,
                -13.148517608642578,
                -20.166223526000977
            ],
            "type" : "VEC3"
        },
        {
            "bufferView" : 21,
            "componentType" : 5126,
            "count" : 220,
            "type" : "VEC3"
        },
        {
            "bufferView" : 22,
            "componentType" : 5126,
            "count" : 220,
            "type" : "VEC2"
        },
        {
            "bufferView" : 23,
            "componentType" : 5123,
            "count" : 354,
            "type" : "SCALAR"
        },
        {
            "bufferView" : 24,
            "componentType" : 5126,
            "count" : 220,
            "max" : [
                12.835761070251465,
                20.797590255737305,
                1.7997360229492188
            ],
            "min" : [
                -1,
                -13.148517608642578,
                -20.166223526000977
            ],
            "type" : "VEC3"
        },
        {
            "bufferView" : 25,
            "componentType" : 5126,
            "count" : 220,
            "type" : "VEC3"
        },
        {
            "bufferView" : 26,
            "componentType" : 5126,
            "count" : 220,
            "type" : "VEC2"
        }
    ],
    "bufferViews" : [
        {
            "buffer" : 0,
            "byteLength" : 33624,
            "byteOffset" : 0
        },
        {
            "buffer" : 0,
            "byteLength" : 33624,
            "byteOffset" : 33624
        },
        {
            "buffer" : 0,
            "byteLength" : 22416,
            "byteOffset" : 67248
        },
        {
            "buffer" : 0,
            "byteLength" : 22656,
            "byteOffset" : 89664
        },
        {
            "buffer" : 0,
            "byteLength" : 1126,
            "byteOffset" : 112320
        },
        {
            "buffer" : 0,
            "byteLength" : 1056,
            "byteOffset" : 113448
        },
        {
            "buffer" : 0,
            "byteLength" : 1056,
            "byteOffset" : 114504
        },
        {
            "buffer" : 0,
            "byteLength" : 704,
            "byteOffset" : 115560
        },
        {
            "buffer" : 0,
            "byteLength" : 264,
            "byteOffset" : 116264
        },
        {
            "buffer" : 0,
            "byteLength" : 1056,
            "byteOffset" : 116528
        },
        {
            "buffer" : 0,
            "byteLength" : 1056,
            "byteOffset" : 117584
        },
        {
            "buffer" : 0,
            "byteLength" : 704,
            "byteOffset" : 118640
        },
        {
            "buffer" : 0,
            "byteLength" : 264,
            "byteOffset" : 119344
        },
        {
            "buffer" : 0,
            "byteLength" : 48,
            "byteOffset" : 119608
        },
        {
            "buffer" : 0,
            "byteLength" : 48,
            "byteOffset" : 119656
        },
        {
            "buffer" : 0,
            "byteLength" : 32,
            "byteOffset" : 119704
        },
        {
            "buffer" : 0,
            "byteLength" : 12,
            "byteOffset" : 119736
        },
        {
            "buffer" : 0,
            "byteLength" : 48,
            "byteOffset" : 119748
        },
        {
            "buffer" : 0,
            "byteLength" : 48,
            "byteOffset" : 119796
        },
        {
            "buffer" : 0,
            "byteLength" : 32,
            "byteOffset" : 119844
        },
        {
            "buffer" : 0,
            "byteLength" : 2640,
            "byteOffset" : 119876
        },
        {
            "buffer" : 0,
            "byteLength" : 2640,
            "byteOffset" : 122516
        },
        {
            "buffer" : 0,
            "byteLength" : 1760,
            "byteOffset" : 125156
        },
        {
            "buffer" : 0,
            "byteLength" : 708,
            "byteOffset" : 126916
        },
        {
            "buffer" : 0,
            "byteLength" : 2640,
            "byteOffset" : 127624
        },
        {
            "buffer" : 0,
            "byteLength" : 2640,
            "byteOffset" : 130264
        },
        {
            "buffer" : 0,
            "byteLength" : 1760,
            "byteOffset" : 132904
        }
    ],
    "samplers" : [
        {
            "magFilter" : 9728,
            "minFilter" : 9984
        }
    ],
    "buffers" : [
        {
            "byteLength" : 134664,
            "uri" : "data:application/octet-stream;base64,"
        }
    ]
}
