<?xml version="1.0" standalone="no"?>
<!DOCTYPE svg PUBLIC "-//W3C//DTD SVG 20010904//EN"
 "http://www.w3.org/TR/2001/REC-SVG-20010904/DTD/svg10.dtd">
<svg version="1.0" xmlns="http://www.w3.org/2000/svg"
 width="1640.000000pt" height="664.000000pt" viewBox="0 0 1640.000000 664.000000"
 preserveAspectRatio="xMidYMid meet">

<g transform="translate(0.000000,664.000000) scale(0.100000,-0.100000)"
fill="#000000" stroke="none">
<path d="M1625 4659 c-88 -4 -243 -12 -344 -18 -201 -11 -200 -11 -439 -122
-35 -16 -65 -29 -68 -29 -3 0 -26 -9 -52 -21 -26 -12 -60 -27 -77 -34 -28 -12
-109 -48 -180 -80 -16 -7 -42 -18 -56 -23 -28 -11 -52 -70 -105 -262 -50 -183
-84 -298 -108 -375 -25 -78 -26 -86 -26 -370 0 -276 1 -295 26 -400 23 -99 38
-169 104 -469 19 -90 26 -101 85 -133 17 -9 62 -36 100 -61 79 -51 163 -104
215 -137 29 -18 113 -71 180 -115 8 -5 32 -21 53 -35 21 -14 40 -25 42 -25 2
0 24 -13 48 -30 l45 -30 521 0 c409 0 522 3 525 12 9 31 48 253 61 348 8 58
19 128 25 155 26 126 52 317 44 324 -22 20 -185 101 -204 101 -25 0 -24 3 -44
-140 -28 -197 -75 -511 -88 -595 l-13 -80 -270 -6 c-149 -3 -280 -3 -292 0
-12 4 -54 36 -95 73 -40 36 -89 79 -109 95 -19 15 -55 47 -80 69 -24 23 -69
62 -100 87 -31 25 -61 58 -67 74 -6 15 -22 84 -36 153 -41 199 -83 392 -95
435 -15 54 -15 603 0 642 6 15 24 75 39 133 16 58 43 155 60 215 17 61 42 150
54 198 13 48 25 89 27 91 2 2 92 54 199 117 220 128 166 113 495 138 108 8
143 8 156 -2 9 -6 76 -81 149 -164 73 -84 139 -153 149 -153 19 0 121 94 121
111 0 11 -41 65 -171 224 -109 132 -99 125 -176 123 -37 -1 -140 -5 -228 -9z"/>
<path d="M3160 4617 c-23 -10 -87 -38 -165 -72 -16 -7 -79 -34 -140 -60 -121
-51 -115 -48 -236 -103 -47 -22 -97 -43 -110 -47 -62 -20 -72 -39 -119 -220
-12 -44 -25 -89 -29 -100 -8 -19 -21 -62 -92 -310 -28 -99 -28 -102 -29 -387
0 -313 -3 -288 80 -653 11 -49 30 -133 41 -185 21 -92 45 -150 61 -150 5 0 62
-35 128 -78 114 -73 158 -101 300 -190 131 -81 245 -155 250 -162 3 -3 14 -10
25 -14 19 -7 494 -28 674 -30 l94 -1 139 255 c77 140 165 302 196 360 108 203
98 164 111 460 9 188 9 323 2 465 -5 110 -15 332 -22 493 l-12 294 -96 77
c-53 43 -181 143 -284 224 l-188 147 -277 -1 c-183 0 -285 -4 -302 -12z m480
-177 c25 -33 56 -75 70 -94 14 -18 61 -79 104 -136 l79 -103 -7 -226 c-4 -124
-12 -282 -17 -351 -6 -69 -11 -278 -11 -465 1 -192 -4 -357 -9 -380 -12 -49
-62 -214 -94 -310 -13 -38 -42 -129 -64 -200 l-41 -131 -42 -11 c-24 -7 -85
-17 -136 -24 l-93 -12 -62 43 c-34 24 -159 108 -277 188 -118 79 -218 147
-222 151 -4 4 -14 38 -22 76 -21 104 -81 376 -105 485 -21 88 -22 116 -19 390
3 288 4 297 31 380 14 47 45 153 68 235 76 279 91 324 114 331 11 3 40 15 65
27 77 35 124 55 160 70 19 8 56 24 83 36 26 12 68 30 95 41 26 12 61 27 77 35
19 9 66 14 130 14 l100 1 45 -60z"/>
<path d="M4795 4610 c-38 -10 -108 -26 -155 -37 l-85 -19 -6 -39 c-4 -22 -13
-231 -19 -465 -6 -234 -15 -542 -20 -685 -5 -143 -12 -409 -16 -590 -6 -290
-5 -337 9 -380 9 -28 25 -98 36 -156 11 -58 24 -117 30 -131 5 -14 17 -64 27
-111 9 -48 22 -91 28 -96 7 -6 36 -7 76 -1 80 12 442 39 725 54 116 7 217 16
225 21 9 6 190 12 425 15 l410 5 -1 45 c-1 25 -14 92 -29 150 -26 102 -60 247
-111 480 -31 138 -38 154 -67 146 -12 -3 -56 -12 -97 -21 -41 -9 -91 -20 -110
-25 -19 -5 -45 -12 -57 -15 -13 -4 -23 -11 -23 -16 0 -6 29 -63 65 -128 36
-65 65 -122 65 -125 0 -4 25 -52 55 -107 30 -55 55 -103 55 -108 0 -10 -28
-16 -155 -35 -49 -7 -103 -16 -120 -20 -45 -9 -339 -48 -505 -66 -52 -5 -131
-15 -175 -20 -203 -26 -230 -28 -238 -21 -4 4 -15 73 -23 152 -12 114 -16 306
-18 929 -1 478 -7 851 -14 955 -7 94 -15 241 -18 328 l-6 157 -47 -1 c-25 -1
-77 -10 -116 -19z"/>
<path d="M7118 4625 c-3 -3 -50 -15 -104 -25 -55 -11 -130 -27 -168 -34 -38
-8 -72 -20 -76 -26 -9 -15 -16 -178 -35 -825 -8 -286 -20 -688 -26 -893 -8
-271 -8 -380 0 -400 10 -26 52 -208 91 -401 30 -146 19 -133 113 -128 170 10
405 27 497 37 52 6 181 15 285 20 105 6 217 16 250 22 33 6 216 13 408 15 191
3 347 8 347 12 0 14 -41 200 -64 294 -61 248 -96 395 -102 432 -9 54 -31 88
-52 80 -9 -4 -48 -13 -87 -20 -193 -38 -203 -44 -171 -99 9 -16 56 -104 103
-195 47 -91 92 -175 100 -186 18 -27 16 -53 -4 -59 -10 -3 -45 -8 -78 -11 -33
-4 -78 -11 -100 -15 -22 -5 -80 -14 -130 -20 -49 -5 -110 -15 -135 -20 -25 -5
-112 -17 -195 -25 -170 -18 -274 -30 -425 -50 -82 -11 -107 -11 -116 -2 -6 7
-19 100 -28 207 -14 165 -15 282 -10 750 4 363 2 616 -5 730 -6 96 -16 310
-22 475 -12 351 -13 365 -38 365 -10 0 -20 -2 -23 -5z"/>
<path d="M8929 4603 c-6 -16 -17 -77 -25 -138 -8 -60 -20 -149 -27 -197 -8
-49 -12 -90 -9 -93 6 -5 53 5 67 15 6 4 37 17 70 30 33 13 74 29 90 36 78 33
163 64 177 64 11 0 17 -12 21 -37 2 -21 10 -74 16 -118 58 -408 63 -528 48
-1135 -7 -294 -34 -789 -43 -799 -5 -6 -75 10 -174 38 -126 37 -210 55 -217
47 -5 -4 -8 -98 -8 -209 l0 -202 120 -7 c66 -4 152 -3 190 2 137 18 512 42
621 41 81 -2 113 1 121 11 6 7 20 66 32 132 12 65 28 142 36 170 22 84 27 84
-232 24 -29 -6 -55 -9 -59 -6 -3 4 -1 108 5 232 6 125 11 457 11 739 0 543 0
531 -54 832 -24 136 -40 264 -33 271 5 6 52 -11 132 -46 112 -50 169 -71 180
-66 8 3 21 29 30 58 31 99 84 303 80 306 -2 3 -138 5 -302 7 -164 1 -329 8
-368 13 -38 6 -163 11 -278 12 l-207 0 -11 -27z"/>
<path d="M11285 4620 c-16 -5 -68 -16 -115 -25 -47 -9 -132 -25 -190 -36 -58
-11 -143 -26 -189 -34 -46 -8 -91 -21 -99 -29 -13 -13 -14 -45 -3 -258 6 -134
11 -317 11 -406 l0 -164 232 -234 c128 -129 235 -238 238 -242 3 -4 46 -20 95
-36 50 -16 149 -49 220 -73 72 -25 147 -49 167 -54 20 -5 52 -15 70 -23 18 -8
86 -31 150 -51 64 -21 119 -43 121 -49 5 -14 -29 -334 -42 -396 -6 -25 -13
-72 -16 -105 -13 -132 -12 -131 -68 -166 -109 -69 -313 -204 -325 -216 -7 -7
-19 -13 -26 -13 -7 0 -21 -9 -31 -20 -23 -26 -77 -26 -176 -1 -41 10 -96 22
-124 26 -69 9 -151 33 -163 48 -5 7 -13 23 -17 37 -4 14 -20 53 -36 88 -16 35
-29 66 -29 69 0 5 -48 115 -101 229 -15 33 -31 73 -35 88 -3 15 -13 30 -21 33
-13 5 -187 -35 -268 -62 -35 -12 -40 -17 -39 -42 1 -16 11 -49 22 -74 11 -24
45 -105 75 -179 97 -238 109 -265 119 -277 5 -6 35 -14 66 -18 31 -3 74 -10
94 -16 20 -5 78 -16 130 -25 112 -18 301 -51 346 -60 30 -6 130 24 157 48 5 4
16 8 25 8 9 0 33 9 55 20 22 11 44 20 50 20 6 0 28 9 50 20 22 11 44 20 50 20
5 0 21 6 35 13 14 7 61 26 105 41 44 16 85 32 90 36 6 4 27 13 48 20 22 7 51
18 65 26 15 8 32 14 38 14 19 0 103 40 110 52 4 6 13 36 20 67 7 31 29 124 49
206 60 241 85 349 85 365 0 8 -37 60 -81 115 -45 55 -108 134 -141 175 -63 79
-81 91 -174 111 -33 7 -63 15 -69 19 -30 21 -199 41 -395 48 l-215 7 -33 90
c-18 50 -44 122 -56 160 -13 39 -31 88 -41 110 -16 35 -17 61 -11 213 4 96 11
219 17 275 5 56 14 155 19 220 5 66 11 121 14 124 3 3 38 0 78 -6 40 -7 138
-19 218 -26 130 -13 216 -27 225 -37 1 -1 10 -50 19 -108 9 -58 24 -140 33
-184 l17 -79 240 8 c133 3 245 10 249 14 4 4 -2 61 -14 127 -51 282 -48 274
-74 274 -13 0 -78 24 -180 65 -141 58 -174 64 -401 74 -252 12 -278 12 -319 1z"/>
<path d="M14965 4609 c-27 -11 -65 -26 -82 -34 -18 -8 -50 -22 -70 -31 -21 -9
-56 -25 -78 -34 -22 -10 -125 -55 -230 -100 -104 -46 -204 -89 -221 -98 -34
-16 -30 -7 -124 -322 -15 -52 -40 -133 -54 -180 -64 -211 -66 -224 -66 -499 0
-280 -2 -263 89 -671 69 -305 59 -280 127 -325 33 -22 85 -55 115 -74 30 -19
77 -49 104 -66 28 -18 78 -50 113 -71 34 -21 127 -81 205 -131 117 -76 149
-93 182 -94 88 -1 526 -19 621 -25 118 -8 98 -22 179 131 26 50 64 119 83 155
20 36 49 90 65 120 16 30 44 82 62 115 60 109 108 200 128 239 39 79 51 508
28 1006 -7 162 -16 358 -20 434 l-6 139 -170 134 c-93 74 -219 172 -278 219
l-109 84 -271 -1 c-247 0 -277 -2 -322 -20z m432 -126 c25 -27 193 -246 262
-340 l34 -47 -7 -186 c-3 -102 -11 -266 -16 -365 -6 -99 -11 -326 -11 -505 0
-376 16 -289 -140 -778 -17 -53 -39 -124 -49 -157 -15 -54 -20 -60 -51 -68
-38 -10 -195 -35 -221 -36 -14 -1 -84 44 -253 159 -12 8 -87 59 -166 112 -80
53 -150 102 -156 110 -6 7 -14 29 -17 48 -4 19 -18 82 -31 140 -13 58 -33 150
-45 205 -11 55 -27 132 -36 170 -25 103 -24 633 1 720 9 33 32 114 50 180 34
124 85 308 105 382 14 47 12 46 205 128 61 26 138 60 173 76 35 16 66 29 70
29 4 0 21 8 37 17 19 11 64 19 120 23 50 4 96 7 103 8 7 1 25 -10 39 -25z"/>
<path d="M12793 4581 c-24 -4 -45 -10 -48 -13 -6 -6 -24 -103 -50 -268 -28
-179 -27 -170 -6 -170 17 0 269 96 360 137 31 14 36 14 46 0 6 -8 19 -93 29
-188 9 -96 22 -194 27 -219 26 -130 30 -274 19 -799 -5 -295 -14 -563 -20
-596 -5 -33 -12 -108 -16 -167 l-6 -108 -26 0 c-26 0 -186 42 -227 60 -39 17
-127 32 -135 24 -4 -5 -10 -101 -12 -214 l-3 -205 200 1 c110 0 252 6 315 13
63 7 214 16 335 19 l219 7 13 60 c7 33 24 118 37 188 20 107 21 129 10 134 -8
3 -49 -2 -92 -12 -163 -35 -183 -38 -192 -29 -5 5 -5 45 1 99 5 50 12 376 16
725 l5 635 -25 130 c-14 72 -30 166 -37 210 -6 44 -18 115 -27 157 -8 42 -13
84 -10 92 7 18 33 11 135 -35 35 -16 65 -29 68 -29 2 0 24 -9 49 -21 67 -32
77 -26 101 66 12 44 34 120 48 169 42 142 59 130 -171 124 -133 -4 -259 -1
-383 9 -217 18 -487 24 -547 14z"/>
</g>
</svg>
