{
    "asset" : {
        "generator" : "Khronos glTF Blender I/O v1.6.16",
        "version" : "2.0"
    },
    "scene" : 0,
    "scenes" : [
        {
            "name" : "Scene",
            "nodes" : [
                0,
                1,
                2,
                3,
                4
            ]
        }
    ],
    "nodes" : [
        {
            "mesh" : 0,
            "name" : "back-left-tire",
            "rotation" : [
                0,
                0,
                0,
                -1
            ],
            "scale" : [
                0.699999988079071,
                0.699999988079071,
                0.699999988079071
            ],
            "translation" : [
                0.042761221528053284,
                -0.34162843227386475,
                -0.24167925119400024
            ]
        },
        {
            "mesh" : 1,
            "name" : "front-right-tire",
            "rotation" : [
                0,
                0,
                0,
                -1
            ],
            "scale" : [
                0.699999988079071,
                0.699999988079071,
                0.699999988079071
            ],
            "translation" : [
                -0.17651745676994324,
                -0.34162843227386475,
                -0.45080050826072693
            ]
        },
        {
            "mesh" : 2,
            "name" : "front-left-tire",
            "rotation" : [
                0,
                0,
                0,
                -1
            ],
            "scale" : [
                0.699999988079071,
                0.699999988079071,
                0.699999988079071
            ],
            "translation" : [
                0.1653081178665161,
                -0.34162843227386475,
                -0.45080074667930603
            ]
        },
        {
            "mesh" : 3,
            "name" : "back-right-tire",
            "rotation" : [
                0,
                0,
                0,
                -1
            ],
            "scale" : [
                0.699999988079071,
                0.699999988079071,
                0.699999988079071
            ],
            "translation" : [
                -0.06697513163089752,
                -0.34162843227386475,
                -0.24167877435684204
            ]
        },
        {
            "mesh" : 4,
            "name" : "chassis"
        }
    ],
    "materials" : [
        {
            "doubleSided" : true,
            "name" : "Material",
            "pbrMetallicRoughness" : {
                "baseColorTexture" : {
                    "index" : 0
                },
                "metallicFactor" : 0
            }
        }
    ],
    "meshes" : [
        {
            "name" : "Cube.003",
            "primitives" : [
                {
                    "attributes" : {
                        "POSITION" : 0,
                        "NORMAL" : 1,
                        "TEXCOORD_0" : 2
                    },
                    "indices" : 3,
                    "material" : 0
                }
            ]
        },
        {
            "name" : "Cube.004",
            "primitives" : [
                {
                    "attributes" : {
                        "POSITION" : 4,
                        "NORMAL" : 5,
                        "TEXCOORD_0" : 6
                    },
                    "indices" : 7,
                    "material" : 0
                }
            ]
        },
        {
            "name" : "Cube.005",
            "primitives" : [
                {
                    "attributes" : {
                        "POSITION" : 8,
                        "NORMAL" : 9,
                        "TEXCOORD_0" : 10
                    },
                    "indices" : 11,
                    "material" : 0
                }
            ]
        },
        {
            "name" : "Cube.006",
            "primitives" : [
                {
                    "attributes" : {
                        "POSITION" : 12,
                        "NORMAL" : 13,
                        "TEXCOORD_0" : 14
                    },
                    "indices" : 15,
                    "material" : 0
                }
            ]
        },
        {
            "name" : "Cube",
            "primitives" : [
                {
                    "attributes" : {
                        "POSITION" : 16,
                        "NORMAL" : 17,
                        "TEXCOORD_0" : 18
                    },
                    "indices" : 19,
                    "material" : 0
                }
            ]
        }
    ],
    "textures" : [
        {
            "sampler" : 0,
            "source" : 0
        }
    ],
    "images" : [
        {
            "bufferView" : 4,
            "mimeType" : "image/png",
            "name" : "lowpoly-palette2"
        }
    ],
    "accessors" : [
        {
            "bufferView" : 0,
            "componentType" : 5126,
            "count" : 460,
            "max" : [
                2.2494242191314697,
                0.7899249196052551,
                -2.494724988937378
            ],
            "min" : [
                1.2185364961624146,
                -0.6107969284057617,
                -3.967531442642212
            ],
            "type" : "VEC3"
        },
        {
            "bufferView" : 1,
            "componentType" : 5126,
            "count" : 460,
            "type" : "VEC3"
        },
        {
            "bufferView" : 2,
            "componentType" : 5126,
            "count" : 460,
            "type" : "VEC2"
        },
        {
            "bufferView" : 3,
            "componentType" : 5123,
            "count" : 708,
            "type" : "SCALAR"
        },
        {
            "bufferView" : 5,
            "componentType" : 5126,
            "count" : 446,
            "max" : [
                -1.2185364961624146,
                0.7899249196052551,
                5.519656181335449
            ],
            "min" : [
                -2.2494242191314697,
                -0.6107969284057617,
                4.046849727630615
            ],
            "type" : "VEC3"
        },
        {
            "bufferView" : 6,
            "componentType" : 5126,
            "count" : 446,
            "type" : "VEC3"
        },
        {
            "bufferView" : 7,
            "componentType" : 5126,
            "count" : 446,
            "type" : "VEC2"
        },
        {
            "bufferView" : 8,
            "componentType" : 5123,
            "count" : 708,
            "type" : "SCALAR"
        },
        {
            "bufferView" : 9,
            "componentType" : 5126,
            "count" : 458,
            "max" : [
                2.249425172805786,
                0.7899249196052551,
                5.519656181335449
            ],
            "min" : [
                1.2185369729995728,
                -0.6107969284057617,
                4.046849727630615
            ],
            "type" : "VEC3"
        },
        {
            "bufferView" : 10,
            "componentType" : 5126,
            "count" : 458,
            "type" : "VEC3"
        },
        {
            "bufferView" : 11,
            "componentType" : 5126,
            "count" : 458,
            "type" : "VEC2"
        },
        {
            "bufferView" : 12,
            "componentType" : 5123,
            "count" : 708,
            "type" : "SCALAR"
        },
        {
            "bufferView" : 13,
            "componentType" : 5126,
            "count" : 442,
            "max" : [
                -1.2185369729995728,
                0.7899249196052551,
                -2.494724988937378
            ],
            "min" : [
                -2.249425172805786,
                -0.6107969284057617,
                -3.967531442642212
            ],
            "type" : "VEC3"
        },
        {
            "bufferView" : 14,
            "componentType" : 5126,
            "count" : 442,
            "type" : "VEC3"
        },
        {
            "bufferView" : 15,
            "componentType" : 5126,
            "count" : 442,
            "type" : "VEC2"
        },
        {
            "bufferView" : 16,
            "componentType" : 5123,
            "count" : 708,
            "type" : "SCALAR"
        },
        {
            "bufferView" : 17,
            "componentType" : 5126,
            "count" : 1356,
            "max" : [
                1.5920257568359375,
                0.7232563495635986,
                3.9416422843933105
            ],
            "min" : [
                -1.6000032424926758,
                -0.4404994249343872,
                -3.4183387756347656
            ],
            "type" : "VEC3"
        },
        {
            "bufferView" : 18,
            "componentType" : 5126,
            "count" : 1356,
            "type" : "VEC3"
        },
        {
            "bufferView" : 19,
            "componentType" : 5126,
            "count" : 1356,
            "type" : "VEC2"
        },
        {
            "bufferView" : 20,
            "componentType" : 5123,
            "count" : 2214,
            "type" : "SCALAR"
        }
    ],
    "bufferViews" : [
        {
            "buffer" : 0,
            "byteLength" : 5520,
            "byteOffset" : 0
        },
        {
            "buffer" : 0,
            "byteLength" : 5520,
            "byteOffset" : 5520
        },
        {
            "buffer" : 0,
            "byteLength" : 3680,
            "byteOffset" : 11040
        },
        {
            "buffer" : 0,
            "byteLength" : 1416,
            "byteOffset" : 14720
        },
        {
            "buffer" : 0,
            "byteLength" : 1126,
            "byteOffset" : 16136
        },
        {
            "buffer" : 0,
            "byteLength" : 5352,
            "byteOffset" : 17264
        },
        {
            "buffer" : 0,
            "byteLength" : 5352,
            "byteOffset" : 22616
        },
        {
            "buffer" : 0,
            "byteLength" : 3568,
            "byteOffset" : 27968
        },
        {
            "buffer" : 0,
            "byteLength" : 1416,
            "byteOffset" : 31536
        },
        {
            "buffer" : 0,
            "byteLength" : 5496,
            "byteOffset" : 32952
        },
        {
            "buffer" : 0,
            "byteLength" : 5496,
            "byteOffset" : 38448
        },
        {
            "buffer" : 0,
            "byteLength" : 3664,
            "byteOffset" : 43944
        },
        {
            "buffer" : 0,
            "byteLength" : 1416,
            "byteOffset" : 47608
        },
        {
            "buffer" : 0,
            "byteLength" : 5304,
            "byteOffset" : 49024
        },
        {
            "buffer" : 0,
            "byteLength" : 5304,
            "byteOffset" : 54328
        },
        {
            "buffer" : 0,
            "byteLength" : 3536,
            "byteOffset" : 59632
        },
        {
            "buffer" : 0,
            "byteLength" : 1416,
            "byteOffset" : 63168
        },
        {
            "buffer" : 0,
            "byteLength" : 16272,
            "byteOffset" : 64584
        },
        {
            "buffer" : 0,
            "byteLength" : 16272,
            "byteOffset" : 80856
        },
        {
            "buffer" : 0,
            "byteLength" : 10848,
            "byteOffset" : 97128
        },
        {
            "buffer" : 0,
            "byteLength" : 4428,
            "byteOffset" : 107976
        }
    ],
    "samplers" : [
        {
            "magFilter" : 9728,
            "minFilter" : 9984
        }
    ],
    "buffers" : [
        {
            "byteLength" : 112404,
            "uri" : "data:application/octet-stream;base64,"
        }
    ]
}
