{
    "asset" : {
        "generator" : "Khronos glTF Blender I/O v1.6.16",
        "version" : "2.0"
    },
    "scene" : 0,
    "scenes" : [
        {
            "name" : "Scene",
            "nodes" : [
                0,
                1,
                2,
                3,
                4,
                5,
                6,
                7,
                8,
                9,
                10
            ]
        }
    ],
    "nodes" : [
        {
            "mesh" : 0,
            "name" : "Cube",
            "translation" : [
                -16.966175079345703,
                0,
                0
            ]
        },
        {
            "name" : "Light",
            "rotation" : [
                0.16907575726509094,
                0.7558803558349609,
                -0.27217137813568115,
                0.570947527885437
            ],
            "translation" : [
                -12.88992977142334,
                5.903861999511719,
                -1.0054539442062378
            ]
        },
        {
            "name" : "Camera",
            "rotation" : [
                0.483536034822464,
                0.33687159419059753,
                -0.20870360732078552,
                0.7804827094078064
            ],
            "translation" : [
                -9.607283592224121,
                4.958309173583984,
                6.925790786743164
            ]
        },
        {
            "mesh" : 1,
            "name" : "crate",
            "translation" : [
                -21.748817443847656,
                -4.155655860900879,
                7.23872184753418
            ]
        },
        {
            "mesh" : 2,
            "name" : "tree",
            "translation" : [
                -26.417739868164062,
                -0.5322074890136719,
                -0.9782791137695312
            ]
        },
        {
            "mesh" : 3,
            "name" : "chassis",
            "scale" : [
                0.6317787170410156,
                0.6317787170410156,
                0.6317787170410156
            ]
        },
        {
            "mesh" : 4,
            "name" : "tire4",
            "scale" : [
                0.6317787170410156,
                0.6317787170410156,
                0.6317787170410156
            ]
        },
        {
            "mesh" : 5,
            "name" : "tire3",
            "scale" : [
                0.6317780613899231,
                0.6317787170410156,
                0.6317787170410156
            ],
            "translation" : [
                0,
                0,
                0.9788824915885925
            ]
        },
        {
            "mesh" : 6,
            "name" : "tire",
            "scale" : [
                0.6317787170410156,
                0.6317787170410156,
                0.6317787170410156
            ]
        },
        {
            "mesh" : 7,
            "name" : "tire2",
            "scale" : [
                0.6317787170410156,
                0.6317787170410156,
                0.6317787170410156
            ]
        },
        {
            "mesh" : 8,
            "name" : "car2",
            "translation" : [
                -16.92917823791504,
                3.29390811920166,
                -13.29232406616211
            ]
        }
    ],
    "materials" : [
        {
            "doubleSided" : true,
            "name" : "Material",
            "pbrMetallicRoughness" : {
                "baseColorTexture" : {
                    "index" : 0
                },
                "metallicFactor" : 0,
                "roughnessFactor" : 0.4000000059604645
            }
        },
        {
            "doubleSided" : true,
            "name" : "Material.001",
            "pbrMetallicRoughness" : {
                "baseColorTexture" : {
                    "index" : 1
                },
                "metallicFactor" : 0,
                "roughnessFactor" : 0.5
            }
        },
        {
            "doubleSided" : true,
            "name" : "tree",
            "pbrMetallicRoughness" : {
                "baseColorTexture" : {
                    "index" : 2
                },
                "metallicFactor" : 0,
                "roughnessFactor" : 0.5
            }
        }
    ],
    "meshes" : [
        {
            "name" : "Cube",
            "primitives" : [
                {
                    "attributes" : {
                        "POSITION" : 0,
                        "NORMAL" : 1,
                        "TEXCOORD_0" : 2
                    },
                    "indices" : 3,
                    "material" : 0
                }
            ]
        },
        {
            "name" : "Cube.001",
            "primitives" : [
                {
                    "attributes" : {
                        "POSITION" : 4,
                        "NORMAL" : 5,
                        "TEXCOORD_0" : 6
                    },
                    "indices" : 7,
                    "material" : 1
                }
            ]
        },
        {
            "name" : "Cube.002",
            "primitives" : [
                {
                    "attributes" : {
                        "POSITION" : 8,
                        "NORMAL" : 9,
                        "TEXCOORD_0" : 10
                    },
                    "indices" : 11,
                    "material" : 2
                }
            ]
        },
        {
            "name" : "Cube.003",
            "primitives" : [
                {
                    "attributes" : {
                        "POSITION" : 12,
                        "NORMAL" : 13,
                        "TEXCOORD_0" : 14
                    },
                    "indices" : 15,
                    "material" : 1
                }
            ]
        },
        {
            "name" : "Cube.009",
            "primitives" : [
                {
                    "attributes" : {
                        "POSITION" : 16,
                        "NORMAL" : 17,
                        "TEXCOORD_0" : 18
                    },
                    "indices" : 19,
                    "material" : 1
                }
            ]
        },
        {
            "name" : "Cube.010",
            "primitives" : [
                {
                    "attributes" : {
                        "POSITION" : 20,
                        "NORMAL" : 21,
                        "TEXCOORD_0" : 22
                    },
                    "indices" : 23,
                    "material" : 1
                }
            ]
        },
        {
            "name" : "Cube.011",
            "primitives" : [
                {
                    "attributes" : {
                        "POSITION" : 24,
                        "NORMAL" : 25,
                        "TEXCOORD_0" : 26
                    },
                    "indices" : 27,
                    "material" : 1
                }
            ]
        },
        {
            "name" : "Cube.012",
            "primitives" : [
                {
                    "attributes" : {
                        "POSITION" : 28,
                        "NORMAL" : 29,
                        "TEXCOORD_0" : 30
                    },
                    "indices" : 31,
                    "material" : 1
                }
            ]
        },
        {
            "name" : "Cube.008",
            "primitives" : [
                {
                    "attributes" : {
                        "POSITION" : 32,
                        "NORMAL" : 33,
                        "TEXCOORD_0" : 34
                    },
                    "indices" : 35,
                    "material" : 1
                }
            ]
        }
    ],
    "textures" : [
        {
            "sampler" : 0,
            "source" : 0
        },
        {
            "sampler" : 0,
            "source" : 0
        },
        {
            "sampler" : 0,
            "source" : 0
        }
    ],
    "images" : [
        {
            "bufferView" : 4,
            "mimeType" : "image/png",
            "name" : "lowpoly-palette2"
        }
    ],
    "accessors" : [
        {
            "bufferView" : 0,
            "componentType" : 5126,
            "count" : 617,
            "max" : [
                1.0650862455368042,
                12.869244575500488,
                1.0650862455368042
            ],
            "min" : [
                -1.0650862455368042,
                -1,
                -1.0650862455368042
            ],
            "type" : "VEC3"
        },
        {
            "bufferView" : 1,
            "componentType" : 5126,
            "count" : 617,
            "type" : "VEC3"
        },
        {
            "bufferView" : 2,
            "componentType" : 5126,
            "count" : 617,
            "type" : "VEC2"
        },
        {
            "bufferView" : 3,
            "componentType" : 5123,
            "count" : 1146,
            "type" : "SCALAR"
        },
        {
            "bufferView" : 5,
            "componentType" : 5126,
            "count" : 575,
            "max" : [
                1,
                6.157885551452637,
                1
            ],
            "min" : [
                -1,
                4.157885551452637,
                -1
            ],
            "type" : "VEC3"
        },
        {
            "bufferView" : 6,
            "componentType" : 5126,
            "count" : 575,
            "type" : "VEC3"
        },
        {
            "bufferView" : 7,
            "componentType" : 5126,
            "count" : 575,
            "type" : "VEC2"
        },
        {
            "bufferView" : 8,
            "componentType" : 5123,
            "count" : 1176,
            "type" : "SCALAR"
        },
        {
            "bufferView" : 9,
            "componentType" : 5126,
            "count" : 928,
            "max" : [
                7.171262741088867,
                9.855317115783691,
                4.044355392456055
            ],
            "min" : [
                -4.8214874267578125,
                0.06455141305923462,
                -3.047083616256714
            ],
            "type" : "VEC3"
        },
        {
            "bufferView" : 10,
            "componentType" : 5126,
            "count" : 928,
            "type" : "VEC3"
        },
        {
            "bufferView" : 11,
            "componentType" : 5126,
            "count" : 928,
            "type" : "VEC2"
        },
        {
            "bufferView" : 12,
            "componentType" : 5123,
            "count" : 1044,
            "type" : "SCALAR"
        },
        {
            "bufferView" : 13,
            "componentType" : 5126,
            "count" : 644,
            "max" : [
                2.0656707286834717,
                0.7914226651191711,
                2.849022388458252
            ],
            "min" : [
                -2.0656707286834717,
                -2.026660442352295,
                -4.387959957122803
            ],
            "type" : "VEC3"
        },
        {
            "bufferView" : 14,
            "componentType" : 5126,
            "count" : 644,
            "type" : "VEC3"
        },
        {
            "bufferView" : 15,
            "componentType" : 5126,
            "count" : 644,
            "type" : "VEC2"
        },
        {
            "bufferView" : 16,
            "componentType" : 5123,
            "count" : 1236,
            "type" : "SCALAR"
        },
        {
            "bufferView" : 17,
            "componentType" : 5126,
            "count" : 300,
            "max" : [
                1.7675657272338867,
                -1.3354471921920776,
                -2.863121509552002
            ],
            "min" : [
                1.1446712017059326,
                -2.2631139755249023,
                -3.8385281562805176
            ],
            "type" : "VEC3"
        },
        {
            "bufferView" : 18,
            "componentType" : 5126,
            "count" : 300,
            "type" : "VEC3"
        },
        {
            "bufferView" : 19,
            "componentType" : 5126,
            "count" : 300,
            "type" : "VEC2"
        },
        {
            "bufferView" : 20,
            "componentType" : 5123,
            "count" : 468,
            "type" : "SCALAR"
        },
        {
            "bufferView" : 21,
            "componentType" : 5126,
            "count" : 300,
            "max" : [
                1.7675657272338867,
                -1.3354471921920776,
                0.35472339391708374
            ],
            "min" : [
                1.1446712017059326,
                -2.2631139755249023,
                -0.6206832528114319
            ],
            "type" : "VEC3"
        },
        {
            "bufferView" : 22,
            "componentType" : 5126,
            "count" : 300,
            "type" : "VEC3"
        },
        {
            "bufferView" : 23,
            "componentType" : 5126,
            "count" : 300,
            "type" : "VEC2"
        },
        {
            "bufferView" : 24,
            "componentType" : 5123,
            "count" : 468,
            "type" : "SCALAR"
        },
        {
            "bufferView" : 25,
            "componentType" : 5126,
            "count" : 300,
            "max" : [
                -1.1446712017059326,
                -1.3354471921920776,
                -2.863121509552002
            ],
            "min" : [
                -1.7675657272338867,
                -2.2631139755249023,
                -3.8385281562805176
            ],
            "type" : "VEC3"
        },
        {
            "bufferView" : 26,
            "componentType" : 5126,
            "count" : 300,
            "type" : "VEC3"
        },
        {
            "bufferView" : 27,
            "componentType" : 5126,
            "count" : 300,
            "type" : "VEC2"
        },
        {
            "bufferView" : 28,
            "componentType" : 5123,
            "count" : 468,
            "type" : "SCALAR"
        },
        {
            "bufferView" : 29,
            "componentType" : 5126,
            "count" : 300,
            "max" : [
                -1.1446712017059326,
                -1.3354471921920776,
                0.35472339391708374
            ],
            "min" : [
                -1.7675657272338867,
                -2.2631139755249023,
                -0.6206832528114319
            ],
            "type" : "VEC3"
        },
        {
            "bufferView" : 30,
            "componentType" : 5126,
            "count" : 300,
            "type" : "VEC3"
        },
        {
            "bufferView" : 31,
            "componentType" : 5126,
            "count" : 300,
            "type" : "VEC2"
        },
        {
            "bufferView" : 32,
            "componentType" : 5123,
            "count" : 468,
            "type" : "SCALAR"
        },
        {
            "bufferView" : 33,
            "componentType" : 5126,
            "count" : 1224,
            "max" : [
                2.0656707286834717,
                0.7914226651191711,
                1.071079134941101
            ],
            "min" : [
                -1.7675657272338867,
                -2.2631139755249023,
                -4.387959957122803
            ],
            "type" : "VEC3"
        },
        {
            "bufferView" : 34,
            "componentType" : 5126,
            "count" : 1224,
            "type" : "VEC3"
        },
        {
            "bufferView" : 35,
            "componentType" : 5126,
            "count" : 1224,
            "type" : "VEC2"
        },
        {
            "bufferView" : 36,
            "componentType" : 5123,
            "count" : 1998,
            "type" : "SCALAR"
        }
    ],
    "bufferViews" : [
        {
            "buffer" : 0,
            "byteLength" : 7404,
            "byteOffset" : 0
        },
        {
            "buffer" : 0,
            "byteLength" : 7404,
            "byteOffset" : 7404
        },
        {
            "buffer" : 0,
            "byteLength" : 4936,
            "byteOffset" : 14808
        },
        {
            "buffer" : 0,
            "byteLength" : 2292,
            "byteOffset" : 19744
        },
        {
            "buffer" : 0,
            "byteLength" : 1126,
            "byteOffset" : 22036
        },
        {
            "buffer" : 0,
            "byteLength" : 6900,
            "byteOffset" : 23164
        },
        {
            "buffer" : 0,
            "byteLength" : 6900,
            "byteOffset" : 30064
        },
        {
            "buffer" : 0,
            "byteLength" : 4600,
            "byteOffset" : 36964
        },
        {
            "buffer" : 0,
            "byteLength" : 2352,
            "byteOffset" : 41564
        },
        {
            "buffer" : 0,
            "byteLength" : 11136,
            "byteOffset" : 43916
        },
        {
            "buffer" : 0,
            "byteLength" : 11136,
            "byteOffset" : 55052
        },
        {
            "buffer" : 0,
            "byteLength" : 7424,
            "byteOffset" : 66188
        },
        {
            "buffer" : 0,
            "byteLength" : 2088,
            "byteOffset" : 73612
        },
        {
            "buffer" : 0,
            "byteLength" : 7728,
            "byteOffset" : 75700
        },
        {
            "buffer" : 0,
            "byteLength" : 7728,
            "byteOffset" : 83428
        },
        {
            "buffer" : 0,
            "byteLength" : 5152,
            "byteOffset" : 91156
        },
        {
            "buffer" : 0,
            "byteLength" : 2472,
            "byteOffset" : 96308
        },
        {
            "buffer" : 0,
            "byteLength" : 3600,
            "byteOffset" : 98780
        },
        {
            "buffer" : 0,
            "byteLength" : 3600,
            "byteOffset" : 102380
        },
        {
            "buffer" : 0,
            "byteLength" : 2400,
            "byteOffset" : 105980
        },
        {
            "buffer" : 0,
            "byteLength" : 936,
            "byteOffset" : 108380
        },
        {
            "buffer" : 0,
            "byteLength" : 3600,
            "byteOffset" : 109316
        },
        {
            "buffer" : 0,
            "byteLength" : 3600,
            "byteOffset" : 112916
        },
        {
            "buffer" : 0,
            "byteLength" : 2400,
            "byteOffset" : 116516
        },
        {
            "buffer" : 0,
            "byteLength" : 936,
            "byteOffset" : 118916
        },
        {
            "buffer" : 0,
            "byteLength" : 3600,
            "byteOffset" : 119852
        },
        {
            "buffer" : 0,
            "byteLength" : 3600,
            "byteOffset" : 123452
        },
        {
            "buffer" : 0,
            "byteLength" : 2400,
            "byteOffset" : 127052
        },
        {
            "buffer" : 0,
            "byteLength" : 936,
            "byteOffset" : 129452
        },
        {
            "buffer" : 0,
            "byteLength" : 3600,
            "byteOffset" : 130388
        },
        {
            "buffer" : 0,
            "byteLength" : 3600,
            "byteOffset" : 133988
        },
        {
            "buffer" : 0,
            "byteLength" : 2400,
            "byteOffset" : 137588
        },
        {
            "buffer" : 0,
            "byteLength" : 936,
            "byteOffset" : 139988
        },
        {
            "buffer" : 0,
            "byteLength" : 14688,
            "byteOffset" : 140924
        },
        {
            "buffer" : 0,
            "byteLength" : 14688,
            "byteOffset" : 155612
        },
        {
            "buffer" : 0,
            "byteLength" : 9792,
            "byteOffset" : 170300
        },
        {
            "buffer" : 0,
            "byteLength" : 3996,
            "byteOffset" : 180092
        }
    ],
    "samplers" : [
        {
            "magFilter" : 9728,
            "minFilter" : 9984
        }
    ],
    "buffers" : [
        {
            "byteLength" : 184088,
            "uri" : "data:application/octet-stream;base64,"
        }
    ]
}
