{
    "asset" : {
        "generator" : "Khronos glTF Blender I/O v1.6.16",
        "version" : "2.0"
    },
    "scene" : 0,
    "scenes" : [
        {
            "name" : "Scene",
            "nodes" : [
                0,
                1,
                2,
                3,
                4,
                5,
                6,
                7,
                8,
                9,
                10
            ]
        }
    ],
    "nodes" : [
        {
            "name" : "Light",
            "rotation" : [
                0.16907575726509094,
                0.7558803558349609,
                -0.27217137813568115,
                0.570947527885437
            ],
            "scale" : [
                0.699999988079071,
                0.6999999284744263,
                0.7000001072883606
            ],
            "translation" : [
                3.5427346229553223,
                4.78165340423584,
                -1.447066307067871
            ]
        },
        {
            "name" : "Camera",
            "rotation" : [
                0.1789783388376236,
                0.7994856834411621,
                -0.495309054851532,
                0.28889158368110657
            ],
            "scale" : [
                0.699999988079071,
                0.699999988079071,
                0.699999988079071
            ],
            "translation" : [
                9.095587730407715,
                7.115766525268555,
                -11.757797241210938
            ]
        },
        {
            "mesh" : 0,
            "name" : "back-left-tire",
            "rotation" : [
                0,
                1,
                0,
                -1.6292068494294654e-07
            ],
            "scale" : [
                0.699999988079071,
                0.699999988079071,
                0.699999988079071
            ],
            "translation" : [
                0.6893631219863892,
                0.6489502191543579,
                -0.8485890626907349
            ]
        },
        {
            "mesh" : 1,
            "name" : "front-right-tire",
            "rotation" : [
                0,
                1,
                0,
                -1.6292068494294654e-07
            ],
            "scale" : [
                0.699999988079071,
                0.699999988079071,
                0.699999988079071
            ],
            "translation" : [
                0.6893631219863892,
                0.6489502191543579,
                -0.8485890626907349
            ]
        },
        {
            "mesh" : 2,
            "name" : "front-left-tire",
            "rotation" : [
                0,
                1,
                0,
                -1.6292068494294654e-07
            ],
            "scale" : [
                0.699999988079071,
                0.699999988079071,
                0.699999988079071
            ],
            "translation" : [
                0.6893631219863892,
                0.6489502191543579,
                -0.8485890626907349
            ]
        },
        {
            "mesh" : 3,
            "name" : "back-right-tire",
            "rotation" : [
                0,
                1,
                0,
                -1.6292068494294654e-07
            ],
            "scale" : [
                0.699999988079071,
                0.699999988079071,
                0.699999988079071
            ],
            "translation" : [
                0.6893631219863892,
                0.6489502191543579,
                -0.8485890626907349
            ]
        },
        {
            "mesh" : 4,
            "name" : "red-chassis",
            "rotation" : [
                0,
                1,
                0,
                -1.6292068494294654e-07
            ],
            "scale" : [
                0.699999988079071,
                0.699999988079071,
                0.699999988079071
            ],
            "translation" : [
                0.6893631219863892,
                0.6489502191543579,
                -0.7432485818862915
            ]
        },
        {
            "mesh" : 5,
            "name" : "Plane",
            "rotation" : [
                0,
                0,
                -0.7070808410644531,
                -0.7071326971054077
            ],
            "scale" : [
                0.49000003933906555,
                1,
                0.3199999928474426
            ],
            "translation" : [
                -0.9153909683227539,
                0.7308119535446167,
                -4.195430755615234
            ]
        },
        {
            "mesh" : 6,
            "name" : "pink-chassis",
            "rotation" : [
                0,
                1,
                0,
                -1.6292068494294654e-07
            ],
            "scale" : [
                0.699999988079071,
                0.699999988079071,
                0.699999988079071
            ],
            "translation" : [
                7.279172420501709,
                0.6489502191543579,
                -0.7722786068916321
            ]
        },
        {
            "mesh" : 7,
            "name" : "orange-chassis",
            "rotation" : [
                0,
                1,
                0,
                -1.6292068494294654e-07
            ],
            "scale" : [
                0.699999988079071,
                0.699999988079071,
                0.699999988079071
            ],
            "translation" : [
                12.76584243774414,
                0.6489502191543579,
                -0.8013086318969727
            ]
        },
        {
            "mesh" : 8,
            "name" : "gray-chassis",
            "rotation" : [
                0,
                1,
                0,
                -1.6292068494294654e-07
            ],
            "scale" : [
                0.699999988079071,
                0.699999988079071,
                0.699999988079071
            ],
            "translation" : [
                18.827306747436523,
                0.6489502191543579,
                -0.8361446261405945
            ]
        }
    ],
    "materials" : [
        {
            "doubleSided" : true,
            "name" : "Material",
            "pbrMetallicRoughness" : {
                "baseColorTexture" : {
                    "index" : 0
                },
                "metallicFactor" : 0
            }
        }
    ],
    "meshes" : [
        {
            "name" : "Cube.003",
            "primitives" : [
                {
                    "attributes" : {
                        "POSITION" : 0,
                        "NORMAL" : 1,
                        "TEXCOORD_0" : 2
                    },
                    "indices" : 3,
                    "material" : 0
                }
            ]
        },
        {
            "name" : "Cube.004",
            "primitives" : [
                {
                    "attributes" : {
                        "POSITION" : 4,
                        "NORMAL" : 5,
                        "TEXCOORD_0" : 6
                    },
                    "indices" : 7,
                    "material" : 0
                }
            ]
        },
        {
            "name" : "Cube.005",
            "primitives" : [
                {
                    "attributes" : {
                        "POSITION" : 8,
                        "NORMAL" : 9,
                        "TEXCOORD_0" : 10
                    },
                    "indices" : 11,
                    "material" : 0
                }
            ]
        },
        {
            "name" : "Cube.006",
            "primitives" : [
                {
                    "attributes" : {
                        "POSITION" : 12,
                        "NORMAL" : 13,
                        "TEXCOORD_0" : 14
                    },
                    "indices" : 15,
                    "material" : 0
                }
            ]
        },
        {
            "name" : "Cube.001",
            "primitives" : [
                {
                    "attributes" : {
                        "POSITION" : 16,
                        "NORMAL" : 17,
                        "TEXCOORD_0" : 18
                    },
                    "indices" : 19,
                    "material" : 0
                }
            ]
        },
        {
            "name" : "Plane",
            "primitives" : [
                {
                    "attributes" : {
                        "POSITION" : 20,
                        "NORMAL" : 21,
                        "TEXCOORD_0" : 22
                    },
                    "indices" : 23
                }
            ]
        },
        {
            "name" : "Cube.002",
            "primitives" : [
                {
                    "attributes" : {
                        "POSITION" : 24,
                        "NORMAL" : 25,
                        "TEXCOORD_0" : 26
                    },
                    "indices" : 19,
                    "material" : 0
                }
            ]
        },
        {
            "name" : "Cube.007",
            "primitives" : [
                {
                    "attributes" : {
                        "POSITION" : 27,
                        "NORMAL" : 28,
                        "TEXCOORD_0" : 29
                    },
                    "indices" : 19,
                    "material" : 0
                }
            ]
        },
        {
            "name" : "Cube.008",
            "primitives" : [
                {
                    "attributes" : {
                        "POSITION" : 30,
                        "NORMAL" : 31,
                        "TEXCOORD_0" : 32
                    },
                    "indices" : 19,
                    "material" : 0
                }
            ]
        }
    ],
    "textures" : [
        {
            "sampler" : 0,
            "source" : 0
        }
    ],
    "images" : [
        {
            "bufferView" : 4,
            "mimeType" : "image/png",
            "name" : "lowpoly-palette2"
        }
    ],
    "accessors" : [
        {
            "bufferView" : 0,
            "componentType" : 5126,
            "count" : 460,
            "max" : [
                2.2494242191314697,
                0.7899249196052551,
                -2.494724988937378
            ],
            "min" : [
                1.2185364961624146,
                -0.6107969284057617,
                -3.967531442642212
            ],
            "type" : "VEC3"
        },
        {
            "bufferView" : 1,
            "componentType" : 5126,
            "count" : 460,
            "type" : "VEC3"
        },
        {
            "bufferView" : 2,
            "componentType" : 5126,
            "count" : 460,
            "type" : "VEC2"
        },
        {
            "bufferView" : 3,
            "componentType" : 5123,
            "count" : 708,
            "type" : "SCALAR"
        },
        {
            "bufferView" : 5,
            "componentType" : 5126,
            "count" : 446,
            "max" : [
                -1.2185364961624146,
                0.7899249196052551,
                5.519656181335449
            ],
            "min" : [
                -2.2494242191314697,
                -0.6107969284057617,
                4.046849727630615
            ],
            "type" : "VEC3"
        },
        {
            "bufferView" : 6,
            "componentType" : 5126,
            "count" : 446,
            "type" : "VEC3"
        },
        {
            "bufferView" : 7,
            "componentType" : 5126,
            "count" : 446,
            "type" : "VEC2"
        },
        {
            "bufferView" : 8,
            "componentType" : 5123,
            "count" : 708,
            "type" : "SCALAR"
        },
        {
            "bufferView" : 9,
            "componentType" : 5126,
            "count" : 458,
            "max" : [
                2.249425172805786,
                0.7899249196052551,
                5.519656181335449
            ],
            "min" : [
                1.2185369729995728,
                -0.6107969284057617,
                4.046849727630615
            ],
            "type" : "VEC3"
        },
        {
            "bufferView" : 10,
            "componentType" : 5126,
            "count" : 458,
            "type" : "VEC3"
        },
        {
            "bufferView" : 11,
            "componentType" : 5126,
            "count" : 458,
            "type" : "VEC2"
        },
        {
            "bufferView" : 12,
            "componentType" : 5123,
            "count" : 708,
            "type" : "SCALAR"
        },
        {
            "bufferView" : 13,
            "componentType" : 5126,
            "count" : 442,
            "max" : [
                -1.2185369729995728,
                0.7899249196052551,
                -2.494724988937378
            ],
            "min" : [
                -2.249425172805786,
                -0.6107969284057617,
                -3.967531442642212
            ],
            "type" : "VEC3"
        },
        {
            "bufferView" : 14,
            "componentType" : 5126,
            "count" : 442,
            "type" : "VEC3"
        },
        {
            "bufferView" : 15,
            "componentType" : 5126,
            "count" : 442,
            "type" : "VEC2"
        },
        {
            "bufferView" : 16,
            "componentType" : 5123,
            "count" : 708,
            "type" : "SCALAR"
        },
        {
            "bufferView" : 17,
            "componentType" : 5126,
            "count" : 1350,
            "max" : [
                2.280064582824707,
                1.4309940338134766,
                6.231799125671387
            ],
            "min" : [
                -2.2799768447875977,
                -0.2481905221939087,
                -4.282461643218994
            ],
            "type" : "VEC3"
        },
        {
            "bufferView" : 18,
            "componentType" : 5126,
            "count" : 1350,
            "type" : "VEC3"
        },
        {
            "bufferView" : 19,
            "componentType" : 5126,
            "count" : 1350,
            "type" : "VEC2"
        },
        {
            "bufferView" : 20,
            "componentType" : 5123,
            "count" : 2226,
            "type" : "SCALAR"
        },
        {
            "bufferView" : 21,
            "componentType" : 5126,
            "count" : 4,
            "max" : [
                1,
                0,
                1
            ],
            "min" : [
                -1,
                0,
                -1
            ],
            "type" : "VEC3"
        },
        {
            "bufferView" : 22,
            "componentType" : 5126,
            "count" : 4,
            "type" : "VEC3"
        },
        {
            "bufferView" : 23,
            "componentType" : 5126,
            "count" : 4,
            "type" : "VEC2"
        },
        {
            "bufferView" : 24,
            "componentType" : 5123,
            "count" : 6,
            "type" : "SCALAR"
        },
        {
            "bufferView" : 25,
            "componentType" : 5126,
            "count" : 1350,
            "max" : [
                2.280064582824707,
                1.4309940338134766,
                6.231799125671387
            ],
            "min" : [
                -2.2799768447875977,
                -0.2481905221939087,
                -4.282461643218994
            ],
            "type" : "VEC3"
        },
        {
            "bufferView" : 26,
            "componentType" : 5126,
            "count" : 1350,
            "type" : "VEC3"
        },
        {
            "bufferView" : 27,
            "componentType" : 5126,
            "count" : 1350,
            "type" : "VEC2"
        },
        {
            "bufferView" : 28,
            "componentType" : 5126,
            "count" : 1350,
            "max" : [
                2.280064582824707,
                1.4309940338134766,
                6.231799125671387
            ],
            "min" : [
                -2.2799768447875977,
                -0.2481905221939087,
                -4.282461643218994
            ],
            "type" : "VEC3"
        },
        {
            "bufferView" : 29,
            "componentType" : 5126,
            "count" : 1350,
            "type" : "VEC3"
        },
        {
            "bufferView" : 30,
            "componentType" : 5126,
            "count" : 1350,
            "type" : "VEC2"
        },
        {
            "bufferView" : 31,
            "componentType" : 5126,
            "count" : 1350,
            "max" : [
                2.280064582824707,
                1.4309940338134766,
                6.231799125671387
            ],
            "min" : [
                -2.2799768447875977,
                -0.2481905221939087,
                -4.282461643218994
            ],
            "type" : "VEC3"
        },
        {
            "bufferView" : 32,
            "componentType" : 5126,
            "count" : 1350,
            "type" : "VEC3"
        },
        {
            "bufferView" : 33,
            "componentType" : 5126,
            "count" : 1350,
            "type" : "VEC2"
        }
    ],
    "bufferViews" : [
        {
            "buffer" : 0,
            "byteLength" : 5520,
            "byteOffset" : 0
        },
        {
            "buffer" : 0,
            "byteLength" : 5520,
            "byteOffset" : 5520
        },
        {
            "buffer" : 0,
            "byteLength" : 3680,
            "byteOffset" : 11040
        },
        {
            "buffer" : 0,
            "byteLength" : 1416,
            "byteOffset" : 14720
        },
        {
            "buffer" : 0,
            "byteLength" : 1126,
            "byteOffset" : 16136
        },
        {
            "buffer" : 0,
            "byteLength" : 5352,
            "byteOffset" : 17264
        },
        {
            "buffer" : 0,
            "byteLength" : 5352,
            "byteOffset" : 22616
        },
        {
            "buffer" : 0,
            "byteLength" : 3568,
            "byteOffset" : 27968
        },
        {
            "buffer" : 0,
            "byteLength" : 1416,
            "byteOffset" : 31536
        },
        {
            "buffer" : 0,
            "byteLength" : 5496,
            "byteOffset" : 32952
        },
        {
            "buffer" : 0,
            "byteLength" : 5496,
            "byteOffset" : 38448
        },
        {
            "buffer" : 0,
            "byteLength" : 3664,
            "byteOffset" : 43944
        },
        {
            "buffer" : 0,
            "byteLength" : 1416,
            "byteOffset" : 47608
        },
        {
            "buffer" : 0,
            "byteLength" : 5304,
            "byteOffset" : 49024
        },
        {
            "buffer" : 0,
            "byteLength" : 5304,
            "byteOffset" : 54328
        },
        {
            "buffer" : 0,
            "byteLength" : 3536,
            "byteOffset" : 59632
        },
        {
            "buffer" : 0,
            "byteLength" : 1416,
            "byteOffset" : 63168
        },
        {
            "buffer" : 0,
            "byteLength" : 16200,
            "byteOffset" : 64584
        },
        {
            "buffer" : 0,
            "byteLength" : 16200,
            "byteOffset" : 80784
        },
        {
            "buffer" : 0,
            "byteLength" : 10800,
            "byteOffset" : 96984
        },
        {
            "buffer" : 0,
            "byteLength" : 4452,
            "byteOffset" : 107784
        },
        {
            "buffer" : 0,
            "byteLength" : 48,
            "byteOffset" : 112236
        },
        {
            "buffer" : 0,
            "byteLength" : 48,
            "byteOffset" : 112284
        },
        {
            "buffer" : 0,
            "byteLength" : 32,
            "byteOffset" : 112332
        },
        {
            "buffer" : 0,
            "byteLength" : 12,
            "byteOffset" : 112364
        },
        {
            "buffer" : 0,
            "byteLength" : 16200,
            "byteOffset" : 112376
        },
        {
            "buffer" : 0,
            "byteLength" : 16200,
            "byteOffset" : 128576
        },
        {
            "buffer" : 0,
            "byteLength" : 10800,
            "byteOffset" : 144776
        },
        {
            "buffer" : 0,
            "byteLength" : 16200,
            "byteOffset" : 155576
        },
        {
            "buffer" : 0,
            "byteLength" : 16200,
            "byteOffset" : 171776
        },
        {
            "buffer" : 0,
            "byteLength" : 10800,
            "byteOffset" : 187976
        },
        {
            "buffer" : 0,
            "byteLength" : 16200,
            "byteOffset" : 198776
        },
        {
            "buffer" : 0,
            "byteLength" : 16200,
            "byteOffset" : 214976
        },
        {
            "buffer" : 0,
            "byteLength" : 10800,
            "byteOffset" : 231176
        }
    ],
    "samplers" : [
        {
            "magFilter" : 9728,
            "minFilter" : 9984
        }
    ],
    "buffers" : [
        {
            "byteLength" : 241976,
            "uri" : "data:application/octet-stream;base64,"
        }
    ]
}
