{
    "asset" : {
        "generator" : "Khronos glTF Blender I/O v1.6.16",
        "version" : "2.0"
    },
    "scene" : 0,
    "scenes" : [
        {
            "name" : "Scene",
            "nodes" : [
                0,
                1,
                2,
                3,
                4,
                5,
                6,
                7,
                8,
                9
            ]
        }
    ],
    "nodes" : [
        {
            "name" : "Point",
            "translation" : [
                -14.966423034667969,
                5.095534801483154,
                4.6290717124938965
            ]
        },
        {
            "name" : "Camera.001",
            "rotation" : [
                0.47055354714393616,
                -0.40776342153549194,
                0.2599739730358124,
                0.7380527853965759
            ],
            "translation" : [
                -15.758459091186523,
                3.2041759490966797,
                4.075682640075684
            ]
        },
        {
            "mesh" : 0,
            "name" : "chassis"
        },
        {
            "name" : "Light",
            "rotation" : [
                0.16907575726509094,
                0.7558803558349609,
                -0.27217137813568115,
                0.570947527885437
            ],
            "translation" : [
                4.076245307922363,
                5.903861999511719,
                -1.0054539442062378
            ]
        },
        {
            "name" : "Camera",
            "rotation" : [
                0.483536034822464,
                0.33687159419059753,
                -0.20870360732078552,
                0.7804827094078064
            ],
            "translation" : [
                7.358891487121582,
                4.958309173583984,
                6.925790786743164
            ]
        },
        {
            "mesh" : 1,
            "name" : "front-left-tire",
            "translation" : [
                0.43163585662841797,
                -1.0810832977294922,
                3.043107509613037
            ]
        },
        {
            "mesh" : 2,
            "name" : "back-left-tire",
            "translation" : [
                0.43163585662841797,
                -1.0810832977294922,
                -3.2725725173950195
            ]
        },
        {
            "mesh" : 3,
            "name" : "front-right-tire",
            "translation" : [
                -2.5522966384887695,
                -1.0810832977294922,
                3.043107509613037
            ]
        },
        {
            "mesh" : 4,
            "name" : "back-right-tire",
            "translation" : [
                -2.5522966384887695,
                -1.0810832977294922,
                -3.2725725173950195
            ]
        },
        {
            "mesh" : 5,
            "name" : "extra-car-stuff"
        }
    ],
    "materials" : [
        {
            "doubleSided" : true,
            "name" : "Material",
            "pbrMetallicRoughness" : {
                "baseColorTexture" : {
                    "index" : 0
                },
                "metallicFactor" : 0
            }
        },
        {
            "doubleSided" : true,
            "name" : "Material.002",
            "pbrMetallicRoughness" : {
                "baseColorTexture" : {
                    "index" : 1
                },
                "metallicFactor" : 0
            }
        }
    ],
    "meshes" : [
        {
            "name" : "Cube",
            "primitives" : [
                {
                    "attributes" : {
                        "POSITION" : 0,
                        "NORMAL" : 1,
                        "TEXCOORD_0" : 2
                    },
                    "indices" : 3,
                    "material" : 0
                }
            ]
        },
        {
            "name" : "Cylinder",
            "primitives" : [
                {
                    "attributes" : {
                        "POSITION" : 4,
                        "NORMAL" : 5,
                        "TEXCOORD_0" : 6
                    },
                    "indices" : 7,
                    "material" : 1
                }
            ]
        },
        {
            "name" : "Cylinder.001",
            "primitives" : [
                {
                    "attributes" : {
                        "POSITION" : 8,
                        "NORMAL" : 9,
                        "TEXCOORD_0" : 10
                    },
                    "indices" : 7,
                    "material" : 1
                }
            ]
        },
        {
            "name" : "Cylinder.004",
            "primitives" : [
                {
                    "attributes" : {
                        "POSITION" : 11,
                        "NORMAL" : 12,
                        "TEXCOORD_0" : 13
                    },
                    "indices" : 14,
                    "material" : 1
                }
            ]
        },
        {
            "name" : "Cylinder.005",
            "primitives" : [
                {
                    "attributes" : {
                        "POSITION" : 15,
                        "NORMAL" : 16,
                        "TEXCOORD_0" : 17
                    },
                    "indices" : 14,
                    "material" : 1
                }
            ]
        },
        {
            "name" : "Cube.008",
            "primitives" : [
                {
                    "attributes" : {
                        "POSITION" : 18,
                        "NORMAL" : 19,
                        "TEXCOORD_0" : 20
                    },
                    "indices" : 21,
                    "material" : 0
                }
            ]
        }
    ],
    "textures" : [
        {
            "sampler" : 0,
            "source" : 0
        },
        {
            "sampler" : 0,
            "source" : 0
        }
    ],
    "images" : [
        {
            "bufferView" : 4,
            "mimeType" : "image/png",
            "name" : "lowpoly-palette2"
        }
    ],
    "accessors" : [
        {
            "bufferView" : 0,
            "componentType" : 5126,
            "count" : 4086,
            "max" : [
                2.1531856060028076,
                1.3103502988815308,
                4.637499809265137
            ],
            "min" : [
                -2.1531856060028076,
                -1.058430552482605,
                -4.476650714874268
            ],
            "type" : "VEC3"
        },
        {
            "bufferView" : 1,
            "componentType" : 5126,
            "count" : 4086,
            "type" : "VEC3"
        },
        {
            "bufferView" : 2,
            "componentType" : 5126,
            "count" : 4086,
            "type" : "VEC2"
        },
        {
            "bufferView" : 3,
            "componentType" : 5123,
            "count" : 4272,
            "type" : "SCALAR"
        },
        {
            "bufferView" : 5,
            "componentType" : 5126,
            "count" : 216,
            "max" : [
                1.1613479852676392,
                0.6304231286048889,
                0.7077944278717041
            ],
            "min" : [
                0.6535676121711731,
                -0.715881884098053,
                -0.707794189453125
            ],
            "type" : "VEC3"
        },
        {
            "bufferView" : 6,
            "componentType" : 5126,
            "count" : 216,
            "type" : "VEC3"
        },
        {
            "bufferView" : 7,
            "componentType" : 5126,
            "count" : 216,
            "type" : "VEC2"
        },
        {
            "bufferView" : 8,
            "componentType" : 5123,
            "count" : 348,
            "type" : "SCALAR"
        },
        {
            "bufferView" : 9,
            "componentType" : 5126,
            "count" : 216,
            "max" : [
                1.1613479852676392,
                0.6304231286048889,
                0.7077944278717041
            ],
            "min" : [
                0.6535676121711731,
                -0.715881884098053,
                -0.707794189453125
            ],
            "type" : "VEC3"
        },
        {
            "bufferView" : 10,
            "componentType" : 5126,
            "count" : 216,
            "type" : "VEC3"
        },
        {
            "bufferView" : 11,
            "componentType" : 5126,
            "count" : 216,
            "type" : "VEC2"
        },
        {
            "bufferView" : 12,
            "componentType" : 5126,
            "count" : 220,
            "max" : [
                1.4910104274749756,
                0.6304231286048889,
                0.7077944278717041
            ],
            "min" : [
                0.98322993516922,
                -0.715881884098053,
                -0.707794189453125
            ],
            "type" : "VEC3"
        },
        {
            "bufferView" : 13,
            "componentType" : 5126,
            "count" : 220,
            "type" : "VEC3"
        },
        {
            "bufferView" : 14,
            "componentType" : 5126,
            "count" : 220,
            "type" : "VEC2"
        },
        {
            "bufferView" : 15,
            "componentType" : 5123,
            "count" : 348,
            "type" : "SCALAR"
        },
        {
            "bufferView" : 16,
            "componentType" : 5126,
            "count" : 220,
            "max" : [
                1.4910104274749756,
                0.6304231286048889,
                0.7077944278717041
            ],
            "min" : [
                0.98322993516922,
                -0.715881884098053,
                -0.707794189453125
            ],
            "type" : "VEC3"
        },
        {
            "bufferView" : 17,
            "componentType" : 5126,
            "count" : 220,
            "type" : "VEC3"
        },
        {
            "bufferView" : 18,
            "componentType" : 5126,
            "count" : 220,
            "type" : "VEC2"
        },
        {
            "bufferView" : 19,
            "componentType" : 5126,
            "count" : 873,
            "max" : [
                2.1283562183380127,
                1.4616304636001587,
                4.6382365226745605
            ],
            "min" : [
                -2.1283562183380127,
                -1.1960499286651611,
                -4.62460994720459
            ],
            "type" : "VEC3"
        },
        {
            "bufferView" : 20,
            "componentType" : 5126,
            "count" : 873,
            "type" : "VEC3"
        },
        {
            "bufferView" : 21,
            "componentType" : 5126,
            "count" : 873,
            "type" : "VEC2"
        },
        {
            "bufferView" : 22,
            "componentType" : 5123,
            "count" : 1098,
            "type" : "SCALAR"
        }
    ],
    "bufferViews" : [
        {
            "buffer" : 0,
            "byteLength" : 49032,
            "byteOffset" : 0
        },
        {
            "buffer" : 0,
            "byteLength" : 49032,
            "byteOffset" : 49032
        },
        {
            "buffer" : 0,
            "byteLength" : 32688,
            "byteOffset" : 98064
        },
        {
            "buffer" : 0,
            "byteLength" : 8544,
            "byteOffset" : 130752
        },
        {
            "buffer" : 0,
            "byteLength" : 1126,
            "byteOffset" : 139296
        },
        {
            "buffer" : 0,
            "byteLength" : 2592,
            "byteOffset" : 140424
        },
        {
            "buffer" : 0,
            "byteLength" : 2592,
            "byteOffset" : 143016
        },
        {
            "buffer" : 0,
            "byteLength" : 1728,
            "byteOffset" : 145608
        },
        {
            "buffer" : 0,
            "byteLength" : 696,
            "byteOffset" : 147336
        },
        {
            "buffer" : 0,
            "byteLength" : 2592,
            "byteOffset" : 148032
        },
        {
            "buffer" : 0,
            "byteLength" : 2592,
            "byteOffset" : 150624
        },
        {
            "buffer" : 0,
            "byteLength" : 1728,
            "byteOffset" : 153216
        },
        {
            "buffer" : 0,
            "byteLength" : 2640,
            "byteOffset" : 154944
        },
        {
            "buffer" : 0,
            "byteLength" : 2640,
            "byteOffset" : 157584
        },
        {
            "buffer" : 0,
            "byteLength" : 1760,
            "byteOffset" : 160224
        },
        {
            "buffer" : 0,
            "byteLength" : 696,
            "byteOffset" : 161984
        },
        {
            "buffer" : 0,
            "byteLength" : 2640,
            "byteOffset" : 162680
        },
        {
            "buffer" : 0,
            "byteLength" : 2640,
            "byteOffset" : 165320
        },
        {
            "buffer" : 0,
            "byteLength" : 1760,
            "byteOffset" : 167960
        },
        {
            "buffer" : 0,
            "byteLength" : 10476,
            "byteOffset" : 169720
        },
        {
            "buffer" : 0,
            "byteLength" : 10476,
            "byteOffset" : 180196
        },
        {
            "buffer" : 0,
            "byteLength" : 6984,
            "byteOffset" : 190672
        },
        {
            "buffer" : 0,
            "byteLength" : 2196,
            "byteOffset" : 197656
        }
    ],
    "samplers" : [
        {
            "magFilter" : 9728,
            "minFilter" : 9984
        }
    ],
    "buffers" : [
        {
            "byteLength" : 199852,
            "uri" : "data:application/octet-stream;base64,"
        }
    ]
}
