{
    "asset" : {
        "generator" : "Khronos glTF Blender I/O v1.6.16",
        "version" : "2.0"
    },
    "scene" : 0,
    "scenes" : [
        {
            "name" : "Scene",
            "nodes" : [
                0,
                1,
                2,
                3,
                4,
                5,
                6,
                7
            ]
        }
    ],
    "nodes" : [
        {
            "mesh" : 0,
            "name" : "extra-car-stuff"
        },
        {
            "name" : "Light",
            "rotation" : [
                0.16907575726509094,
                0.7558803558349609,
                -0.27217137813568115,
                0.570947527885437
            ],
            "translation" : [
                4.076245307922363,
                5.903861999511719,
                -1.0054539442062378
            ]
        },
        {
            "name" : "Camera",
            "rotation" : [
                0.483536034822464,
                0.33687159419059753,
                -0.20870360732078552,
                0.7804827094078064
            ],
            "translation" : [
                7.358891487121582,
                4.958309173583984,
                6.925790786743164
            ]
        },
        {
            "mesh" : 1,
            "name" : "front-left-tire"
        },
        {
            "mesh" : 2,
            "name" : "back-left-tire"
        },
        {
            "mesh" : 3,
            "name" : "back-right-tire"
        },
        {
            "mesh" : 4,
            "name" : "front-right-tire"
        },
        {
            "mesh" : 5,
            "name" : "chassis"
        }
    ],
    "materials" : [
        {
            "doubleSided" : true,
            "name" : "Material",
            "pbrMetallicRoughness" : {
                "baseColorTexture" : {
                    "index" : 0
                },
                "metallicFactor" : 0
            }
        }
    ],
    "meshes" : [
        {
            "name" : "Cube",
            "primitives" : [
                {
                    "attributes" : {
                        "POSITION" : 0,
                        "NORMAL" : 1,
                        "TEXCOORD_0" : 2
                    },
                    "indices" : 3,
                    "material" : 0
                }
            ]
        },
        {
            "name" : "Cube.001",
            "primitives" : [
                {
                    "attributes" : {
                        "POSITION" : 4,
                        "NORMAL" : 5,
                        "TEXCOORD_0" : 6
                    },
                    "indices" : 7,
                    "material" : 0
                }
            ]
        },
        {
            "name" : "Cube.002",
            "primitives" : [
                {
                    "attributes" : {
                        "POSITION" : 8,
                        "NORMAL" : 9,
                        "TEXCOORD_0" : 10
                    },
                    "indices" : 11,
                    "material" : 0
                }
            ]
        },
        {
            "name" : "Cube.003",
            "primitives" : [
                {
                    "attributes" : {
                        "POSITION" : 12,
                        "NORMAL" : 13,
                        "TEXCOORD_0" : 14
                    },
                    "indices" : 15,
                    "material" : 0
                }
            ]
        },
        {
            "name" : "Cube.004",
            "primitives" : [
                {
                    "attributes" : {
                        "POSITION" : 16,
                        "NORMAL" : 17,
                        "TEXCOORD_0" : 18
                    },
                    "indices" : 19,
                    "material" : 0
                }
            ]
        },
        {
            "name" : "Cube.006",
            "primitives" : [
                {
                    "attributes" : {
                        "POSITION" : 20,
                        "NORMAL" : 21,
                        "TEXCOORD_0" : 22
                    },
                    "indices" : 23,
                    "material" : 0
                }
            ]
        }
    ],
    "textures" : [
        {
            "sampler" : 0,
            "source" : 0
        }
    ],
    "images" : [
        {
            "bufferView" : 4,
            "mimeType" : "image/png",
            "name" : "lowpoly-palette2"
        }
    ],
    "accessors" : [
        {
            "bufferView" : 0,
            "componentType" : 5126,
            "count" : 1818,
            "max" : [
                1.4926434755325317,
                2.2177839279174805,
                3.9516096115112305
            ],
            "min" : [
                -1.6220998764038086,
                -1.6874858140945435,
                -3.6879091262817383
            ],
            "type" : "VEC3"
        },
        {
            "bufferView" : 1,
            "componentType" : 5126,
            "count" : 1818,
            "type" : "VEC3"
        },
        {
            "bufferView" : 2,
            "componentType" : 5126,
            "count" : 1818,
            "type" : "VEC2"
        },
        {
            "bufferView" : 3,
            "componentType" : 5123,
            "count" : 3336,
            "type" : "SCALAR"
        },
        {
            "bufferView" : 5,
            "componentType" : 5126,
            "count" : 244,
            "max" : [
                1.5922528505325317,
                -0.8876979351043701,
                2.8829236030578613
            ],
            "min" : [
                0.8616939783096313,
                -2.6294336318969727,
                1.0515542030334473
            ],
            "type" : "VEC3"
        },
        {
            "bufferView" : 6,
            "componentType" : 5126,
            "count" : 244,
            "type" : "VEC3"
        },
        {
            "bufferView" : 7,
            "componentType" : 5126,
            "count" : 244,
            "type" : "VEC2"
        },
        {
            "bufferView" : 8,
            "componentType" : 5123,
            "count" : 468,
            "type" : "SCALAR"
        },
        {
            "bufferView" : 9,
            "componentType" : 5126,
            "count" : 246,
            "max" : [
                1.5922528505325317,
                -0.8876979351043701,
                -0.9115393161773682
            ],
            "min" : [
                0.8616939783096313,
                -2.6294336318969727,
                -2.742908477783203
            ],
            "type" : "VEC3"
        },
        {
            "bufferView" : 10,
            "componentType" : 5126,
            "count" : 246,
            "type" : "VEC3"
        },
        {
            "bufferView" : 11,
            "componentType" : 5126,
            "count" : 246,
            "type" : "VEC2"
        },
        {
            "bufferView" : 12,
            "componentType" : 5123,
            "count" : 468,
            "type" : "SCALAR"
        },
        {
            "bufferView" : 13,
            "componentType" : 5126,
            "count" : 250,
            "max" : [
                -0.8616938591003418,
                -0.8876979351043701,
                -0.9115393161773682
            ],
            "min" : [
                -1.5922529697418213,
                -2.6294336318969727,
                -2.742908477783203
            ],
            "type" : "VEC3"
        },
        {
            "bufferView" : 14,
            "componentType" : 5126,
            "count" : 250,
            "type" : "VEC3"
        },
        {
            "bufferView" : 15,
            "componentType" : 5126,
            "count" : 250,
            "type" : "VEC2"
        },
        {
            "bufferView" : 16,
            "componentType" : 5123,
            "count" : 468,
            "type" : "SCALAR"
        },
        {
            "bufferView" : 17,
            "componentType" : 5126,
            "count" : 248,
            "max" : [
                -0.8616938591003418,
                -0.8876979351043701,
                2.8829236030578613
            ],
            "min" : [
                -1.5922529697418213,
                -2.6294336318969727,
                1.0515542030334473
            ],
            "type" : "VEC3"
        },
        {
            "bufferView" : 18,
            "componentType" : 5126,
            "count" : 248,
            "type" : "VEC3"
        },
        {
            "bufferView" : 19,
            "componentType" : 5126,
            "count" : 248,
            "type" : "VEC2"
        },
        {
            "bufferView" : 20,
            "componentType" : 5123,
            "count" : 468,
            "type" : "SCALAR"
        },
        {
            "bufferView" : 21,
            "componentType" : 5126,
            "count" : 922,
            "max" : [
                1.8663936853408813,
                1.5777233839035034,
                3.942272186279297
            ],
            "min" : [
                -1.866393804550171,
                -1.6980105638504028,
                -3.2683987617492676
            ],
            "type" : "VEC3"
        },
        {
            "bufferView" : 22,
            "componentType" : 5126,
            "count" : 922,
            "type" : "VEC3"
        },
        {
            "bufferView" : 23,
            "componentType" : 5126,
            "count" : 922,
            "type" : "VEC2"
        },
        {
            "bufferView" : 24,
            "componentType" : 5123,
            "count" : 1446,
            "type" : "SCALAR"
        }
    ],
    "bufferViews" : [
        {
            "buffer" : 0,
            "byteLength" : 21816,
            "byteOffset" : 0
        },
        {
            "buffer" : 0,
            "byteLength" : 21816,
            "byteOffset" : 21816
        },
        {
            "buffer" : 0,
            "byteLength" : 14544,
            "byteOffset" : 43632
        },
        {
            "buffer" : 0,
            "byteLength" : 6672,
            "byteOffset" : 58176
        },
        {
            "buffer" : 0,
            "byteLength" : 1126,
            "byteOffset" : 64848
        },
        {
            "buffer" : 0,
            "byteLength" : 2928,
            "byteOffset" : 65976
        },
        {
            "buffer" : 0,
            "byteLength" : 2928,
            "byteOffset" : 68904
        },
        {
            "buffer" : 0,
            "byteLength" : 1952,
            "byteOffset" : 71832
        },
        {
            "buffer" : 0,
            "byteLength" : 936,
            "byteOffset" : 73784
        },
        {
            "buffer" : 0,
            "byteLength" : 2952,
            "byteOffset" : 74720
        },
        {
            "buffer" : 0,
            "byteLength" : 2952,
            "byteOffset" : 77672
        },
        {
            "buffer" : 0,
            "byteLength" : 1968,
            "byteOffset" : 80624
        },
        {
            "buffer" : 0,
            "byteLength" : 936,
            "byteOffset" : 82592
        },
        {
            "buffer" : 0,
            "byteLength" : 3000,
            "byteOffset" : 83528
        },
        {
            "buffer" : 0,
            "byteLength" : 3000,
            "byteOffset" : 86528
        },
        {
            "buffer" : 0,
            "byteLength" : 2000,
            "byteOffset" : 89528
        },
        {
            "buffer" : 0,
            "byteLength" : 936,
            "byteOffset" : 91528
        },
        {
            "buffer" : 0,
            "byteLength" : 2976,
            "byteOffset" : 92464
        },
        {
            "buffer" : 0,
            "byteLength" : 2976,
            "byteOffset" : 95440
        },
        {
            "buffer" : 0,
            "byteLength" : 1984,
            "byteOffset" : 98416
        },
        {
            "buffer" : 0,
            "byteLength" : 936,
            "byteOffset" : 100400
        },
        {
            "buffer" : 0,
            "byteLength" : 11064,
            "byteOffset" : 101336
        },
        {
            "buffer" : 0,
            "byteLength" : 11064,
            "byteOffset" : 112400
        },
        {
            "buffer" : 0,
            "byteLength" : 7376,
            "byteOffset" : 123464
        },
        {
            "buffer" : 0,
            "byteLength" : 2892,
            "byteOffset" : 130840
        }
    ],
    "samplers" : [
        {
            "magFilter" : 9728,
            "minFilter" : 9984
        }
    ],
    "buffers" : [
        {
            "byteLength" : 133732,
            "uri" : "data:application/octet-stream;base64,"
        }
    ]
}
