{
    "asset" : {
        "generator" : "Khronos glTF Blender I/O v1.6.16",
        "version" : "2.0"
    },
    "scene" : 0,
    "scenes" : [
        {
            "name" : "Scene",
            "nodes" : [
                0,
                1,
                2,
                3,
                4,
                5,
                6,
                7
            ]
        }
    ],
    "nodes" : [
        {
            "mesh" : 0,
            "name" : "back-right-tire",
            "translation" : [
                0,
                0.5817713737487793,
                0
            ]
        },
        {
            "mesh" : 1,
            "name" : "front-right-tire",
            "translation" : [
                0,
                0.5817713737487793,
                0.959036111831665
            ]
        },
        {
            "mesh" : 2,
            "name" : "front-left-tire",
            "translation" : [
                0,
                0.5817713737487793,
                0.9788824915885925
            ]
        },
        {
            "mesh" : 3,
            "name" : "back-left-tire",
            "translation" : [
                0,
                0.5817713737487793,
                0
            ]
        },
        {
            "mesh" : 4,
            "name" : "chassis"
        },
        {
            "name" : "Point",
            "translation" : [
                -6.218591690063477,
                5.095534801483154,
                4.6290717124938965
            ]
        },
        {
            "name" : "Camera",
            "rotation" : [
                0.47055354714393616,
                -0.40776342153549194,
                0.2599739730358124,
                0.7380527853965759
            ],
            "translation" : [
                -7.010627269744873,
                3.2041759490966797,
                4.075682640075684
            ]
        },
        {
            "mesh" : 5,
            "name" : "extra-car-stuff"
        }
    ],
    "materials" : [
        {
            "doubleSided" : true,
            "name" : "Material.002",
            "pbrMetallicRoughness" : {
                "baseColorTexture" : {
                    "index" : 0
                },
                "metallicFactor" : 0
            }
        }
    ],
    "meshes" : [
        {
            "name" : "Cube.011",
            "primitives" : [
                {
                    "attributes" : {
                        "POSITION" : 0,
                        "NORMAL" : 1,
                        "TEXCOORD_0" : 2
                    },
                    "indices" : 3,
                    "material" : 0
                }
            ]
        },
        {
            "name" : "Cube.012",
            "primitives" : [
                {
                    "attributes" : {
                        "POSITION" : 4,
                        "NORMAL" : 5,
                        "TEXCOORD_0" : 6
                    },
                    "indices" : 7,
                    "material" : 0
                }
            ]
        },
        {
            "name" : "Cube.010",
            "primitives" : [
                {
                    "attributes" : {
                        "POSITION" : 8,
                        "NORMAL" : 9,
                        "TEXCOORD_0" : 10
                    },
                    "indices" : 11,
                    "material" : 0
                }
            ]
        },
        {
            "name" : "Cube.009",
            "primitives" : [
                {
                    "attributes" : {
                        "POSITION" : 12,
                        "NORMAL" : 13,
                        "TEXCOORD_0" : 14
                    },
                    "indices" : 15,
                    "material" : 0
                }
            ]
        },
        {
            "name" : "Cube.001",
            "primitives" : [
                {
                    "attributes" : {
                        "POSITION" : 16,
                        "NORMAL" : 17,
                        "TEXCOORD_0" : 18
                    },
                    "indices" : 19,
                    "material" : 0
                }
            ]
        },
        {
            "name" : "Cube.003",
            "primitives" : [
                {
                    "attributes" : {
                        "POSITION" : 20,
                        "NORMAL" : 21,
                        "TEXCOORD_0" : 22
                    },
                    "indices" : 23,
                    "material" : 0
                }
            ]
        }
    ],
    "textures" : [
        {
            "sampler" : 0,
            "source" : 0
        }
    ],
    "images" : [
        {
            "bufferView" : 4,
            "mimeType" : "image/png",
            "name" : "lowpoly-palette2"
        }
    ],
    "accessors" : [
        {
            "bufferView" : 0,
            "componentType" : 5126,
            "count" : 393,
            "max" : [
                -1.1446712017059326,
                -1.3354471921920776,
                -2.863121509552002
            ],
            "min" : [
                -1.7675657272338867,
                -2.2631139755249023,
                -3.8385281562805176
            ],
            "type" : "VEC3"
        },
        {
            "bufferView" : 1,
            "componentType" : 5126,
            "count" : 393,
            "type" : "VEC3"
        },
        {
            "bufferView" : 2,
            "componentType" : 5126,
            "count" : 393,
            "type" : "VEC2"
        },
        {
            "bufferView" : 3,
            "componentType" : 5123,
            "count" : 468,
            "type" : "SCALAR"
        },
        {
            "bufferView" : 5,
            "componentType" : 5126,
            "count" : 405,
            "max" : [
                -1.1446712017059326,
                -1.3354471921920776,
                0.35472339391708374
            ],
            "min" : [
                -1.7675657272338867,
                -2.2631139755249023,
                -0.6206832528114319
            ],
            "type" : "VEC3"
        },
        {
            "bufferView" : 6,
            "componentType" : 5126,
            "count" : 405,
            "type" : "VEC3"
        },
        {
            "bufferView" : 7,
            "componentType" : 5126,
            "count" : 405,
            "type" : "VEC2"
        },
        {
            "bufferView" : 8,
            "componentType" : 5123,
            "count" : 468,
            "type" : "SCALAR"
        },
        {
            "bufferView" : 9,
            "componentType" : 5126,
            "count" : 402,
            "max" : [
                1.7675657272338867,
                -1.3354471921920776,
                0.35472339391708374
            ],
            "min" : [
                1.1446712017059326,
                -2.2631139755249023,
                -0.6206832528114319
            ],
            "type" : "VEC3"
        },
        {
            "bufferView" : 10,
            "componentType" : 5126,
            "count" : 402,
            "type" : "VEC3"
        },
        {
            "bufferView" : 11,
            "componentType" : 5126,
            "count" : 402,
            "type" : "VEC2"
        },
        {
            "bufferView" : 12,
            "componentType" : 5123,
            "count" : 468,
            "type" : "SCALAR"
        },
        {
            "bufferView" : 13,
            "componentType" : 5126,
            "count" : 389,
            "max" : [
                1.7675657272338867,
                -1.3354471921920776,
                -2.863121509552002
            ],
            "min" : [
                1.1446712017059326,
                -2.2631139755249023,
                -3.8385281562805176
            ],
            "type" : "VEC3"
        },
        {
            "bufferView" : 14,
            "componentType" : 5126,
            "count" : 389,
            "type" : "VEC3"
        },
        {
            "bufferView" : 15,
            "componentType" : 5126,
            "count" : 389,
            "type" : "VEC2"
        },
        {
            "bufferView" : 16,
            "componentType" : 5123,
            "count" : 468,
            "type" : "SCALAR"
        },
        {
            "bufferView" : 17,
            "componentType" : 5126,
            "count" : 719,
            "max" : [
                2.0754263401031494,
                1.7188451290130615,
                2.66911244392395
            ],
            "min" : [
                -2.0559146404266357,
                -0.9008200168609619,
                -4.496789932250977
            ],
            "type" : "VEC3"
        },
        {
            "bufferView" : 18,
            "componentType" : 5126,
            "count" : 719,
            "type" : "VEC3"
        },
        {
            "bufferView" : 19,
            "componentType" : 5126,
            "count" : 719,
            "type" : "VEC2"
        },
        {
            "bufferView" : 20,
            "componentType" : 5123,
            "count" : 987,
            "type" : "SCALAR"
        },
        {
            "bufferView" : 21,
            "componentType" : 5126,
            "count" : 234,
            "max" : [
                1.4637166261672974,
                1.5767337083816528,
                2.740191698074341
            ],
            "min" : [
                -1.4442049264907837,
                -1.0373989343643188,
                -4.750548362731934
            ],
            "type" : "VEC3"
        },
        {
            "bufferView" : 22,
            "componentType" : 5126,
            "count" : 234,
            "type" : "VEC3"
        },
        {
            "bufferView" : 23,
            "componentType" : 5126,
            "count" : 234,
            "type" : "VEC2"
        },
        {
            "bufferView" : 24,
            "componentType" : 5123,
            "count" : 348,
            "type" : "SCALAR"
        }
    ],
    "bufferViews" : [
        {
            "buffer" : 0,
            "byteLength" : 4716,
            "byteOffset" : 0
        },
        {
            "buffer" : 0,
            "byteLength" : 4716,
            "byteOffset" : 4716
        },
        {
            "buffer" : 0,
            "byteLength" : 3144,
            "byteOffset" : 9432
        },
        {
            "buffer" : 0,
            "byteLength" : 936,
            "byteOffset" : 12576
        },
        {
            "buffer" : 0,
            "byteLength" : 1126,
            "byteOffset" : 13512
        },
        {
            "buffer" : 0,
            "byteLength" : 4860,
            "byteOffset" : 14640
        },
        {
            "buffer" : 0,
            "byteLength" : 4860,
            "byteOffset" : 19500
        },
        {
            "buffer" : 0,
            "byteLength" : 3240,
            "byteOffset" : 24360
        },
        {
            "buffer" : 0,
            "byteLength" : 936,
            "byteOffset" : 27600
        },
        {
            "buffer" : 0,
            "byteLength" : 4824,
            "byteOffset" : 28536
        },
        {
            "buffer" : 0,
            "byteLength" : 4824,
            "byteOffset" : 33360
        },
        {
            "buffer" : 0,
            "byteLength" : 3216,
            "byteOffset" : 38184
        },
        {
            "buffer" : 0,
            "byteLength" : 936,
            "byteOffset" : 41400
        },
        {
            "buffer" : 0,
            "byteLength" : 4668,
            "byteOffset" : 42336
        },
        {
            "buffer" : 0,
            "byteLength" : 4668,
            "byteOffset" : 47004
        },
        {
            "buffer" : 0,
            "byteLength" : 3112,
            "byteOffset" : 51672
        },
        {
            "buffer" : 0,
            "byteLength" : 936,
            "byteOffset" : 54784
        },
        {
            "buffer" : 0,
            "byteLength" : 8628,
            "byteOffset" : 55720
        },
        {
            "buffer" : 0,
            "byteLength" : 8628,
            "byteOffset" : 64348
        },
        {
            "buffer" : 0,
            "byteLength" : 5752,
            "byteOffset" : 72976
        },
        {
            "buffer" : 0,
            "byteLength" : 1974,
            "byteOffset" : 78728
        },
        {
            "buffer" : 0,
            "byteLength" : 2808,
            "byteOffset" : 80704
        },
        {
            "buffer" : 0,
            "byteLength" : 2808,
            "byteOffset" : 83512
        },
        {
            "buffer" : 0,
            "byteLength" : 1872,
            "byteOffset" : 86320
        },
        {
            "buffer" : 0,
            "byteLength" : 696,
            "byteOffset" : 88192
        }
    ],
    "samplers" : [
        {
            "magFilter" : 9728,
            "minFilter" : 9984
        }
    ],
    "buffers" : [
        {
            "byteLength" : 88888,
            "uri" : "data:application/octet-stream;base64,"
        }
    ]
}
