{
    "asset" : {
        "generator" : "Khronos glTF Blender I/O v1.6.16",
        "version" : "2.0"
    },
    "scene" : 0,
    "scenes" : [
        {
            "name" : "Scene",
            "nodes" : [
                0,
                1,
                2,
                3,
                4,
                5
            ]
        }
    ],
    "nodes" : [
        {
            "mesh" : 0,
            "name" : "back-left-tire",
            "rotation" : [
                -0.7096983790397644,
                0,
                0,
                0.7045056819915771
            ],
            "scale" : [
                1.2568597793579102,
                1.2568597793579102,
                1.2568597793579102
            ],
            "translation" : [
                0.012747541069984436,
                1.8755128383636475,
                -6.66917085647583
            ]
        },
        {
            "mesh" : 1,
            "name" : "back-right-tire",
            "rotation" : [
                -0.7067142724990845,
                0,
                0,
                0.707499086856842
            ],
            "scale" : [
                1.2568597793579102,
                1.2568597793579102,
                1.2568597793579102
            ],
            "translation" : [
                -0.0003254413604736328,
                1.9105396270751953,
                -1.2476232051849365
            ]
        },
        {
            "mesh" : 2,
            "name" : "front-left-tire",
            "rotation" : [
                -0.7096983790397644,
                0,
                0,
                0.7045056819915771
            ],
            "scale" : [
                1.2568597793579102,
                1.2568597793579102,
                1.2568597793579102
            ],
            "translation" : [
                0.012744560837745667,
                1.9193897247314453,
                4.103168964385986
            ]
        },
        {
            "mesh" : 3,
            "name" : "front-right-tire",
            "rotation" : [
                -0.7067142724990845,
                0,
                0,
                0.707499086856842
            ],
            "scale" : [
                1.2568597793579102,
                1.2568597793579102,
                1.2568597793579102
            ],
            "translation" : [
                -0.00032973289489746094,
                1.9268251657485962,
                -1.2583072185516357
            ]
        },
        {
            "mesh" : 4,
            "name" : "chassis"
        },
        {
            "mesh" : 5,
            "name" : "extra-car-stuff"
        }
    ],
    "materials" : [
        {
            "doubleSided" : true,
            "name" : "Material.001",
            "pbrMetallicRoughness" : {
                "baseColorTexture" : {
                    "index" : 0
                },
                "metallicFactor" : 0
            }
        },
        {
            "doubleSided" : true,
            "name" : "Material",
            "pbrMetallicRoughness" : {
                "baseColorTexture" : {
                    "index" : 1
                },
                "metallicFactor" : 0
            }
        }
    ],
    "meshes" : [
        {
            "name" : "Cylinder",
            "primitives" : [
                {
                    "attributes" : {
                        "POSITION" : 0,
                        "NORMAL" : 1,
                        "TEXCOORD_0" : 2
                    },
                    "indices" : 3,
                    "material" : 0
                }
            ]
        },
        {
            "name" : "Cylinder.001",
            "primitives" : [
                {
                    "attributes" : {
                        "POSITION" : 4,
                        "NORMAL" : 5,
                        "TEXCOORD_0" : 6
                    },
                    "indices" : 7,
                    "material" : 0
                }
            ]
        },
        {
            "name" : "Cylinder.002",
            "primitives" : [
                {
                    "attributes" : {
                        "POSITION" : 8,
                        "NORMAL" : 9,
                        "TEXCOORD_0" : 10
                    },
                    "indices" : 11,
                    "material" : 0
                }
            ]
        },
        {
            "name" : "Cylinder.003",
            "primitives" : [
                {
                    "attributes" : {
                        "POSITION" : 12,
                        "NORMAL" : 13,
                        "TEXCOORD_0" : 14
                    },
                    "indices" : 15,
                    "material" : 0
                }
            ]
        },
        {
            "name" : "Cube",
            "primitives" : [
                {
                    "attributes" : {
                        "POSITION" : 16,
                        "NORMAL" : 17,
                        "TEXCOORD_0" : 18
                    },
                    "indices" : 19,
                    "material" : 1
                }
            ]
        },
        {
            "name" : "Cube.008",
            "primitives" : [
                {
                    "attributes" : {
                        "POSITION" : 20,
                        "NORMAL" : 21,
                        "TEXCOORD_0" : 22
                    },
                    "indices" : 23,
                    "material" : 1
                }
            ]
        }
    ],
    "textures" : [
        {
            "sampler" : 0,
            "source" : 0
        },
        {
            "sampler" : 0,
            "source" : 0
        }
    ],
    "images" : [
        {
            "bufferView" : 4,
            "mimeType" : "image/png",
            "name" : "lowpoly-palette2"
        }
    ],
    "accessors" : [
        {
            "bufferView" : 0,
            "componentType" : 5126,
            "count" : 276,
            "max" : [
                1.2569985389709473,
                -2.7822117805480957,
                -1.6775540113449097
            ],
            "min" : [
                0.8195715546607971,
                -3.7222108840942383,
                -2.6175572872161865
            ],
            "type" : "VEC3"
        },
        {
            "bufferView" : 1,
            "componentType" : 5126,
            "count" : 276,
            "type" : "VEC3"
        },
        {
            "bufferView" : 2,
            "componentType" : 5126,
            "count" : 276,
            "type" : "VEC2"
        },
        {
            "bufferView" : 3,
            "componentType" : 5123,
            "count" : 420,
            "type" : "SCALAR"
        },
        {
            "bufferView" : 5,
            "componentType" : 5126,
            "count" : 276,
            "max" : [
                -0.8313807249069214,
                1.5020675659179688,
                -1.6775542497634888
            ],
            "min" : [
                -1.2688074111938477,
                0.5620673894882202,
                -2.6175572872161865
            ],
            "type" : "VEC3"
        },
        {
            "bufferView" : 6,
            "componentType" : 5126,
            "count" : 276,
            "type" : "VEC3"
        },
        {
            "bufferView" : 7,
            "componentType" : 5126,
            "count" : 276,
            "type" : "VEC2"
        },
        {
            "bufferView" : 8,
            "componentType" : 5123,
            "count" : 420,
            "type" : "SCALAR"
        },
        {
            "bufferView" : 9,
            "componentType" : 5126,
            "count" : 276,
            "max" : [
                1.2569987773895264,
                1.5020674467086792,
                -1.6775540113449097
            ],
            "min" : [
                0.8195721507072449,
                0.5620676279067993,
                -2.6175572872161865
            ],
            "type" : "VEC3"
        },
        {
            "bufferView" : 10,
            "componentType" : 5126,
            "count" : 276,
            "type" : "VEC3"
        },
        {
            "bufferView" : 11,
            "componentType" : 5126,
            "count" : 276,
            "type" : "VEC2"
        },
        {
            "bufferView" : 12,
            "componentType" : 5123,
            "count" : 420,
            "type" : "SCALAR"
        },
        {
            "bufferView" : 13,
            "componentType" : 5126,
            "count" : 276,
            "max" : [
                -0.8313789367675781,
                -2.7822117805480957,
                -1.6775556802749634
            ],
            "min" : [
                -1.2688056230545044,
                -3.722212076187134,
                -2.617558717727661
            ],
            "type" : "VEC3"
        },
        {
            "bufferView" : 14,
            "componentType" : 5126,
            "count" : 276,
            "type" : "VEC3"
        },
        {
            "bufferView" : 15,
            "componentType" : 5126,
            "count" : 276,
            "type" : "VEC2"
        },
        {
            "bufferView" : 16,
            "componentType" : 5123,
            "count" : 420,
            "type" : "SCALAR"
        },
        {
            "bufferView" : 17,
            "componentType" : 5126,
            "count" : 1775,
            "max" : [
                2.1160783767700195,
                1.3889093399047852,
                4.7789435386657715
            ],
            "min" : [
                -2.116079330444336,
                -0.9135998487472534,
                -3.8614003658294678
            ],
            "type" : "VEC3"
        },
        {
            "bufferView" : 18,
            "componentType" : 5126,
            "count" : 1775,
            "type" : "VEC3"
        },
        {
            "bufferView" : 19,
            "componentType" : 5126,
            "count" : 1775,
            "type" : "VEC2"
        },
        {
            "bufferView" : 20,
            "componentType" : 5123,
            "count" : 2457,
            "type" : "SCALAR"
        },
        {
            "bufferView" : 21,
            "componentType" : 5126,
            "count" : 420,
            "max" : [
                1.5974291563034058,
                1.2867612838745117,
                4.468930244445801
            ],
            "min" : [
                -1.597429871559143,
                -0.6307985782623291,
                -3.9157285690307617
            ],
            "type" : "VEC3"
        },
        {
            "bufferView" : 22,
            "componentType" : 5126,
            "count" : 420,
            "type" : "VEC3"
        },
        {
            "bufferView" : 23,
            "componentType" : 5126,
            "count" : 420,
            "type" : "VEC2"
        },
        {
            "bufferView" : 24,
            "componentType" : 5123,
            "count" : 666,
            "type" : "SCALAR"
        }
    ],
    "bufferViews" : [
        {
            "buffer" : 0,
            "byteLength" : 3312,
            "byteOffset" : 0
        },
        {
            "buffer" : 0,
            "byteLength" : 3312,
            "byteOffset" : 3312
        },
        {
            "buffer" : 0,
            "byteLength" : 2208,
            "byteOffset" : 6624
        },
        {
            "buffer" : 0,
            "byteLength" : 840,
            "byteOffset" : 8832
        },
        {
            "buffer" : 0,
            "byteLength" : 1126,
            "byteOffset" : 9672
        },
        {
            "buffer" : 0,
            "byteLength" : 3312,
            "byteOffset" : 10800
        },
        {
            "buffer" : 0,
            "byteLength" : 3312,
            "byteOffset" : 14112
        },
        {
            "buffer" : 0,
            "byteLength" : 2208,
            "byteOffset" : 17424
        },
        {
            "buffer" : 0,
            "byteLength" : 840,
            "byteOffset" : 19632
        },
        {
            "buffer" : 0,
            "byteLength" : 3312,
            "byteOffset" : 20472
        },
        {
            "buffer" : 0,
            "byteLength" : 3312,
            "byteOffset" : 23784
        },
        {
            "buffer" : 0,
            "byteLength" : 2208,
            "byteOffset" : 27096
        },
        {
            "buffer" : 0,
            "byteLength" : 840,
            "byteOffset" : 29304
        },
        {
            "buffer" : 0,
            "byteLength" : 3312,
            "byteOffset" : 30144
        },
        {
            "buffer" : 0,
            "byteLength" : 3312,
            "byteOffset" : 33456
        },
        {
            "buffer" : 0,
            "byteLength" : 2208,
            "byteOffset" : 36768
        },
        {
            "buffer" : 0,
            "byteLength" : 840,
            "byteOffset" : 38976
        },
        {
            "buffer" : 0,
            "byteLength" : 21300,
            "byteOffset" : 39816
        },
        {
            "buffer" : 0,
            "byteLength" : 21300,
            "byteOffset" : 61116
        },
        {
            "buffer" : 0,
            "byteLength" : 14200,
            "byteOffset" : 82416
        },
        {
            "buffer" : 0,
            "byteLength" : 4914,
            "byteOffset" : 96616
        },
        {
            "buffer" : 0,
            "byteLength" : 5040,
            "byteOffset" : 101532
        },
        {
            "buffer" : 0,
            "byteLength" : 5040,
            "byteOffset" : 106572
        },
        {
            "buffer" : 0,
            "byteLength" : 3360,
            "byteOffset" : 111612
        },
        {
            "buffer" : 0,
            "byteLength" : 1332,
            "byteOffset" : 114972
        }
    ],
    "samplers" : [
        {
            "magFilter" : 9728,
            "minFilter" : 9984
        }
    ],
    "buffers" : [
        {
            "byteLength" : 116304,
            "uri" : "data:application/octet-stream;base64,"
        }
    ]
}
