{
    "asset" : {
        "generator" : "Khronos glTF Blender I/O v1.6.16",
        "version" : "2.0"
    },
    "scene" : 0,
    "scenes" : [
        {
            "name" : "Scene",
            "nodes" : [
                0,
                1,
                2,
                3,
                4,
                5,
                6,
                7
            ]
        }
    ],
    "nodes" : [
        {
            "name" : "Light",
            "rotation" : [
                0.16907575726509094,
                0.7558803558349609,
                -0.27217137813568115,
                0.570947527885437
            ],
            "translation" : [
                -14.447766304016113,
                11.978926658630371,
                13.7857666015625
            ]
        },
        {
            "name" : "Camera",
            "rotation" : [
                0.464537650346756,
                -0.39694681763648987,
                0.244964599609375,
                0.7527485489845276
            ],
            "translation" : [
                -25.8811092376709,
                15.107279777526855,
                18.840011596679688
            ]
        },
        {
            "mesh" : 0,
            "name" : "front-right-tire",
            "scale" : [
                0.7230088114738464,
                0.7230088114738464,
                0.7230088114738464
            ]
        },
        {
            "mesh" : 1,
            "name" : "back-left-tire",
            "scale" : [
                0.7230088114738464,
                0.7230088114738464,
                0.7230088114738464
            ]
        },
        {
            "mesh" : 2,
            "name" : "front-left-tire",
            "scale" : [
                0.7230088114738464,
                0.7230088114738464,
                0.7230088114738464
            ]
        },
        {
            "mesh" : 3,
            "name" : "back-right-tire",
            "scale" : [
                0.7230088114738464,
                0.7230088114738464,
                0.7230088114738464
            ]
        },
        {
            "mesh" : 4,
            "name" : "chassis"
        },
        {
            "mesh" : 5,
            "name" : "extra-car-stuff"
        }
    ],
    "materials" : [
        {
            "doubleSided" : true,
            "name" : "Material",
            "pbrMetallicRoughness" : {
                "baseColorTexture" : {
                    "index" : 0
                },
                "metallicFactor" : 0
            }
        }
    ],
    "meshes" : [
        {
            "name" : "Cylinder.001",
            "primitives" : [
                {
                    "attributes" : {
                        "POSITION" : 0,
                        "NORMAL" : 1,
                        "TEXCOORD_0" : 2
                    },
                    "indices" : 3,
                    "material" : 0
                }
            ]
        },
        {
            "name" : "Cylinder.003",
            "primitives" : [
                {
                    "attributes" : {
                        "POSITION" : 4,
                        "NORMAL" : 5,
                        "TEXCOORD_0" : 6
                    },
                    "indices" : 7,
                    "material" : 0
                }
            ]
        },
        {
            "name" : "Cylinder.004",
            "primitives" : [
                {
                    "attributes" : {
                        "POSITION" : 8,
                        "NORMAL" : 9,
                        "TEXCOORD_0" : 10
                    },
                    "indices" : 11,
                    "material" : 0
                }
            ]
        },
        {
            "name" : "Cylinder.002",
            "primitives" : [
                {
                    "attributes" : {
                        "POSITION" : 12,
                        "NORMAL" : 13,
                        "TEXCOORD_0" : 14
                    },
                    "indices" : 15,
                    "material" : 0
                }
            ]
        },
        {
            "name" : "Cube.003",
            "primitives" : [
                {
                    "attributes" : {
                        "POSITION" : 16,
                        "NORMAL" : 17,
                        "TEXCOORD_0" : 18
                    },
                    "indices" : 19,
                    "material" : 0
                }
            ]
        },
        {
            "name" : "Cube.006",
            "primitives" : [
                {
                    "attributes" : {
                        "POSITION" : 20,
                        "NORMAL" : 21,
                        "TEXCOORD_0" : 22
                    },
                    "indices" : 23,
                    "material" : 0
                }
            ]
        }
    ],
    "textures" : [
        {
            "sampler" : 0,
            "source" : 0
        }
    ],
    "images" : [
        {
            "bufferView" : 4,
            "mimeType" : "image/png",
            "name" : "lowpoly-palette2"
        }
    ],
    "accessors" : [
        {
            "bufferView" : 0,
            "componentType" : 5126,
            "count" : 212,
            "max" : [
                -1.1612471342086792,
                -1.9526689052581787,
                3.628629207611084
            ],
            "min" : [
                -1.9345675706863403,
                -4.108808994293213,
                1.5780198574066162
            ],
            "type" : "VEC3"
        },
        {
            "bufferView" : 1,
            "componentType" : 5126,
            "count" : 212,
            "type" : "VEC3"
        },
        {
            "bufferView" : 2,
            "componentType" : 5126,
            "count" : 212,
            "type" : "VEC2"
        },
        {
            "bufferView" : 3,
            "componentType" : 5123,
            "count" : 348,
            "type" : "SCALAR"
        },
        {
            "bufferView" : 5,
            "componentType" : 5126,
            "count" : 216,
            "max" : [
                3.2596709728240967,
                -0.9389423131942749,
                -1.101129412651062
            ],
            "min" : [
                2.1215054988861084,
                -4.112327575683594,
                -4.119194984436035
            ],
            "type" : "VEC3"
        },
        {
            "bufferView" : 6,
            "componentType" : 5126,
            "count" : 216,
            "type" : "VEC3"
        },
        {
            "bufferView" : 7,
            "componentType" : 5126,
            "count" : 216,
            "type" : "VEC2"
        },
        {
            "bufferView" : 8,
            "componentType" : 5123,
            "count" : 348,
            "type" : "SCALAR"
        },
        {
            "bufferView" : 9,
            "componentType" : 5126,
            "count" : 220,
            "max" : [
                2.2938668727874756,
                -1.9526689052581787,
                3.628629207611084
            ],
            "min" : [
                1.5205461978912354,
                -4.108808994293213,
                1.578019618988037
            ],
            "type" : "VEC3"
        },
        {
            "bufferView" : 10,
            "componentType" : 5126,
            "count" : 220,
            "type" : "VEC3"
        },
        {
            "bufferView" : 11,
            "componentType" : 5126,
            "count" : 220,
            "type" : "VEC2"
        },
        {
            "bufferView" : 12,
            "componentType" : 5123,
            "count" : 348,
            "type" : "SCALAR"
        },
        {
            "bufferView" : 13,
            "componentType" : 5126,
            "count" : 220,
            "max" : [
                -1.762206792831421,
                -0.9389423131942749,
                -1.1011292934417725
            ],
            "min" : [
                -2.9003725051879883,
                -4.112327575683594,
                -4.119194984436035
            ],
            "type" : "VEC3"
        },
        {
            "bufferView" : 14,
            "componentType" : 5126,
            "count" : 220,
            "type" : "VEC3"
        },
        {
            "bufferView" : 15,
            "componentType" : 5126,
            "count" : 220,
            "type" : "VEC2"
        },
        {
            "bufferView" : 16,
            "componentType" : 5123,
            "count" : 348,
            "type" : "SCALAR"
        },
        {
            "bufferView" : 17,
            "componentType" : 5126,
            "count" : 747,
            "max" : [
                2.0834429264068604,
                1.8450630903244019,
                3.1437957286834717
            ],
            "min" : [
                -2.2577738761901855,
                -1.8856521844863892,
                -3.290318012237549
            ],
            "type" : "VEC3"
        },
        {
            "bufferView" : 18,
            "componentType" : 5126,
            "count" : 747,
            "type" : "VEC3"
        },
        {
            "bufferView" : 19,
            "componentType" : 5126,
            "count" : 747,
            "type" : "VEC2"
        },
        {
            "bufferView" : 20,
            "componentType" : 5123,
            "count" : 1146,
            "type" : "SCALAR"
        },
        {
            "bufferView" : 21,
            "componentType" : 5126,
            "count" : 484,
            "max" : [
                1.8408890962600708,
                1.5830689668655396,
                3.1042838096618652
            ],
            "min" : [
                -2.015219211578369,
                -1.1704291105270386,
                -2.329056978225708
            ],
            "type" : "VEC3"
        },
        {
            "bufferView" : 22,
            "componentType" : 5126,
            "count" : 484,
            "type" : "VEC3"
        },
        {
            "bufferView" : 23,
            "componentType" : 5126,
            "count" : 484,
            "type" : "VEC2"
        },
        {
            "bufferView" : 24,
            "componentType" : 5123,
            "count" : 816,
            "type" : "SCALAR"
        }
    ],
    "bufferViews" : [
        {
            "buffer" : 0,
            "byteLength" : 2544,
            "byteOffset" : 0
        },
        {
            "buffer" : 0,
            "byteLength" : 2544,
            "byteOffset" : 2544
        },
        {
            "buffer" : 0,
            "byteLength" : 1696,
            "byteOffset" : 5088
        },
        {
            "buffer" : 0,
            "byteLength" : 696,
            "byteOffset" : 6784
        },
        {
            "buffer" : 0,
            "byteLength" : 1126,
            "byteOffset" : 7480
        },
        {
            "buffer" : 0,
            "byteLength" : 2592,
            "byteOffset" : 8608
        },
        {
            "buffer" : 0,
            "byteLength" : 2592,
            "byteOffset" : 11200
        },
        {
            "buffer" : 0,
            "byteLength" : 1728,
            "byteOffset" : 13792
        },
        {
            "buffer" : 0,
            "byteLength" : 696,
            "byteOffset" : 15520
        },
        {
            "buffer" : 0,
            "byteLength" : 2640,
            "byteOffset" : 16216
        },
        {
            "buffer" : 0,
            "byteLength" : 2640,
            "byteOffset" : 18856
        },
        {
            "buffer" : 0,
            "byteLength" : 1760,
            "byteOffset" : 21496
        },
        {
            "buffer" : 0,
            "byteLength" : 696,
            "byteOffset" : 23256
        },
        {
            "buffer" : 0,
            "byteLength" : 2640,
            "byteOffset" : 23952
        },
        {
            "buffer" : 0,
            "byteLength" : 2640,
            "byteOffset" : 26592
        },
        {
            "buffer" : 0,
            "byteLength" : 1760,
            "byteOffset" : 29232
        },
        {
            "buffer" : 0,
            "byteLength" : 696,
            "byteOffset" : 30992
        },
        {
            "buffer" : 0,
            "byteLength" : 8964,
            "byteOffset" : 31688
        },
        {
            "buffer" : 0,
            "byteLength" : 8964,
            "byteOffset" : 40652
        },
        {
            "buffer" : 0,
            "byteLength" : 5976,
            "byteOffset" : 49616
        },
        {
            "buffer" : 0,
            "byteLength" : 2292,
            "byteOffset" : 55592
        },
        {
            "buffer" : 0,
            "byteLength" : 5808,
            "byteOffset" : 57884
        },
        {
            "buffer" : 0,
            "byteLength" : 5808,
            "byteOffset" : 63692
        },
        {
            "buffer" : 0,
            "byteLength" : 3872,
            "byteOffset" : 69500
        },
        {
            "buffer" : 0,
            "byteLength" : 1632,
            "byteOffset" : 73372
        }
    ],
    "samplers" : [
        {
            "magFilter" : 9728,
            "minFilter" : 9984
        }
    ],
    "buffers" : [
        {
            "byteLength" : 75004,
            "uri" : "data:application/octet-stream;base64,"
        }
    ]
}
