{
    "asset" : {
        "generator" : "Khronos glTF Blender I/O v1.6.16",
        "version" : "2.0"
    },
    "scene" : 0,
    "scenes" : [
        {
            "name" : "Scene",
            "nodes" : [
                0,
                1,
                2,
                3,
                4,
                5,
                6,
                7,
                8,
                9
            ]
        }
    ],
    "nodes" : [
        {
            "name" : "Light.001",
            "rotation" : [
                0.16907575726509094,
                0.7558803558349609,
                -0.27217137813568115,
                0.570947527885437
            ],
            "scale" : [
                0.699999988079071,
                0.6999999284744263,
                0.7000001072883606
            ],
            "translation" : [
                3.5427346229553223,
                4.78165340423584,
                -1.447066307067871
            ]
        },
        {
            "name" : "Camera.001",
            "rotation" : [
                0.1789783388376236,
                0.7994856834411621,
                -0.495309054851532,
                0.28889158368110657
            ],
            "scale" : [
                0.699999988079071,
                0.699999988079071,
                0.699999988079071
            ],
            "translation" : [
                9.095587730407715,
                7.115766525268555,
                -11.757797241210938
            ]
        },
        {
            "mesh" : 0,
            "name" : "back-left-tire",
            "rotation" : [
                0,
                1,
                0,
                -1.6292068494294654e-07
            ],
            "scale" : [
                0.699999988079071,
                0.699999988079071,
                0.699999988079071
            ],
            "translation" : [
                194.64906311035156,
                0.6489502191543579,
                215.73609924316406
            ]
        },
        {
            "name" : "Light",
            "rotation" : [
                0.16907575726509094,
                0.7558803558349609,
                -0.27217137813568115,
                0.570947527885437
            ],
            "translation" : [
                4.076245307922363,
                5.903861999511719,
                -1.0054539442062378
            ]
        },
        {
            "name" : "Camera",
            "rotation" : [
                0.483536034822464,
                0.33687159419059753,
                -0.20870360732078552,
                0.7804827094078064
            ],
            "translation" : [
                7.358891487121582,
                4.958309173583984,
                6.925790786743164
            ]
        },
        {
            "mesh" : 1,
            "name" : "ground",
            "scale" : [
                250,
                1,
                250
            ]
        },
        {
            "mesh" : 2,
            "name" : "traffic-cone",
            "translation" : [
                155.16448974609375,
                1.729932188987732,
                71.95441436767578
            ]
        },
        {
            "mesh" : 3,
            "name" : "traffic-cone.001",
            "rotation" : [
                0,
                -0.20001713931560516,
                0,
                0.9797924160957336
            ],
            "scale" : [
                1.1142395734786987,
                1.1142394542694092,
                1.1142395734786987
            ],
            "translation" : [
                155.12127685546875,
                1.748239278793335,
                80.19612121582031
            ]
        },
        {
            "mesh" : 4,
            "name" : "road",
            "scale" : [
                250,
                1,
                250
            ]
        },
        {
            "mesh" : 5,
            "name" : "starting-point",
            "translation" : [
                159.23338317871094,
                0.5830821394920349,
                156.6083984375
            ]
        }
    ],
    "materials" : [
        {
            "doubleSided" : true,
            "name" : "Material.001",
            "pbrMetallicRoughness" : {
                "baseColorTexture" : {
                    "index" : 0
                },
                "metallicFactor" : 0
            }
        }
    ],
    "meshes" : [
        {
            "name" : "Cube.003",
            "primitives" : [
                {
                    "attributes" : {
                        "POSITION" : 0,
                        "NORMAL" : 1,
                        "TEXCOORD_0" : 2
                    },
                    "indices" : 3,
                    "material" : 0
                }
            ]
        },
        {
            "name" : "Plane.002",
            "primitives" : [
                {
                    "attributes" : {
                        "POSITION" : 4,
                        "NORMAL" : 5,
                        "TEXCOORD_0" : 6
                    },
                    "indices" : 7,
                    "material" : 0
                }
            ]
        },
        {
            "name" : "Cone.001",
            "primitives" : [
                {
                    "attributes" : {
                        "POSITION" : 8,
                        "NORMAL" : 9,
                        "TEXCOORD_0" : 10
                    },
                    "indices" : 11,
                    "material" : 0
                }
            ]
        },
        {
            "name" : "Cone.002",
            "primitives" : [
                {
                    "attributes" : {
                        "POSITION" : 12,
                        "NORMAL" : 13,
                        "TEXCOORD_0" : 14
                    },
                    "indices" : 15,
                    "material" : 0
                }
            ]
        },
        {
            "name" : "Plane.003",
            "primitives" : [
                {
                    "attributes" : {
                        "POSITION" : 16,
                        "NORMAL" : 17,
                        "TEXCOORD_0" : 18
                    },
                    "indices" : 19,
                    "material" : 0
                }
            ]
        },
        {
            "name" : "Plane.004",
            "primitives" : [
                {
                    "attributes" : {
                        "POSITION" : 20,
                        "NORMAL" : 21,
                        "TEXCOORD_0" : 22
                    },
                    "indices" : 23
                }
            ]
        }
    ],
    "textures" : [
        {
            "sampler" : 0,
            "source" : 0
        }
    ],
    "images" : [
        {
            "bufferView" : 4,
            "mimeType" : "image/png",
            "name" : "lowpoly-palette2"
        }
    ],
    "accessors" : [
        {
            "bufferView" : 0,
            "componentType" : 5126,
            "count" : 4784,
            "max" : [
                2.280064582824707,
                1.4309940338134766,
                6.081312656402588
            ],
            "min" : [
                -2.2799768447875977,
                -0.6107969284057617,
                -4.432948112487793
            ],
            "type" : "VEC3"
        },
        {
            "bufferView" : 1,
            "componentType" : 5126,
            "count" : 4784,
            "type" : "VEC3"
        },
        {
            "bufferView" : 2,
            "componentType" : 5126,
            "count" : 4784,
            "type" : "VEC2"
        },
        {
            "bufferView" : 3,
            "componentType" : 5123,
            "count" : 5058,
            "type" : "SCALAR"
        },
        {
            "bufferView" : 5,
            "componentType" : 5126,
            "count" : 2105,
            "max" : [
                1,
                0,
                1
            ],
            "min" : [
                -1,
                0,
                -1
            ],
            "type" : "VEC3"
        },
        {
            "bufferView" : 6,
            "componentType" : 5126,
            "count" : 2105,
            "type" : "VEC3"
        },
        {
            "bufferView" : 7,
            "componentType" : 5126,
            "count" : 2105,
            "type" : "VEC2"
        },
        {
            "bufferView" : 8,
            "componentType" : 5123,
            "count" : 7776,
            "type" : "SCALAR"
        },
        {
            "bufferView" : 9,
            "componentType" : 5126,
            "count" : 240,
            "max" : [
                1.3901885747909546,
                1.6657968759536743,
                1.4617304801940918
            ],
            "min" : [
                -1.3901883363723755,
                -1.5864139795303345,
                -1.4617304801940918
            ],
            "type" : "VEC3"
        },
        {
            "bufferView" : 10,
            "componentType" : 5126,
            "count" : 240,
            "type" : "VEC3"
        },
        {
            "bufferView" : 11,
            "componentType" : 5126,
            "count" : 240,
            "type" : "VEC2"
        },
        {
            "bufferView" : 12,
            "componentType" : 5123,
            "count" : 354,
            "type" : "SCALAR"
        },
        {
            "bufferView" : 13,
            "componentType" : 5126,
            "count" : 240,
            "max" : [
                1.3901885747909546,
                1.6657968759536743,
                1.4617304801940918
            ],
            "min" : [
                -1.3901883363723755,
                -1.5982487201690674,
                -1.387526273727417
            ],
            "type" : "VEC3"
        },
        {
            "bufferView" : 14,
            "componentType" : 5126,
            "count" : 240,
            "type" : "VEC3"
        },
        {
            "bufferView" : 15,
            "componentType" : 5126,
            "count" : 240,
            "type" : "VEC2"
        },
        {
            "bufferView" : 16,
            "componentType" : 5123,
            "count" : 354,
            "type" : "SCALAR"
        },
        {
            "bufferView" : 17,
            "componentType" : 5126,
            "count" : 1641,
            "max" : [
                0.7777777910232544,
                0.7500563263893127,
                0.666666567325592
            ],
            "min" : [
                -0.7777776718139648,
                0,
                -0.7777777910232544
            ],
            "type" : "VEC3"
        },
        {
            "bufferView" : 18,
            "componentType" : 5126,
            "count" : 1641,
            "type" : "VEC3"
        },
        {
            "bufferView" : 19,
            "componentType" : 5126,
            "count" : 1641,
            "type" : "VEC2"
        },
        {
            "bufferView" : 20,
            "componentType" : 5123,
            "count" : 3432,
            "type" : "SCALAR"
        },
        {
            "bufferView" : 21,
            "componentType" : 5126,
            "count" : 4,
            "max" : [
                1,
                0,
                1
            ],
            "min" : [
                -1,
                0,
                -1
            ],
            "type" : "VEC3"
        },
        {
            "bufferView" : 22,
            "componentType" : 5126,
            "count" : 4,
            "type" : "VEC3"
        },
        {
            "bufferView" : 23,
            "componentType" : 5126,
            "count" : 4,
            "type" : "VEC2"
        },
        {
            "bufferView" : 24,
            "componentType" : 5123,
            "count" : 6,
            "type" : "SCALAR"
        }
    ],
    "bufferViews" : [
        {
            "buffer" : 0,
            "byteLength" : 57408,
            "byteOffset" : 0
        },
        {
            "buffer" : 0,
            "byteLength" : 57408,
            "byteOffset" : 57408
        },
        {
            "buffer" : 0,
            "byteLength" : 38272,
            "byteOffset" : 114816
        },
        {
            "buffer" : 0,
            "byteLength" : 10116,
            "byteOffset" : 153088
        },
        {
            "buffer" : 0,
            "byteLength" : 1126,
            "byteOffset" : 163204
        },
        {
            "buffer" : 0,
            "byteLength" : 25260,
            "byteOffset" : 164332
        },
        {
            "buffer" : 0,
            "byteLength" : 25260,
            "byteOffset" : 189592
        },
        {
            "buffer" : 0,
            "byteLength" : 16840,
            "byteOffset" : 214852
        },
        {
            "buffer" : 0,
            "byteLength" : 15552,
            "byteOffset" : 231692
        },
        {
            "buffer" : 0,
            "byteLength" : 2880,
            "byteOffset" : 247244
        },
        {
            "buffer" : 0,
            "byteLength" : 2880,
            "byteOffset" : 250124
        },
        {
            "buffer" : 0,
            "byteLength" : 1920,
            "byteOffset" : 253004
        },
        {
            "buffer" : 0,
            "byteLength" : 708,
            "byteOffset" : 254924
        },
        {
            "buffer" : 0,
            "byteLength" : 2880,
            "byteOffset" : 255632
        },
        {
            "buffer" : 0,
            "byteLength" : 2880,
            "byteOffset" : 258512
        },
        {
            "buffer" : 0,
            "byteLength" : 1920,
            "byteOffset" : 261392
        },
        {
            "buffer" : 0,
            "byteLength" : 708,
            "byteOffset" : 263312
        },
        {
            "buffer" : 0,
            "byteLength" : 19692,
            "byteOffset" : 264020
        },
        {
            "buffer" : 0,
            "byteLength" : 19692,
            "byteOffset" : 283712
        },
        {
            "buffer" : 0,
            "byteLength" : 13128,
            "byteOffset" : 303404
        },
        {
            "buffer" : 0,
            "byteLength" : 6864,
            "byteOffset" : 316532
        },
        {
            "buffer" : 0,
            "byteLength" : 48,
            "byteOffset" : 323396
        },
        {
            "buffer" : 0,
            "byteLength" : 48,
            "byteOffset" : 323444
        },
        {
            "buffer" : 0,
            "byteLength" : 32,
            "byteOffset" : 323492
        },
        {
            "buffer" : 0,
            "byteLength" : 12,
            "byteOffset" : 323524
        }
    ],
    "samplers" : [
        {
            "magFilter" : 9728,
            "minFilter" : 9984
        }
    ],
    "buffers" : [
        {
            "byteLength" : 323536,
            "uri" : "data:application/octet-stream;base64,"
        }
    ]
}
