{
    "asset" : {
        "generator" : "Khronos glTF Blender I/O v1.6.16",
        "version" : "2.0"
    },
    "scene" : 0,
    "scenes" : [
        {
            "name" : "Scene",
            "nodes" : [
                0,
                1,
                2,
                3,
                4,
                5,
                6
            ]
        }
    ],
    "nodes" : [
        {
            "name" : "Light",
            "rotation" : [
                0.16907575726509094,
                0.7558803558349609,
                -0.27217137813568115,
                0.570947527885437
            ],
            "translation" : [
                -14.447766304016113,
                11.978926658630371,
                13.7857666015625
            ]
        },
        {
            "name" : "Camera",
            "rotation" : [
                0.464537650346756,
                -0.39694681763648987,
                0.244964599609375,
                0.7527485489845276
            ],
            "translation" : [
                -25.8811092376709,
                15.107279777526855,
                18.840011596679688
            ]
        },
        {
            "mesh" : 0,
            "name" : "front-right-tire",
            "scale" : [
                0.7230088114738464,
                0.7230088114738464,
                0.7230088114738464
            ]
        },
        {
            "mesh" : 1,
            "name" : "back-left-tire",
            "scale" : [
                0.7230088114738464,
                0.7230088114738464,
                0.7230088114738464
            ]
        },
        {
            "mesh" : 2,
            "name" : "front-left-tire",
            "scale" : [
                0.7230088114738464,
                0.7230088114738464,
                0.7230088114738464
            ]
        },
        {
            "mesh" : 3,
            "name" : "back-right-tire",
            "scale" : [
                0.7230088114738464,
                0.7230088114738464,
                0.7230088114738464
            ]
        },
        {
            "mesh" : 4,
            "name" : "chassis"
        }
    ],
    "materials" : [
        {
            "doubleSided" : true,
            "name" : "Material",
            "pbrMetallicRoughness" : {
                "baseColorTexture" : {
                    "index" : 0
                },
                "metallicFactor" : 0
            }
        }
    ],
    "meshes" : [
        {
            "name" : "Cylinder.001",
            "primitives" : [
                {
                    "attributes" : {
                        "POSITION" : 0,
                        "NORMAL" : 1,
                        "TEXCOORD_0" : 2
                    },
                    "indices" : 3,
                    "material" : 0
                }
            ]
        },
        {
            "name" : "Cylinder.003",
            "primitives" : [
                {
                    "attributes" : {
                        "POSITION" : 4,
                        "NORMAL" : 5,
                        "TEXCOORD_0" : 6
                    },
                    "indices" : 7,
                    "material" : 0
                }
            ]
        },
        {
            "name" : "Cylinder.004",
            "primitives" : [
                {
                    "attributes" : {
                        "POSITION" : 8,
                        "NORMAL" : 9,
                        "TEXCOORD_0" : 10
                    },
                    "indices" : 11,
                    "material" : 0
                }
            ]
        },
        {
            "name" : "Cylinder.002",
            "primitives" : [
                {
                    "attributes" : {
                        "POSITION" : 12,
                        "NORMAL" : 13,
                        "TEXCOORD_0" : 14
                    },
                    "indices" : 15,
                    "material" : 0
                }
            ]
        },
        {
            "name" : "Cube.003",
            "primitives" : [
                {
                    "attributes" : {
                        "POSITION" : 16,
                        "NORMAL" : 17,
                        "TEXCOORD_0" : 18
                    },
                    "indices" : 19,
                    "material" : 0
                }
            ]
        }
    ],
    "textures" : [
        {
            "sampler" : 0,
            "source" : 0
        }
    ],
    "images" : [
        {
            "bufferView" : 4,
            "mimeType" : "image/png",
            "name" : "lowpoly-palette2"
        }
    ],
    "accessors" : [
        {
            "bufferView" : 0,
            "componentType" : 5126,
            "count" : 220,
            "max" : [
                -1.4925689697265625,
                -2.137722969055176,
                4.540060043334961
            ],
            "min" : [
                -2.4592196941375732,
                -4.832898139953613,
                1.976798176765442
            ],
            "type" : "VEC3"
        },
        {
            "bufferView" : 1,
            "componentType" : 5126,
            "count" : 220,
            "type" : "VEC3"
        },
        {
            "bufferView" : 2,
            "componentType" : 5126,
            "count" : 220,
            "type" : "VEC2"
        },
        {
            "bufferView" : 3,
            "componentType" : 5123,
            "count" : 348,
            "type" : "SCALAR"
        },
        {
            "bufferView" : 5,
            "componentType" : 5126,
            "count" : 220,
            "max" : [
                4.033578872680664,
                -0.8705646991729736,
                -1.372138500213623
            ],
            "min" : [
                2.6108720302581787,
                -4.837296485900879,
                -5.144720554351807
            ],
            "type" : "VEC3"
        },
        {
            "bufferView" : 6,
            "componentType" : 5126,
            "count" : 220,
            "type" : "VEC3"
        },
        {
            "bufferView" : 7,
            "componentType" : 5126,
            "count" : 220,
            "type" : "VEC2"
        },
        {
            "bufferView" : 8,
            "componentType" : 5123,
            "count" : 348,
            "type" : "SCALAR"
        },
        {
            "bufferView" : 9,
            "componentType" : 5126,
            "count" : 220,
            "max" : [
                2.8263237476348877,
                -2.137722969055176,
                4.540060043334961
            ],
            "min" : [
                1.8596727848052979,
                -4.832898139953613,
                1.9767979383468628
            ],
            "type" : "VEC3"
        },
        {
            "bufferView" : 10,
            "componentType" : 5126,
            "count" : 220,
            "type" : "VEC3"
        },
        {
            "bufferView" : 11,
            "componentType" : 5126,
            "count" : 220,
            "type" : "VEC2"
        },
        {
            "bufferView" : 12,
            "componentType" : 5123,
            "count" : 348,
            "type" : "SCALAR"
        },
        {
            "bufferView" : 13,
            "componentType" : 5126,
            "count" : 220,
            "max" : [
                -2.2437686920166016,
                -0.8705646991729736,
                -1.3721383810043335
            ],
            "min" : [
                -3.666475772857666,
                -4.837296485900879,
                -5.144720554351807
            ],
            "type" : "VEC3"
        },
        {
            "bufferView" : 14,
            "componentType" : 5126,
            "count" : 220,
            "type" : "VEC3"
        },
        {
            "bufferView" : 15,
            "componentType" : 5126,
            "count" : 220,
            "type" : "VEC2"
        },
        {
            "bufferView" : 16,
            "componentType" : 5123,
            "count" : 348,
            "type" : "SCALAR"
        },
        {
            "bufferView" : 17,
            "componentType" : 5126,
            "count" : 1228,
            "max" : [
                2.713259696960449,
                2.3972716331481934,
                3.908935785293579
            ],
            "min" : [
                -2.713261127471924,
                -2.266122341156006,
                -4.133706569671631
            ],
            "type" : "VEC3"
        },
        {
            "bufferView" : 18,
            "componentType" : 5126,
            "count" : 1228,
            "type" : "VEC3"
        },
        {
            "bufferView" : 19,
            "componentType" : 5126,
            "count" : 1228,
            "type" : "VEC2"
        },
        {
            "bufferView" : 20,
            "componentType" : 5123,
            "count" : 1962,
            "type" : "SCALAR"
        }
    ],
    "bufferViews" : [
        {
            "buffer" : 0,
            "byteLength" : 2640,
            "byteOffset" : 0
        },
        {
            "buffer" : 0,
            "byteLength" : 2640,
            "byteOffset" : 2640
        },
        {
            "buffer" : 0,
            "byteLength" : 1760,
            "byteOffset" : 5280
        },
        {
            "buffer" : 0,
            "byteLength" : 696,
            "byteOffset" : 7040
        },
        {
            "buffer" : 0,
            "byteLength" : 1126,
            "byteOffset" : 7736
        },
        {
            "buffer" : 0,
            "byteLength" : 2640,
            "byteOffset" : 8864
        },
        {
            "buffer" : 0,
            "byteLength" : 2640,
            "byteOffset" : 11504
        },
        {
            "buffer" : 0,
            "byteLength" : 1760,
            "byteOffset" : 14144
        },
        {
            "buffer" : 0,
            "byteLength" : 696,
            "byteOffset" : 15904
        },
        {
            "buffer" : 0,
            "byteLength" : 2640,
            "byteOffset" : 16600
        },
        {
            "buffer" : 0,
            "byteLength" : 2640,
            "byteOffset" : 19240
        },
        {
            "buffer" : 0,
            "byteLength" : 1760,
            "byteOffset" : 21880
        },
        {
            "buffer" : 0,
            "byteLength" : 696,
            "byteOffset" : 23640
        },
        {
            "buffer" : 0,
            "byteLength" : 2640,
            "byteOffset" : 24336
        },
        {
            "buffer" : 0,
            "byteLength" : 2640,
            "byteOffset" : 26976
        },
        {
            "buffer" : 0,
            "byteLength" : 1760,
            "byteOffset" : 29616
        },
        {
            "buffer" : 0,
            "byteLength" : 696,
            "byteOffset" : 31376
        },
        {
            "buffer" : 0,
            "byteLength" : 14736,
            "byteOffset" : 32072
        },
        {
            "buffer" : 0,
            "byteLength" : 14736,
            "byteOffset" : 46808
        },
        {
            "buffer" : 0,
            "byteLength" : 9824,
            "byteOffset" : 61544
        },
        {
            "buffer" : 0,
            "byteLength" : 3924,
            "byteOffset" : 71368
        }
    ],
    "samplers" : [
        {
            "magFilter" : 9728,
            "minFilter" : 9984
        }
    ],
    "buffers" : [
        {
            "byteLength" : 75292,
            "uri" : "data:application/octet-stream;base64,"
        }
    ]
}
