{
    "asset" : {
        "generator" : "Khronos glTF Blender I/O v1.6.16",
        "version" : "2.0"
    },
    "scene" : 0,
    "scenes" : [
        {
            "name" : "Scene",
            "nodes" : [
                0,
                1,
                2,
                3,
                4,
                5,
                6
            ]
        }
    ],
    "nodes" : [
        {
            "name" : "Light",
            "rotation" : [
                0.16907575726509094,
                0.7558803558349609,
                -0.27217137813568115,
                0.570947527885437
            ],
            "translation" : [
                -14.447766304016113,
                11.978926658630371,
                13.7857666015625
            ]
        },
        {
            "name" : "Camera",
            "rotation" : [
                0.464537650346756,
                -0.39694681763648987,
                0.244964599609375,
                0.7527485489845276
            ],
            "translation" : [
                -25.8811092376709,
                15.107279777526855,
                18.840011596679688
            ]
        },
        {
            "mesh" : 0,
            "name" : "red-chassis",
            "rotation" : [
                0,
                -0.70710688829422,
                0,
                -0.7071066498756409
            ],
            "scale" : [
                0.7230088114738464,
                0.7230088114738464,
                0.7230088114738464
            ]
        },
        {
            "mesh" : 1,
            "name" : "front-tire2",
            "rotation" : [
                0,
                -0.70710688829422,
                0,
                -0.7071066498756409
            ],
            "scale" : [
                0.7230088114738464,
                0.7230088114738464,
                0.7230088114738464
            ]
        },
        {
            "mesh" : 2,
            "name" : "back-tire",
            "rotation" : [
                0,
                -0.70710688829422,
                0,
                -0.7071066498756409
            ],
            "scale" : [
                0.7230088114738464,
                0.7230088114738464,
                0.7230088114738464
            ]
        },
        {
            "mesh" : 3,
            "name" : "front-tire",
            "rotation" : [
                0,
                -0.70710688829422,
                0,
                -0.7071066498756409
            ],
            "scale" : [
                0.7230088114738464,
                0.7230088114738464,
                0.7230088114738464
            ]
        },
        {
            "mesh" : 4,
            "name" : "back-tire.001",
            "rotation" : [
                0,
                -0.70710688829422,
                0,
                -0.7071066498756409
            ],
            "scale" : [
                0.7230088114738464,
                0.7230088114738464,
                0.7230088114738464
            ]
        }
    ],
    "materials" : [
        {
            "doubleSided" : true,
            "name" : "Material",
            "pbrMetallicRoughness" : {
                "baseColorTexture" : {
                    "index" : 0
                },
                "metallicFactor" : 0
            }
        }
    ],
    "meshes" : [
        {
            "name" : "Cube",
            "primitives" : [
                {
                    "attributes" : {
                        "POSITION" : 0,
                        "NORMAL" : 1,
                        "TEXCOORD_0" : 2
                    },
                    "indices" : 3,
                    "material" : 0
                }
            ]
        },
        {
            "name" : "Cylinder.001",
            "primitives" : [
                {
                    "attributes" : {
                        "POSITION" : 4,
                        "NORMAL" : 5,
                        "TEXCOORD_0" : 6
                    },
                    "indices" : 7,
                    "material" : 0
                }
            ]
        },
        {
            "name" : "Cylinder.003",
            "primitives" : [
                {
                    "attributes" : {
                        "POSITION" : 8,
                        "NORMAL" : 9,
                        "TEXCOORD_0" : 10
                    },
                    "indices" : 11,
                    "material" : 0
                }
            ]
        },
        {
            "name" : "Cylinder.004",
            "primitives" : [
                {
                    "attributes" : {
                        "POSITION" : 12,
                        "NORMAL" : 13,
                        "TEXCOORD_0" : 14
                    },
                    "indices" : 15,
                    "material" : 0
                }
            ]
        },
        {
            "name" : "Cylinder.002",
            "primitives" : [
                {
                    "attributes" : {
                        "POSITION" : 16,
                        "NORMAL" : 17,
                        "TEXCOORD_0" : 18
                    },
                    "indices" : 19,
                    "material" : 0
                }
            ]
        }
    ],
    "textures" : [
        {
            "sampler" : 0,
            "source" : 0
        }
    ],
    "images" : [
        {
            "bufferView" : 4,
            "mimeType" : "image/png",
            "name" : "lowpoly-palette2"
        }
    ],
    "accessors" : [
        {
            "bufferView" : 0,
            "componentType" : 5126,
            "count" : 1256,
            "max" : [
                5.717364311218262,
                3.315688133239746,
                3.7527332305908203
            ],
            "min" : [
                -5.541690826416016,
                -3.198704957962036,
                -3.7527332305908203
            ],
            "type" : "VEC3"
        },
        {
            "bufferView" : 1,
            "componentType" : 5126,
            "count" : 1256,
            "type" : "VEC3"
        },
        {
            "bufferView" : 2,
            "componentType" : 5126,
            "count" : 1256,
            "type" : "VEC2"
        },
        {
            "bufferView" : 3,
            "componentType" : 5123,
            "count" : 2112,
            "type" : "SCALAR"
        },
        {
            "bufferView" : 5,
            "componentType" : 5126,
            "count" : 200,
            "max" : [
                -1.7932465076446533,
                -2.1377227306365967,
                -1.6761208772659302
            ],
            "min" : [
                -4.356508255004883,
                -4.8328986167907715,
                -2.6427714824676514
            ],
            "type" : "VEC3"
        },
        {
            "bufferView" : 6,
            "componentType" : 5126,
            "count" : 200,
            "type" : "VEC3"
        },
        {
            "bufferView" : 7,
            "componentType" : 5126,
            "count" : 200,
            "type" : "VEC2"
        },
        {
            "bufferView" : 8,
            "componentType" : 5123,
            "count" : 348,
            "type" : "SCALAR"
        },
        {
            "bufferView" : 9,
            "componentType" : 5126,
            "count" : 206,
            "max" : [
                5.328272342681885,
                -0.8705644607543945,
                3.850027084350586
            ],
            "min" : [
                1.555690050125122,
                -4.837296962738037,
                2.4273204803466797
            ],
            "type" : "VEC3"
        },
        {
            "bufferView" : 10,
            "componentType" : 5126,
            "count" : 206,
            "type" : "VEC3"
        },
        {
            "bufferView" : 11,
            "componentType" : 5126,
            "count" : 206,
            "type" : "VEC2"
        },
        {
            "bufferView" : 12,
            "componentType" : 5123,
            "count" : 348,
            "type" : "SCALAR"
        },
        {
            "bufferView" : 13,
            "componentType" : 5126,
            "count" : 204,
            "max" : [
                -1.7932465076446533,
                -2.1377227306365967,
                2.6427714824676514
            ],
            "min" : [
                -4.356508255004883,
                -4.8328986167907715,
                1.6761208772659302
            ],
            "type" : "VEC3"
        },
        {
            "bufferView" : 14,
            "componentType" : 5126,
            "count" : 204,
            "type" : "VEC3"
        },
        {
            "bufferView" : 15,
            "componentType" : 5126,
            "count" : 204,
            "type" : "VEC2"
        },
        {
            "bufferView" : 16,
            "componentType" : 5123,
            "count" : 348,
            "type" : "SCALAR"
        },
        {
            "bufferView" : 17,
            "componentType" : 5126,
            "count" : 204,
            "max" : [
                5.328272342681885,
                -0.8705644607543945,
                -2.4273204803466797
            ],
            "min" : [
                1.555690050125122,
                -4.837296962738037,
                -3.850027084350586
            ],
            "type" : "VEC3"
        },
        {
            "bufferView" : 18,
            "componentType" : 5126,
            "count" : 204,
            "type" : "VEC3"
        },
        {
            "bufferView" : 19,
            "componentType" : 5126,
            "count" : 204,
            "type" : "VEC2"
        },
        {
            "bufferView" : 20,
            "componentType" : 5123,
            "count" : 348,
            "type" : "SCALAR"
        }
    ],
    "bufferViews" : [
        {
            "buffer" : 0,
            "byteLength" : 15072,
            "byteOffset" : 0
        },
        {
            "buffer" : 0,
            "byteLength" : 15072,
            "byteOffset" : 15072
        },
        {
            "buffer" : 0,
            "byteLength" : 10048,
            "byteOffset" : 30144
        },
        {
            "buffer" : 0,
            "byteLength" : 4224,
            "byteOffset" : 40192
        },
        {
            "buffer" : 0,
            "byteLength" : 1126,
            "byteOffset" : 44416
        },
        {
            "buffer" : 0,
            "byteLength" : 2400,
            "byteOffset" : 45544
        },
        {
            "buffer" : 0,
            "byteLength" : 2400,
            "byteOffset" : 47944
        },
        {
            "buffer" : 0,
            "byteLength" : 1600,
            "byteOffset" : 50344
        },
        {
            "buffer" : 0,
            "byteLength" : 696,
            "byteOffset" : 51944
        },
        {
            "buffer" : 0,
            "byteLength" : 2472,
            "byteOffset" : 52640
        },
        {
            "buffer" : 0,
            "byteLength" : 2472,
            "byteOffset" : 55112
        },
        {
            "buffer" : 0,
            "byteLength" : 1648,
            "byteOffset" : 57584
        },
        {
            "buffer" : 0,
            "byteLength" : 696,
            "byteOffset" : 59232
        },
        {
            "buffer" : 0,
            "byteLength" : 2448,
            "byteOffset" : 59928
        },
        {
            "buffer" : 0,
            "byteLength" : 2448,
            "byteOffset" : 62376
        },
        {
            "buffer" : 0,
            "byteLength" : 1632,
            "byteOffset" : 64824
        },
        {
            "buffer" : 0,
            "byteLength" : 696,
            "byteOffset" : 66456
        },
        {
            "buffer" : 0,
            "byteLength" : 2448,
            "byteOffset" : 67152
        },
        {
            "buffer" : 0,
            "byteLength" : 2448,
            "byteOffset" : 69600
        },
        {
            "buffer" : 0,
            "byteLength" : 1632,
            "byteOffset" : 72048
        },
        {
            "buffer" : 0,
            "byteLength" : 696,
            "byteOffset" : 73680
        }
    ],
    "samplers" : [
        {
            "magFilter" : 9728,
            "minFilter" : 9984
        }
    ],
    "buffers" : [
        {
            "byteLength" : 74376,
            "uri" : "data:application/octet-stream;base64,"
        }
    ]
}
