{
    "asset" : {
        "generator" : "Khronos glTF Blender I/O v1.6.16",
        "version" : "2.0"
    },
    "scene" : 0,
    "scenes" : [
        {
            "name" : "Scene",
            "nodes" : [
                0,
                1,
                2,
                3,
                4
            ]
        }
    ],
    "nodes" : [
        {
            "mesh" : 0,
            "name" : "chassis",
            "scale" : [
                0.6317787170410156,
                0.6317787170410156,
                0.6317787170410156
            ]
        },
        {
            "mesh" : 1,
            "name" : "tire",
            "scale" : [
                0.6317787170410156,
                0.6317787170410156,
                0.6317787170410156
            ]
        },
        {
            "mesh" : 2,
            "name" : "tire2",
            "scale" : [
                0.6317787170410156,
                0.6317787170410156,
                0.6317787170410156
            ]
        },
        {
            "mesh" : 3,
            "name" : "tire3",
            "scale" : [
                0.6317780613899231,
                0.6317787170410156,
                0.6317787170410156
            ],
            "translation" : [
                0,
                0,
                0.9788824915885925
            ]
        },
        {
            "mesh" : 4,
            "name" : "tire4",
            "scale" : [
                0.6317787170410156,
                0.6317787170410156,
                0.6317787170410156
            ]
        }
    ],
    "materials" : [
        {
            "doubleSided" : true,
            "name" : "Material.002",
            "pbrMetallicRoughness" : {
                "baseColorTexture" : {
                    "index" : 0
                },
                "metallicFactor" : 0,
                "roughnessFactor" : 0.5
            }
        }
    ],
    "meshes" : [
        {
            "name" : "Cube.005",
            "primitives" : [
                {
                    "attributes" : {
                        "POSITION" : 0,
                        "NORMAL" : 1,
                        "TEXCOORD_0" : 2
                    },
                    "indices" : 3,
                    "material" : 0
                }
            ]
        },
        {
            "name" : "Cube.011",
            "primitives" : [
                {
                    "attributes" : {
                        "POSITION" : 4,
                        "NORMAL" : 5,
                        "TEXCOORD_0" : 6
                    },
                    "indices" : 7,
                    "material" : 0
                }
            ]
        },
        {
            "name" : "Cube.012",
            "primitives" : [
                {
                    "attributes" : {
                        "POSITION" : 8,
                        "NORMAL" : 9,
                        "TEXCOORD_0" : 10
                    },
                    "indices" : 11,
                    "material" : 0
                }
            ]
        },
        {
            "name" : "Cube.010",
            "primitives" : [
                {
                    "attributes" : {
                        "POSITION" : 12,
                        "NORMAL" : 13,
                        "TEXCOORD_0" : 14
                    },
                    "indices" : 15,
                    "material" : 0
                }
            ]
        },
        {
            "name" : "Cube.009",
            "primitives" : [
                {
                    "attributes" : {
                        "POSITION" : 16,
                        "NORMAL" : 17,
                        "TEXCOORD_0" : 18
                    },
                    "indices" : 19,
                    "material" : 0
                }
            ]
        }
    ],
    "textures" : [
        {
            "sampler" : 0,
            "source" : 0
        }
    ],
    "images" : [
        {
            "bufferView" : 4,
            "mimeType" : "image/png",
            "name" : "lowpoly-palette2"
        }
    ],
    "accessors" : [
        {
            "bufferView" : 0,
            "componentType" : 5126,
            "count" : 834,
            "max" : [
                2.0656707286834717,
                0.7914226651191711,
                2.849022388458252
            ],
            "min" : [
                -2.0656707286834717,
                -2.026660442352295,
                -4.387959957122803
            ],
            "type" : "VEC3"
        },
        {
            "bufferView" : 1,
            "componentType" : 5126,
            "count" : 834,
            "type" : "VEC3"
        },
        {
            "bufferView" : 2,
            "componentType" : 5126,
            "count" : 834,
            "type" : "VEC2"
        },
        {
            "bufferView" : 3,
            "componentType" : 5123,
            "count" : 1194,
            "type" : "SCALAR"
        },
        {
            "bufferView" : 5,
            "componentType" : 5126,
            "count" : 408,
            "max" : [
                -1.1446712017059326,
                -1.3354471921920776,
                -2.863121509552002
            ],
            "min" : [
                -1.7675657272338867,
                -2.2631139755249023,
                -3.8385281562805176
            ],
            "type" : "VEC3"
        },
        {
            "bufferView" : 6,
            "componentType" : 5126,
            "count" : 408,
            "type" : "VEC3"
        },
        {
            "bufferView" : 7,
            "componentType" : 5126,
            "count" : 408,
            "type" : "VEC2"
        },
        {
            "bufferView" : 8,
            "componentType" : 5123,
            "count" : 468,
            "type" : "SCALAR"
        },
        {
            "bufferView" : 9,
            "componentType" : 5126,
            "count" : 424,
            "max" : [
                -1.1446712017059326,
                -1.3354471921920776,
                0.35472339391708374
            ],
            "min" : [
                -1.7675657272338867,
                -2.2631139755249023,
                -0.6206832528114319
            ],
            "type" : "VEC3"
        },
        {
            "bufferView" : 10,
            "componentType" : 5126,
            "count" : 424,
            "type" : "VEC3"
        },
        {
            "bufferView" : 11,
            "componentType" : 5126,
            "count" : 424,
            "type" : "VEC2"
        },
        {
            "bufferView" : 12,
            "componentType" : 5123,
            "count" : 468,
            "type" : "SCALAR"
        },
        {
            "bufferView" : 13,
            "componentType" : 5126,
            "count" : 419,
            "max" : [
                1.7675657272338867,
                -1.3354471921920776,
                0.35472339391708374
            ],
            "min" : [
                1.1446712017059326,
                -2.2631139755249023,
                -0.6206832528114319
            ],
            "type" : "VEC3"
        },
        {
            "bufferView" : 14,
            "componentType" : 5126,
            "count" : 419,
            "type" : "VEC3"
        },
        {
            "bufferView" : 15,
            "componentType" : 5126,
            "count" : 419,
            "type" : "VEC2"
        },
        {
            "bufferView" : 16,
            "componentType" : 5123,
            "count" : 468,
            "type" : "SCALAR"
        },
        {
            "bufferView" : 17,
            "componentType" : 5126,
            "count" : 404,
            "max" : [
                1.7675657272338867,
                -1.3354471921920776,
                -2.863121509552002
            ],
            "min" : [
                1.1446712017059326,
                -2.2631139755249023,
                -3.8385281562805176
            ],
            "type" : "VEC3"
        },
        {
            "bufferView" : 18,
            "componentType" : 5126,
            "count" : 404,
            "type" : "VEC3"
        },
        {
            "bufferView" : 19,
            "componentType" : 5126,
            "count" : 404,
            "type" : "VEC2"
        },
        {
            "bufferView" : 20,
            "componentType" : 5123,
            "count" : 468,
            "type" : "SCALAR"
        }
    ],
    "bufferViews" : [
        {
            "buffer" : 0,
            "byteLength" : 10008,
            "byteOffset" : 0
        },
        {
            "buffer" : 0,
            "byteLength" : 10008,
            "byteOffset" : 10008
        },
        {
            "buffer" : 0,
            "byteLength" : 6672,
            "byteOffset" : 20016
        },
        {
            "buffer" : 0,
            "byteLength" : 2388,
            "byteOffset" : 26688
        },
        {
            "buffer" : 0,
            "byteLength" : 1126,
            "byteOffset" : 29076
        },
        {
            "buffer" : 0,
            "byteLength" : 4896,
            "byteOffset" : 30204
        },
        {
            "buffer" : 0,
            "byteLength" : 4896,
            "byteOffset" : 35100
        },
        {
            "buffer" : 0,
            "byteLength" : 3264,
            "byteOffset" : 39996
        },
        {
            "buffer" : 0,
            "byteLength" : 936,
            "byteOffset" : 43260
        },
        {
            "buffer" : 0,
            "byteLength" : 5088,
            "byteOffset" : 44196
        },
        {
            "buffer" : 0,
            "byteLength" : 5088,
            "byteOffset" : 49284
        },
        {
            "buffer" : 0,
            "byteLength" : 3392,
            "byteOffset" : 54372
        },
        {
            "buffer" : 0,
            "byteLength" : 936,
            "byteOffset" : 57764
        },
        {
            "buffer" : 0,
            "byteLength" : 5028,
            "byteOffset" : 58700
        },
        {
            "buffer" : 0,
            "byteLength" : 5028,
            "byteOffset" : 63728
        },
        {
            "buffer" : 0,
            "byteLength" : 3352,
            "byteOffset" : 68756
        },
        {
            "buffer" : 0,
            "byteLength" : 936,
            "byteOffset" : 72108
        },
        {
            "buffer" : 0,
            "byteLength" : 4848,
            "byteOffset" : 73044
        },
        {
            "buffer" : 0,
            "byteLength" : 4848,
            "byteOffset" : 77892
        },
        {
            "buffer" : 0,
            "byteLength" : 3232,
            "byteOffset" : 82740
        },
        {
            "buffer" : 0,
            "byteLength" : 936,
            "byteOffset" : 85972
        }
    ],
    "samplers" : [
        {
            "magFilter" : 9728,
            "minFilter" : 9984
        }
    ],
    "buffers" : [
        {
            "byteLength" : 86908,
            "uri" : "data:application/octet-stream;base64,"
        }
    ]
}
