{
    "asset" : {
        "generator" : "Khronos glTF Blender I/O v1.6.16",
        "version" : "2.0"
    },
    "scene" : 0,
    "scenes" : [
        {
            "name" : "Scene",
            "nodes" : [
                0,
                1,
                2,
                3,
                4
            ]
        }
    ],
    "nodes" : [
        {
            "mesh" : 0,
            "name" : "tire",
            "scale" : [
                0.6317787170410156,
                0.6317787170410156,
                0.6317787170410156
            ]
        },
        {
            "mesh" : 1,
            "name" : "tire2",
            "scale" : [
                0.6317787170410156,
                0.6317787170410156,
                0.6317787170410156
            ]
        },
        {
            "mesh" : 2,
            "name" : "tire3",
            "scale" : [
                0.6317780613899231,
                0.6317787170410156,
                0.6317787170410156
            ],
            "translation" : [
                0,
                0,
                0.9788824915885925
            ]
        },
        {
            "mesh" : 3,
            "name" : "tire4",
            "scale" : [
                0.6317787170410156,
                0.6317787170410156,
                0.6317787170410156
            ]
        },
        {
            "mesh" : 4,
            "name" : "chassis-body",
            "scale" : [
                0.6317787170410156,
                0.6317787170410156,
                0.6317787170410156
            ]
        }
    ],
    "materials" : [
        {
            "doubleSided" : true,
            "name" : "Material.002",
            "pbrMetallicRoughness" : {
                "baseColorTexture" : {
                    "index" : 0
                },
                "metallicFactor" : 0
            }
        }
    ],
    "meshes" : [
        {
            "name" : "Cube.011",
            "primitives" : [
                {
                    "attributes" : {
                        "POSITION" : 0,
                        "NORMAL" : 1,
                        "TEXCOORD_0" : 2
                    },
                    "indices" : 3,
                    "material" : 0
                }
            ]
        },
        {
            "name" : "Cube.012",
            "primitives" : [
                {
                    "attributes" : {
                        "POSITION" : 4,
                        "NORMAL" : 5,
                        "TEXCOORD_0" : 6
                    },
                    "indices" : 7,
                    "material" : 0
                }
            ]
        },
        {
            "name" : "Cube.010",
            "primitives" : [
                {
                    "attributes" : {
                        "POSITION" : 8,
                        "NORMAL" : 9,
                        "TEXCOORD_0" : 10
                    },
                    "indices" : 11,
                    "material" : 0
                }
            ]
        },
        {
            "name" : "Cube.009",
            "primitives" : [
                {
                    "attributes" : {
                        "POSITION" : 12,
                        "NORMAL" : 13,
                        "TEXCOORD_0" : 14
                    },
                    "indices" : 15,
                    "material" : 0
                }
            ]
        },
        {
            "name" : "Cube.001",
            "primitives" : [
                {
                    "attributes" : {
                        "POSITION" : 16,
                        "NORMAL" : 17,
                        "TEXCOORD_0" : 18
                    },
                    "indices" : 19,
                    "material" : 0
                }
            ]
        }
    ],
    "textures" : [
        {
            "sampler" : 0,
            "source" : 0
        }
    ],
    "images" : [
        {
            "bufferView" : 4,
            "mimeType" : "image/png",
            "name" : "lowpoly-palette2"
        }
    ],
    "accessors" : [
        {
            "bufferView" : 0,
            "componentType" : 5126,
            "count" : 424,
            "max" : [
                -1.1446712017059326,
                -1.3354471921920776,
                -2.863121509552002
            ],
            "min" : [
                -1.7675657272338867,
                -2.2631139755249023,
                -3.8385281562805176
            ],
            "type" : "VEC3"
        },
        {
            "bufferView" : 1,
            "componentType" : 5126,
            "count" : 424,
            "type" : "VEC3"
        },
        {
            "bufferView" : 2,
            "componentType" : 5126,
            "count" : 424,
            "type" : "VEC2"
        },
        {
            "bufferView" : 3,
            "componentType" : 5123,
            "count" : 468,
            "type" : "SCALAR"
        },
        {
            "bufferView" : 5,
            "componentType" : 5126,
            "count" : 438,
            "max" : [
                -1.1446712017059326,
                -1.3354471921920776,
                1.9152424335479736
            ],
            "min" : [
                -1.7675657272338867,
                -2.2631139755249023,
                0.9398358464241028
            ],
            "type" : "VEC3"
        },
        {
            "bufferView" : 6,
            "componentType" : 5126,
            "count" : 438,
            "type" : "VEC3"
        },
        {
            "bufferView" : 7,
            "componentType" : 5126,
            "count" : 438,
            "type" : "VEC2"
        },
        {
            "bufferView" : 8,
            "componentType" : 5123,
            "count" : 468,
            "type" : "SCALAR"
        },
        {
            "bufferView" : 9,
            "componentType" : 5126,
            "count" : 431,
            "max" : [
                1.7675657272338867,
                -1.3354471921920776,
                0.35472339391708374
            ],
            "min" : [
                1.1446712017059326,
                -2.2631139755249023,
                -0.6206832528114319
            ],
            "type" : "VEC3"
        },
        {
            "bufferView" : 10,
            "componentType" : 5126,
            "count" : 431,
            "type" : "VEC3"
        },
        {
            "bufferView" : 11,
            "componentType" : 5126,
            "count" : 431,
            "type" : "VEC2"
        },
        {
            "bufferView" : 12,
            "componentType" : 5123,
            "count" : 468,
            "type" : "SCALAR"
        },
        {
            "bufferView" : 13,
            "componentType" : 5126,
            "count" : 420,
            "max" : [
                1.7675657272338867,
                -1.3354471921920776,
                -2.863121509552002
            ],
            "min" : [
                1.1446712017059326,
                -2.2631139755249023,
                -3.8385281562805176
            ],
            "type" : "VEC3"
        },
        {
            "bufferView" : 14,
            "componentType" : 5126,
            "count" : 420,
            "type" : "VEC3"
        },
        {
            "bufferView" : 15,
            "componentType" : 5126,
            "count" : 420,
            "type" : "VEC2"
        },
        {
            "bufferView" : 16,
            "componentType" : 5123,
            "count" : 468,
            "type" : "SCALAR"
        },
        {
            "bufferView" : 17,
            "componentType" : 5126,
            "count" : 531,
            "max" : [
                1.5351059436798096,
                0.7914226651191711,
                2.7779431343078613
            ],
            "min" : [
                -1.5351059436798096,
                -1.826918363571167,
                -4.387959957122803
            ],
            "type" : "VEC3"
        },
        {
            "bufferView" : 18,
            "componentType" : 5126,
            "count" : 531,
            "type" : "VEC3"
        },
        {
            "bufferView" : 19,
            "componentType" : 5126,
            "count" : 531,
            "type" : "VEC2"
        },
        {
            "bufferView" : 20,
            "componentType" : 5123,
            "count" : 666,
            "type" : "SCALAR"
        }
    ],
    "bufferViews" : [
        {
            "buffer" : 0,
            "byteLength" : 5088,
            "byteOffset" : 0
        },
        {
            "buffer" : 0,
            "byteLength" : 5088,
            "byteOffset" : 5088
        },
        {
            "buffer" : 0,
            "byteLength" : 3392,
            "byteOffset" : 10176
        },
        {
            "buffer" : 0,
            "byteLength" : 936,
            "byteOffset" : 13568
        },
        {
            "buffer" : 0,
            "byteLength" : 1126,
            "byteOffset" : 14504
        },
        {
            "buffer" : 0,
            "byteLength" : 5256,
            "byteOffset" : 15632
        },
        {
            "buffer" : 0,
            "byteLength" : 5256,
            "byteOffset" : 20888
        },
        {
            "buffer" : 0,
            "byteLength" : 3504,
            "byteOffset" : 26144
        },
        {
            "buffer" : 0,
            "byteLength" : 936,
            "byteOffset" : 29648
        },
        {
            "buffer" : 0,
            "byteLength" : 5172,
            "byteOffset" : 30584
        },
        {
            "buffer" : 0,
            "byteLength" : 5172,
            "byteOffset" : 35756
        },
        {
            "buffer" : 0,
            "byteLength" : 3448,
            "byteOffset" : 40928
        },
        {
            "buffer" : 0,
            "byteLength" : 936,
            "byteOffset" : 44376
        },
        {
            "buffer" : 0,
            "byteLength" : 5040,
            "byteOffset" : 45312
        },
        {
            "buffer" : 0,
            "byteLength" : 5040,
            "byteOffset" : 50352
        },
        {
            "buffer" : 0,
            "byteLength" : 3360,
            "byteOffset" : 55392
        },
        {
            "buffer" : 0,
            "byteLength" : 936,
            "byteOffset" : 58752
        },
        {
            "buffer" : 0,
            "byteLength" : 6372,
            "byteOffset" : 59688
        },
        {
            "buffer" : 0,
            "byteLength" : 6372,
            "byteOffset" : 66060
        },
        {
            "buffer" : 0,
            "byteLength" : 4248,
            "byteOffset" : 72432
        },
        {
            "buffer" : 0,
            "byteLength" : 1332,
            "byteOffset" : 76680
        }
    ],
    "samplers" : [
        {
            "magFilter" : 9728,
            "minFilter" : 9984
        }
    ],
    "buffers" : [
        {
            "byteLength" : 78012,
            "uri" : "data:application/octet-stream;base64,"
        }
    ]
}
