{
    "asset" : {
        "generator" : "Khronos glTF Blender I/O v1.6.16",
        "version" : "2.0"
    },
    "scene" : 0,
    "scenes" : [
        {
            "name" : "Scene",
            "nodes" : [
                0,
                1,
                2,
                3,
                4,
                5,
                6,
                7
            ]
        }
    ],
    "nodes" : [
        {
            "mesh" : 0,
            "name" : "tire",
            "scale" : [
                0.6317787170410156,
                0.6317787170410156,
                0.6317787170410156
            ]
        },
        {
            "mesh" : 1,
            "name" : "tire2",
            "scale" : [
                0.6317787170410156,
                0.6317787170410156,
                0.6317787170410156
            ]
        },
        {
            "mesh" : 2,
            "name" : "tire3",
            "scale" : [
                0.6317780613899231,
                0.6317787170410156,
                0.6317787170410156
            ],
            "translation" : [
                0,
                0,
                0.9788824915885925
            ]
        },
        {
            "mesh" : 3,
            "name" : "tire4",
            "scale" : [
                0.6317787170410156,
                0.6317787170410156,
                0.6317787170410156
            ]
        },
        {
            "mesh" : 4,
            "name" : "green-chassis",
            "scale" : [
                0.6317787170410156,
                0.6317787170410156,
                0.6317787170410156
            ]
        },
        {
            "mesh" : 5,
            "name" : "pink-chassis",
            "scale" : [
                0.6317787170410156,
                0.6317787170410156,
                0.6317787170410156
            ],
            "translation" : [
                3.599693775177002,
                0,
                0.054130733013153076
            ]
        },
        {
            "mesh" : 6,
            "name" : "orange-chassis",
            "scale" : [
                0.6317787170410156,
                0.6317787170410156,
                0.6317787170410156
            ],
            "translation" : [
                7.016519546508789,
                0.16363120079040527,
                -0.08936065435409546
            ]
        },
        {
            "mesh" : 7,
            "name" : "blue-chassis",
            "scale" : [
                0.6317787170410156,
                0.6317787170410156,
                0.6317787170410156
            ],
            "translation" : [
                10.463054656982422,
                0.33004188537597656,
                -0.2306165099143982
            ]
        }
    ],
    "materials" : [
        {
            "doubleSided" : true,
            "name" : "Material.002",
            "pbrMetallicRoughness" : {
                "baseColorTexture" : {
                    "index" : 0
                },
                "metallicFactor" : 0,
                "roughnessFactor" : 0.5
            }
        }
    ],
    "meshes" : [
        {
            "name" : "Cube.011",
            "primitives" : [
                {
                    "attributes" : {
                        "POSITION" : 0,
                        "NORMAL" : 1,
                        "TEXCOORD_0" : 2
                    },
                    "indices" : 3,
                    "material" : 0
                }
            ]
        },
        {
            "name" : "Cube.012",
            "primitives" : [
                {
                    "attributes" : {
                        "POSITION" : 4,
                        "NORMAL" : 5,
                        "TEXCOORD_0" : 6
                    },
                    "indices" : 7,
                    "material" : 0
                }
            ]
        },
        {
            "name" : "Cube.010",
            "primitives" : [
                {
                    "attributes" : {
                        "POSITION" : 8,
                        "NORMAL" : 9,
                        "TEXCOORD_0" : 10
                    },
                    "indices" : 11,
                    "material" : 0
                }
            ]
        },
        {
            "name" : "Cube.009",
            "primitives" : [
                {
                    "attributes" : {
                        "POSITION" : 12,
                        "NORMAL" : 13,
                        "TEXCOORD_0" : 14
                    },
                    "indices" : 15,
                    "material" : 0
                }
            ]
        },
        {
            "name" : "Cube.001",
            "primitives" : [
                {
                    "attributes" : {
                        "POSITION" : 16,
                        "NORMAL" : 17,
                        "TEXCOORD_0" : 18
                    },
                    "indices" : 19,
                    "material" : 0
                }
            ]
        },
        {
            "name" : "Cube.002",
            "primitives" : [
                {
                    "attributes" : {
                        "POSITION" : 20,
                        "NORMAL" : 21,
                        "TEXCOORD_0" : 22
                    },
                    "indices" : 19,
                    "material" : 0
                }
            ]
        },
        {
            "name" : "Cube.003",
            "primitives" : [
                {
                    "attributes" : {
                        "POSITION" : 23,
                        "NORMAL" : 24,
                        "TEXCOORD_0" : 25
                    },
                    "indices" : 19,
                    "material" : 0
                }
            ]
        },
        {
            "name" : "Cube.004",
            "primitives" : [
                {
                    "attributes" : {
                        "POSITION" : 26,
                        "NORMAL" : 27,
                        "TEXCOORD_0" : 28
                    },
                    "indices" : 19,
                    "material" : 0
                }
            ]
        }
    ],
    "textures" : [
        {
            "sampler" : 0,
            "source" : 0
        }
    ],
    "images" : [
        {
            "bufferView" : 4,
            "mimeType" : "image/png",
            "name" : "lowpoly-palette2"
        }
    ],
    "accessors" : [
        {
            "bufferView" : 0,
            "componentType" : 5126,
            "count" : 393,
            "max" : [
                -1.1446712017059326,
                -1.3354471921920776,
                -2.863121509552002
            ],
            "min" : [
                -1.7675657272338867,
                -2.2631139755249023,
                -3.8385281562805176
            ],
            "type" : "VEC3"
        },
        {
            "bufferView" : 1,
            "componentType" : 5126,
            "count" : 393,
            "type" : "VEC3"
        },
        {
            "bufferView" : 2,
            "componentType" : 5126,
            "count" : 393,
            "type" : "VEC2"
        },
        {
            "bufferView" : 3,
            "componentType" : 5123,
            "count" : 468,
            "type" : "SCALAR"
        },
        {
            "bufferView" : 5,
            "componentType" : 5126,
            "count" : 405,
            "max" : [
                -1.1446712017059326,
                -1.3354471921920776,
                0.35472339391708374
            ],
            "min" : [
                -1.7675657272338867,
                -2.2631139755249023,
                -0.6206832528114319
            ],
            "type" : "VEC3"
        },
        {
            "bufferView" : 6,
            "componentType" : 5126,
            "count" : 405,
            "type" : "VEC3"
        },
        {
            "bufferView" : 7,
            "componentType" : 5126,
            "count" : 405,
            "type" : "VEC2"
        },
        {
            "bufferView" : 8,
            "componentType" : 5123,
            "count" : 468,
            "type" : "SCALAR"
        },
        {
            "bufferView" : 9,
            "componentType" : 5126,
            "count" : 402,
            "max" : [
                1.7675657272338867,
                -1.3354471921920776,
                0.35472339391708374
            ],
            "min" : [
                1.1446712017059326,
                -2.2631139755249023,
                -0.6206832528114319
            ],
            "type" : "VEC3"
        },
        {
            "bufferView" : 10,
            "componentType" : 5126,
            "count" : 402,
            "type" : "VEC3"
        },
        {
            "bufferView" : 11,
            "componentType" : 5126,
            "count" : 402,
            "type" : "VEC2"
        },
        {
            "bufferView" : 12,
            "componentType" : 5123,
            "count" : 468,
            "type" : "SCALAR"
        },
        {
            "bufferView" : 13,
            "componentType" : 5126,
            "count" : 389,
            "max" : [
                1.7675657272338867,
                -1.3354471921920776,
                -2.863121509552002
            ],
            "min" : [
                1.1446712017059326,
                -2.2631139755249023,
                -3.8385281562805176
            ],
            "type" : "VEC3"
        },
        {
            "bufferView" : 14,
            "componentType" : 5126,
            "count" : 389,
            "type" : "VEC3"
        },
        {
            "bufferView" : 15,
            "componentType" : 5126,
            "count" : 389,
            "type" : "VEC2"
        },
        {
            "bufferView" : 16,
            "componentType" : 5123,
            "count" : 468,
            "type" : "SCALAR"
        },
        {
            "bufferView" : 17,
            "componentType" : 5126,
            "count" : 822,
            "max" : [
                2.0656704902648926,
                0.7914226055145264,
                2.849022388458252
            ],
            "min" : [
                -2.0656704902648926,
                -2.026660203933716,
                -4.3879594802856445
            ],
            "type" : "VEC3"
        },
        {
            "bufferView" : 18,
            "componentType" : 5126,
            "count" : 822,
            "type" : "VEC3"
        },
        {
            "bufferView" : 19,
            "componentType" : 5126,
            "count" : 822,
            "type" : "VEC2"
        },
        {
            "bufferView" : 20,
            "componentType" : 5123,
            "count" : 1188,
            "type" : "SCALAR"
        },
        {
            "bufferView" : 21,
            "componentType" : 5126,
            "count" : 822,
            "max" : [
                2.0656704902648926,
                0.7914226055145264,
                2.849022388458252
            ],
            "min" : [
                -2.0656704902648926,
                -2.026660203933716,
                -4.3879594802856445
            ],
            "type" : "VEC3"
        },
        {
            "bufferView" : 22,
            "componentType" : 5126,
            "count" : 822,
            "type" : "VEC3"
        },
        {
            "bufferView" : 23,
            "componentType" : 5126,
            "count" : 822,
            "type" : "VEC2"
        },
        {
            "bufferView" : 24,
            "componentType" : 5126,
            "count" : 822,
            "max" : [
                2.0656704902648926,
                0.7914226055145264,
                2.849022388458252
            ],
            "min" : [
                -2.0656704902648926,
                -2.026660203933716,
                -4.3879594802856445
            ],
            "type" : "VEC3"
        },
        {
            "bufferView" : 25,
            "componentType" : 5126,
            "count" : 822,
            "type" : "VEC3"
        },
        {
            "bufferView" : 26,
            "componentType" : 5126,
            "count" : 822,
            "type" : "VEC2"
        },
        {
            "bufferView" : 27,
            "componentType" : 5126,
            "count" : 822,
            "max" : [
                2.0656704902648926,
                0.7914226055145264,
                2.849022388458252
            ],
            "min" : [
                -2.0656704902648926,
                -2.026660203933716,
                -4.3879594802856445
            ],
            "type" : "VEC3"
        },
        {
            "bufferView" : 28,
            "componentType" : 5126,
            "count" : 822,
            "type" : "VEC3"
        },
        {
            "bufferView" : 29,
            "componentType" : 5126,
            "count" : 822,
            "type" : "VEC2"
        }
    ],
    "bufferViews" : [
        {
            "buffer" : 0,
            "byteLength" : 4716,
            "byteOffset" : 0
        },
        {
            "buffer" : 0,
            "byteLength" : 4716,
            "byteOffset" : 4716
        },
        {
            "buffer" : 0,
            "byteLength" : 3144,
            "byteOffset" : 9432
        },
        {
            "buffer" : 0,
            "byteLength" : 936,
            "byteOffset" : 12576
        },
        {
            "buffer" : 0,
            "byteLength" : 1126,
            "byteOffset" : 13512
        },
        {
            "buffer" : 0,
            "byteLength" : 4860,
            "byteOffset" : 14640
        },
        {
            "buffer" : 0,
            "byteLength" : 4860,
            "byteOffset" : 19500
        },
        {
            "buffer" : 0,
            "byteLength" : 3240,
            "byteOffset" : 24360
        },
        {
            "buffer" : 0,
            "byteLength" : 936,
            "byteOffset" : 27600
        },
        {
            "buffer" : 0,
            "byteLength" : 4824,
            "byteOffset" : 28536
        },
        {
            "buffer" : 0,
            "byteLength" : 4824,
            "byteOffset" : 33360
        },
        {
            "buffer" : 0,
            "byteLength" : 3216,
            "byteOffset" : 38184
        },
        {
            "buffer" : 0,
            "byteLength" : 936,
            "byteOffset" : 41400
        },
        {
            "buffer" : 0,
            "byteLength" : 4668,
            "byteOffset" : 42336
        },
        {
            "buffer" : 0,
            "byteLength" : 4668,
            "byteOffset" : 47004
        },
        {
            "buffer" : 0,
            "byteLength" : 3112,
            "byteOffset" : 51672
        },
        {
            "buffer" : 0,
            "byteLength" : 936,
            "byteOffset" : 54784
        },
        {
            "buffer" : 0,
            "byteLength" : 9864,
            "byteOffset" : 55720
        },
        {
            "buffer" : 0,
            "byteLength" : 9864,
            "byteOffset" : 65584
        },
        {
            "buffer" : 0,
            "byteLength" : 6576,
            "byteOffset" : 75448
        },
        {
            "buffer" : 0,
            "byteLength" : 2376,
            "byteOffset" : 82024
        },
        {
            "buffer" : 0,
            "byteLength" : 9864,
            "byteOffset" : 84400
        },
        {
            "buffer" : 0,
            "byteLength" : 9864,
            "byteOffset" : 94264
        },
        {
            "buffer" : 0,
            "byteLength" : 6576,
            "byteOffset" : 104128
        },
        {
            "buffer" : 0,
            "byteLength" : 9864,
            "byteOffset" : 110704
        },
        {
            "buffer" : 0,
            "byteLength" : 9864,
            "byteOffset" : 120568
        },
        {
            "buffer" : 0,
            "byteLength" : 6576,
            "byteOffset" : 130432
        },
        {
            "buffer" : 0,
            "byteLength" : 9864,
            "byteOffset" : 137008
        },
        {
            "buffer" : 0,
            "byteLength" : 9864,
            "byteOffset" : 146872
        },
        {
            "buffer" : 0,
            "byteLength" : 6576,
            "byteOffset" : 156736
        }
    ],
    "samplers" : [
        {
            "magFilter" : 9728,
            "minFilter" : 9984
        }
    ],
    "buffers" : [
        {
            "byteLength" : 163312,
            "uri" : "data:application/octet-stream;base64,"
        }
    ]
}
